{
.appVersion = "1278";
DisplayStrings = (
AangH126
);
classes = (
{
automatic = 1;

glyphs = (
{
color = 1;
glyphname = .notdef;
lastChange = "2019-12-17 01:48:37 +0000";
layers = (
{
layerId = "66066CCB-AAC9-4485-8967-3F6B885ABFA4";
paths = (
{
closed = 1;
nodes = (
"1219 -337 LINE",
"1219 1419 LINE",
"16 1419 LINE",
"16 -337 LINE"
);
},
{
closed = 1;
nodes = (
"306 1150 LINE",
"931 1150 LINE",
"931 -68 LINE",
"306 -68 LINE"
);
}
);
width = 1235;
},
{
layerId = "B71E0DD6-B640-4F5E-B48D-BF5E04BC2E71";
paths = (
{
closed = 1;
nodes = (
"1132 -354 LINE",
"1132 1410 LINE",
"103 1410 LINE",
"103 -354 LINE"
);
},
{
closed = 1;
nodes = (
"218 1298 LINE",
"1018 1298 LINE",
"1018 -242 LINE",
"218 -242 LINE"
);
}
);
width = 1235;
}
);
note = .notdef;
unicode = 007F;
},
{
color = 1;
glyphname = A;
lastChange = "2019-12-17 01:54:24 +0000";
layers = (
{
anchors = (
{
name = bottom;
position = "{722, 0}";
},
{
name = ogonek;
position = "{1300, 10}";
},
{
name = top;
position = "{722, 1430}";
}
);
layerId = "66066CCB-AAC9-4485-8967-3F6B885ABFA4";
paths = (
{
closed = 1;
nodes = (
"146 0 LINE",
"648 942 LINE",
"560 902 LINE",
"1058 0 LINE",
"1469 0 LINE",
"720 1479 LINE",
"-23 0 LINE"
);
},
{
closed = 1;
nodes = (
"1041 323 LINE",
"961 519 LINE",
"288 519 LINE",
"199 323 LINE"
);
}
);
width = 1444;
},
{
anchors = (
{
name = bottom;
position = "{764, 0}";
},
{
name = ogonek;
position = "{1375, 10}";
},
{
name = top;
position = "{764, 1430}";
}
);
background = {
anchors = (
{
name = bottom;
position = "{672, 0}";
},
{
name = ogonek;
position = "{1172, 10}";
},
{
name = top;
position = "{672, 1430}";
}
);
paths = (
{
closed = 1;
nodes = (
"168 0 LINE",
"700 1315 LINE",
"675 1315 LINE",
"1200 0 LINE",
"1299 0 LINE",
"705 1470 LINE",
"107 0 LINE"
);
},
{
closed = 1;
nodes = (
"1087 446 LINE",
"1059 512 LINE",
"327 512 LINE",
"301 446 LINE"
);
}
);
};
layerId = "B71E0DD6-B640-4F5E-B48D-BF5E04BC2E71";
paths = (
{
closed = 1;
nodes = (
"215 0 LINE",
"801 1357 LINE",
"724 1350 LINE",
"1309 0 LINE",
"1398 0 LINE",
"763 1466 LINE",
"130 0 LINE"
);
},
{
closed = 1;
nodes = (
"1162 510 LINE",
"1131 587 LINE",
"398 587 LINE",
"367 510 LINE"
);
}
);
width = 1528;
}
);
leftKerningGroup = A;
note = A;
rightKerningGroup = A;
unicode = 0041;
},
{
color = 1;
glyphname = AE;
lastChange = "2019-12-17 01:54:24 +0000";
layers = (
{
anchors = (
{
name = bottom;
position = "{1019, 0}";
},
{
name = top;
position = "{1019, 1430}";
}
);
layerId = "66066CCB-AAC9-4485-8967-3F6B885ABFA4";
paths = (
{
closed = 1;
nodes = (
"205 -18 LINE",
"1200 1437 LINE",
"955 1437 LINE",
"-41 -18 LINE"
);
},
{
closed = 1;
nodes = (
"1235 405 LINE",
"1235 598 LINE",
"422 598 LINE",
"422 405 LINE"
);
},
{
closed = 1;
nodes = (
"1982 -18 LINE",
"1982 175 LINE",
"986 175 LINE",
"984 44 LINE",
"1319 -7 LINE",
"1319 808 LINE",
"1106 755 LINE",
"1110 625 LINE",
"1982 625 LINE",
"1982 818 LINE",
"1111 818 LINE",
"1107 688 LINE",
"1319 633 LINE",
"1319 1424 LINE",
"985 1375 LINE",
"987 1244 LINE",
"1982 1244 LINE",
"1982 1437 LINE",
"932 1437 LINE",
"932 -18 LINE"
);
}
);
width = 2037;
},
{
anchors = (
{
name = bottom;
position = "{946, 0}";
},
{
name = top;
position = "{946, 1430}";
}
);
layerId = "B71E0DD6-B640-4F5E-B48D-BF5E04BC2E71";
paths = (
{
closed = 1;
nodes = (
"220 0 LINE",
"1126 1430 LINE",
"1036 1430 LINE",
"130 0 LINE"
);
},
{
closed = 1;
nodes = (
"1142 444 LINE",
"1142 522 LINE",
"477 522 LINE",
"477 444 LINE"
);
},
{
closed = 1;
nodes = (
"1753 0 LINE",
"1753 78 LINE",
"1131 78 LINE",
"1173 12 LINE",
"1173 761 LINE",
"1145 689 LINE",
"1753 689 LINE",
"1753 767 LINE",
"1111 767 LINE",
"1173 701 LINE",
"1173 1423 LINE",
"1032 1352 LINE",
"1753 1352 LINE",
"1753 1430 LINE",
"1089 1430 LINE",
"1089 0 LINE"
);
}
);
width = 1891;
}
);
leftKerningGroup = A;
note = AE;
rightKerningGroup = E;
unicode = 00C6;
},
{
color = 1;
glyphname = B;
lastChange = "2019-12-17 01:54:24 +0000";
layers = (
{
anchors = (
{
name = bottom;
position = "{688, 0}";
},
{
name = top;
position = "{688, 1430}";
}
);
layerId = "66066CCB-AAC9-4485-8967-3F6B885ABFA4";
paths = (
{
closed = 1;
nodes = (
"626 0 LINE SMOOTH",
"1113 0 OFFCURVE",
"1329 132 OFFCURVE",
"1329 442 CURVE SMOOTH",
"1329 651 OFFCURVE",
"1211 771 OFFCURVE",
"984 817 CURVE",
"964 701 LINE",
"1166 765 OFFCURVE",
"1254 859 OFFCURVE",
"1254 1019 CURVE SMOOTH",
"1254 1295 OFFCURVE",
"1039 1436 OFFCURVE",
"626 1436 CURVE SMOOTH",
"135 1436 LINE",
"135 0 LINE"
);
},
{
closed = 1;
nodes = (
"522 813 LINE",
"387 791 LINE",
"389 660 LINE",
"678 660 LINE SMOOTH",
"819 660 OFFCURVE",
"908 574 OFFCURVE",
"908 441 CURVE SMOOTH",
"908 293 OFFCURVE",
"794 193 OFFCURVE",
"626 193 CURVE SMOOTH",
"189 193 LINE",
"187 62 LINE",
"522 11 LINE"
);
},
{
closed = 1;
nodes = (
"522 1411 LINE",
"188 1375 LINE",
"190 1243 LINE",
"626 1243 LINE SMOOTH",
"815 1243 OFFCURVE",
"844 1092 OFFCURVE",
"844 1000 CURVE SMOOTH",
"844 888 OFFCURVE",
"794 854 OFFCURVE",
"626 854 CURVE SMOOTH",
"431 854 LINE",
"427 724 LINE",
"522 699 LINE"
);
}
);
width = 1376;
},
{
anchors = (
{
name = bottom;
position = "{608, 0}";
},
{
name = top;
position = "{608, 1430}";
}
);
layerId = "B71E0DD6-B640-4F5E-B48D-BF5E04BC2E71";
paths = (
{
closed = 1;
nodes = (
"582 0 LINE SMOOTH",
"896 0 OFFCURVE",
"1080 148 OFFCURVE",
"1080 401 CURVE SMOOTH",
"1080 609 OFFCURVE",
"946 767 OFFCURVE",
"742 784 CURVE",
"750 727 LINE",
"925 764 OFFCURVE",
"1032 890 OFFCURVE",
"1032 1058 CURVE SMOOTH",
"1032 1279 OFFCURVE",
"857 1430 OFFCURVE",
"600 1430 CURVE SMOOTH",
"168 1430 LINE",
"168 0 LINE"
);
},
{
closed = 1;
nodes = (
"251 777 LINE",
"207 720 LINE",
"617 720 LINE SMOOTH",
"843 720 OFFCURVE",
"988 601 OFFCURVE",
"988 410 CURVE SMOOTH",
"988 199 OFFCURVE",
"825 77 OFFCURVE",
"544 77 CURVE SMOOTH",
"214 77 LINE",
"251 13 LINE"
);
},
{
closed = 1;
nodes = (
"251 1418 LINE",
"175 1353 LINE",
"582 1353 LINE SMOOTH",
"808 1353 OFFCURVE",
"941 1244 OFFCURVE",
"941 1050 CURVE SMOOTH",
"941 864 OFFCURVE",
"802 793 OFFCURVE",
"600 793 CURVE SMOOTH",
"196 793 LINE",
"251 736 LINE"
);
}
);
width = 1216;
}
);
leftKerningGroup = H;
note = B;
rightKerningGroup = B;
unicode = 0042;
},
{
color = 1;
glyphname = C;
lastChange = "2019-12-17 01:54:24 +0000";
layers = (
{
anchors = (
{
name = bottom;
position = "{793, 0}";
},
{
name = top;
position = "{793, 1430}";
}
);
layerId = "66066CCB-AAC9-4485-8967-3F6B885ABFA4";
paths = (
{
closed = 1;
nodes = (
"1189 -45 OFFCURVE",
"1468 134 OFFCURVE",
"1600 443 CURVE",
"1209 443 LINE",
"1138 254 OFFCURVE",
"1015 154 OFFCURVE",
"851 154 CURVE SMOOTH",
"606 154 OFFCURVE",
"448 370 OFFCURVE",
"448 709 CURVE SMOOTH",
"448 1049 OFFCURVE",
"607 1269 OFFCURVE",
"851 1269 CURVE SMOOTH",
"1016 1269 OFFCURVE",
"1138 1169 OFFCURVE",
"1204 981 CURVE",
"1581 981 LINE",
"1502 1261 OFFCURVE",
"1177 1467 OFFCURVE",
"849 1467 CURVE SMOOTH",
"413 1467 OFFCURVE",
"56 1129 OFFCURVE",
"56 712 CURVE SMOOTH",
"56 293 OFFCURVE",
"413 -45 OFFCURVE",
"856 -45 CURVE SMOOTH"
);
}
);
width = 1586;
},
{
anchors = (
{
name = bottom;
position = "{756, 0}";
},
{
name = top;
position = "{756, 1430}";
}
);
layerId = "B71E0DD6-B640-4F5E-B48D-BF5E04BC2E71";
paths = (
{
closed = 1;
nodes = (
"1073 -10 OFFCURVE",
"1244 101 OFFCURVE",
"1381 349 CURVE",
"1287 349 LINE",
"1192 169 OFFCURVE",
"1028 69 OFFCURVE",
"823 69 CURVE SMOOTH",
"476 69 OFFCURVE",
"237 333 OFFCURVE",
"237 717 CURVE SMOOTH",
"237 1102 OFFCURVE",
"473 1364 OFFCURVE",
"817 1364 CURVE SMOOTH",
"1028 1364 OFFCURVE",
"1205 1260 OFFCURVE",
"1288 1087 CURVE",
"1374 1087 LINE",
"1265 1323 OFFCURVE",
"1076 1443 OFFCURVE",
"819 1443 CURVE SMOOTH",
"417 1443 OFFCURVE",
"139 1145 OFFCURVE",
"139 716 CURVE SMOOTH",
"139 279 OFFCURVE",
"409 -10 OFFCURVE",
"819 -10 CURVE SMOOTH"
);
}
);
width = 1512;
}
);
leftKerningGroup = O;
note = C;
rightKerningGroup = C;
unicode = 0043;
},
{
color = 1;
glyphname = D;
lastChange = "2019-12-17 01:54:24 +0000";
layers = (
{
anchors = (
{
name = bottom;
position = "{810, 0}";
},
{
name = center;
position = "{810, 715}";
},
{
name = top;
position = "{810, 1430}";
}
);
layerId = "66066CCB-AAC9-4485-8967-3F6B885ABFA4";
paths = (
{
closed = 1;
nodes = (
"618 0 LINE SMOOTH",
"1012 0 OFFCURVE",
"1094 14 OFFCURVE",
"1274 140 CURVE SMOOTH",
"1405 232 OFFCURVE",
"1566 428 OFFCURVE",
"1566 718 CURVE SMOOTH",
"1566 954 OFFCURVE",
"1443 1164 OFFCURVE",
"1311 1273 CURVE SMOOTH",
"1126 1425 OFFCURVE",
"1043 1437 OFFCURVE",
"554 1437 CURVE SMOOTH",
"135 1437 LINE",
"135 0 LINE"
);
},
{
closed = 1;
nodes = (
"530 1438 LINE",
"194 1375 LINE",
"197 1244 LINE",
"559 1244 LINE SMOOTH",
"997 1244 OFFCURVE",
"1149 1109 OFFCURVE",
"1149 725 CURVE SMOOTH",
"1149 338 OFFCURVE",
"990 193 OFFCURVE",
"560 193 CURVE SMOOTH",
"197 193 LINE",
"194 62 LINE",
"530 -1 LINE"
);
}
);
width = 1620;
},
{
anchors = (
{
name = bottom;
position = "{705, 0}";
},
{
name = center;
position = "{705, 715}";
},
{
name = top;
position = "{705, 1430}";
}
);
layerId = "B71E0DD6-B640-4F5E-B48D-BF5E04BC2E71";
paths = (
{
closed = 1;
nodes = (
"510 0 LINE SMOOTH",
"732 0 OFFCURVE",
"874 30 OFFCURVE",
"1001 102 CURVE SMOOTH",
"1179 204 OFFCURVE",
"1270 412 OFFCURVE",
"1270 714 CURVE SMOOTH",
"1270 981 OFFCURVE",
"1198 1176 OFFCURVE",
"1061 1283 CURVE SMOOTH",
"923 1391 OFFCURVE",
"752 1430 OFFCURVE",
"447 1430 CURVE SMOOTH",
"168 1430 LINE",
"168 0 LINE"
);
},
{
closed = 1;
nodes = (
"261 1414 LINE",
"211 1353 LINE",
"528 1353 LINE SMOOTH",
"979 1353 OFFCURVE",
"1178 1157 OFFCURVE",
"1178 719 CURVE SMOOTH",
"1178 274 OFFCURVE",
"977 77 OFFCURVE",
"520 77 CURVE SMOOTH",
"211 77 LINE",
"261 16 LINE"
);
}
);
width = 1410;
}
);
leftKerningGroup = H;
note = D;
rightKerningGroup = O;
unicode = 0044;
},
{
color = 1;
glyphname = E;
lastChange = "2019-12-17 05:43:06 +0000";
layers = (
{
anchors = (
{
name = bottom;
position = "{811, 0}";
},
{
name = ogonek;
position = "{1301, 10}";
},
{
name = top;
position = "{811, 1430}";
},
{
name = topleft;
position = "{217, 1430}";
}
);
layerId = "66066CCB-AAC9-4485-8967-3F6B885ABFA4";
paths = (
{
closed = 1;
nodes = (
"1369 0 LINE",
"1369 193 LINE",
"497 193 LINE",
"493 63 LINE",
"707 7 LINE",
"707 814 LINE",
"132 625 LINE",
"1369 625 LINE",
"1369 818 LINE",
"497 818 LINE",
"493 688 LINE",
"707 632 LINE",
"707 1426 LINE",
"372 1375 LINE",
"374 1244 LINE",
"1369 1244 LINE",
"1369 1437 LINE",
"320 1437 LINE",
"320 0 LINE"
);
}
);
width = 1424;
},
{
anchors = (
{
name = bottom;
position = "{559, 0}";
},
{
name = ogonek;
position = "{1006, 10}";
},
{
name = top;
position = "{559, 1430}";
},
{
name = topleft;
position = "{20, 1430}";
}
);
background = {
anchors = (
{
name = bottom;
position = "{689, 0}";
},
{
name = ogonek;
position = "{1087, 10}";
},
{
name = top;
position = "{689, 1430}";
},
{
name = topleft;
position = "{212, 1430}";
}
);
paths = (
{
closed = 1;
nodes = (
"1086 0 LINE",
"1086 66 LINE",
"365 66 LINE",
"402 6 LINE",
"402 766 LINE",
"364 695 LINE",
"1086 695 LINE",
"1086 761 LINE",
"365 761 LINE",
"402 701 LINE",
"402 1424 LINE",
"368 1364 LINE",
"1086 1364 LINE",
"1086 1430 LINE",
"322 1430 LINE",
"322 0 LINE"
);
}
);
};
layerId = "B71E0DD6-B640-4F5E-B48D-BF5E04BC2E71";
paths = (
{
closed = 1;
nodes = (
"980 0 LINE",
"980 77 LINE",
"185 77 LINE",
"251 16 LINE",
"251 757 LINE",
"214 689 LINE",
"980 689 LINE",
"980 766 LINE",
"185 766 LINE",
"251 705 LINE",
"251 1419 LINE",
"204 1353 LINE",
"980 1353 LINE",
"980 1430 LINE",
"168 1430 LINE",
"168 0 LINE"
);
}
);
width = 1118;
}
);
leftKerningGroup = H;
leftMetricsKey = H;
note = E;
rightKerningGroup = E;
unicode = 0045;
},
{
color = 1;
glyphname = F;
lastChange = "2019-12-17 05:43:06 +0000";
layers = (
{
anchors = (
{
name = bottom;
position = "{583, 0}";
},
{
name = top;
position = "{583, 1430}";
}
);
layerId = "66066CCB-AAC9-4485-8967-3F6B885ABFA4";
paths = (
{
closed = 1;
nodes = (
"519 0 LINE",
"519 809 LINE",
"184 758 LINE",
"186 627 LINE",
"1119 627 LINE",
"1119 818 LINE",
"186 818 LINE",
"183 687 LINE",
"519 627 LINE",
"519 1412 LINE",
"184 1376 LINE",
"186 1244 LINE",
"1119 1244 LINE",
"1119 1437 LINE",
"132 1437 LINE",
"132 0 LINE"
);
}
);
width = 1157;
},
{
anchors = (
{
name = bottom;
position = "{548, 0}";
},
{
name = top;
position = "{548, 1430}";
}
);
background = {
paths = (
{
closed = 1;
nodes = (
"229 0 LINE",
"229 733 LINE",
"205 717 LINE",
"813 717 LINE",
"813 741 LINE",
"205 741 LINE",
"229 725 LINE",
"229 1420 LINE",
"205 1404 LINE",
"813 1404 LINE",
"813 1430 LINE",
"169 1430 LINE",
"169 0 LINE"
);
}
);
};
layerId = "B71E0DD6-B640-4F5E-B48D-BF5E04BC2E71";
paths = (
{
closed = 1;
nodes = (
"251 0 LINE",
"251 759 LINE",
"218 689 LINE",
"961 689 LINE",
"961 766 LINE",
"194 766 LINE",
"251 703 LINE",
"251 1419 LINE",
"204 1353 LINE",
"961 1353 LINE",
"961 1430 LINE",
"168 1430 LINE",
"168 0 LINE"
);
}
);
width = 1096;
}
);
leftKerningGroup = H;
leftMetricsKey = H;
note = F;
rightKerningGroup = F;
unicode = 0046;
},
{
color = 1;
glyphname = G;
lastChange = "2019-12-17 01:54:24 +0000";
layers = (
{
anchors = (
{
name = bottom;
position = "{839, 0}";
},
{
name = top;
position = "{839, 1430}";
}
);
layerId = "66066CCB-AAC9-4485-8967-3F6B885ABFA4";
paths = (
{
closed = 1;
nodes = (
"1303 -45 OFFCURVE",
"1647 275 OFFCURVE",
"1648 713 CURVE",
"1253 713 LINE",
"1256 365 OFFCURVE",
"1095 142 OFFCURVE",
"852 142 CURVE SMOOTH",
"609 142 OFFCURVE",
"449 366 OFFCURVE",
"449 708 CURVE SMOOTH",
"449 1051 OFFCURVE",
"610 1280 OFFCURVE",
"853 1280 CURVE SMOOTH",
"1018 1280 OFFCURVE",
"1139 1181 OFFCURVE",
"1205 994 CURVE",
"1585 994 LINE",
"1489 1270 OFFCURVE",
"1169 1467 OFFCURVE",
"852 1467 CURVE SMOOTH",
"414 1467 OFFCURVE",
"57 1129 OFFCURVE",
"57 713 CURVE SMOOTH",
"57 277 OFFCURVE",
"396 -45 OFFCURVE",
"855 -45 CURVE SMOOTH"
);
},
{
closed = 1;
nodes = (
"1473 520 LINE",
"1473 713 LINE",
"821 713 LINE",
"821 520 LINE"
);
}
);
width = 1677;
},
{
anchors = (
{
name = bottom;
position = "{801, 0}";
},
{
name = top;
position = "{801, 1430}";
}
);
background = {
paths = (
{
closed = 1;
nodes = (
"1224 -10 OFFCURVE",
"1476 247 OFFCURVE",
"1504 653 CURVE",
"1422 653 LINE",
"1394 308 OFFCURVE",
"1168 78 OFFCURVE",
"851 69 CURVE",
"510 79 OFFCURVE",
"283 338 OFFCURVE",
"283 717 CURVE SMOOTH",
"283 1097 OFFCURVE",
"512 1358 OFFCURVE",
"851 1364 CURVE",
"1056 1361 OFFCURVE",
"1236 1256 OFFCURVE",
"1328 1086 CURVE",
"1438 1086 LINE",
"1317 1319 OFFCURVE",
"1111 1443 OFFCURVE",
"851 1443 CURVE SMOOTH",
"457 1443 OFFCURVE",
"185 1145 OFFCURVE",
"185 716 CURVE SMOOTH",
"185 283 OFFCURVE",
"452 -10 OFFCURVE",
"851 -10 CURVE SMOOTH"
);
},
{
closed = 1;
nodes = (
"1442 576 LINE",
"1442 653 LINE",
"983 653 LINE",
"983 576 LINE"
);
}
);
};
layerId = "B71E0DD6-B640-4F5E-B48D-BF5E04BC2E71";
paths = (
{
closed = 1;
nodes = (
"1184 -10 OFFCURVE",
"1445 256 OFFCURVE",
"1469 654 CURVE",
"1371 654 LINE",
"1347 309 OFFCURVE",
"1127 78 OFFCURVE",
"805 69 CURVE",
"464 79 OFFCURVE",
"237 338 OFFCURVE",
"237 717 CURVE SMOOTH",
"237 1096 OFFCURVE",
"467 1358 OFFCURVE",
"805 1364 CURVE",
"1016 1360 OFFCURVE",
"1185 1257 OFFCURVE",
"1282 1087 CURVE",
"1390 1087 LINE",
"1282 1308 OFFCURVE",
"1072 1443 OFFCURVE",
"805 1443 CURVE SMOOTH",
"410 1443 OFFCURVE",
"139 1145 OFFCURVE",
"139 714 CURVE SMOOTH",
"139 283 OFFCURVE",
"407 -10 OFFCURVE",
"805 -10 CURVE SMOOTH"
);
},
{
closed = 1;
nodes = (
"1442 576 LINE",
"1442 653 LINE",
"983 653 LINE",
"983 576 LINE"
);
}
);
width = 1602;
}
);
leftKerningGroup = O;
note = G;
rightKerningGroup = G;
unicode = 0047;
},
{
color = 1;
glyphname = H;
lastChange = "2019-12-17 01:59:29 +0000";
layers = (
{
anchors = (
{
name = bottom;
position = "{809, 0}";
},
{
name = center;
position = "{809, 715}";
},
{
name = top;
position = "{809, 1430}";
},
{
name = topleft;
position = "{20, 1430}";
}
);
layerId = "66066CCB-AAC9-4485-8967-3F6B885ABFA4";
paths = (
{
closed = 1;
nodes = (
"508 0 LINE",
"508 850 LINE",
"182 639 LINE",
"1437 639 LINE",
"1110 850 LINE",
"1110 0 LINE",
"1486 0 LINE",
"1486 1437 LINE",
"1110 1437 LINE",
"1110 624 LINE",
"1437 835 LINE",
"182 835 LINE",
"508 624 LINE",
"508 1437 LINE",
"132 1437 LINE",
"132 0 LINE"
);
}
);
width = 1618;
},
{
anchors = (
{
name = bottom;
position = "{762, 0}";
},
{
name = center;
position = "{762, 715}";
},
{
name = top;
position = "{762, 1430}";
},
{
name = topleft;
position = "{20, 1430}";
}
);
background = {
anchors = (
{
name = bottom;
position = "{739, 0}";
},
{
name = center;
position = "{739, 715}";
},
{
name = top;
position = "{739, 1430}";
},
{
name = topleft;
position = "{54, 1430}";
}
);
paths = (
{
closed = 1;
nodes = (
"240 0 LINE",
"240 754 LINE",
"175 699 LINE",
"1303 699 LINE",
"1238 754 LINE",
"1238 0 LINE",
"1324 0 LINE",
"1324 1430 LINE",
"1238 1430 LINE",
"1238 710 LINE",
"1303 765 LINE",
"175 765 LINE",
"240 710 LINE",
"240 1430 LINE",
"154 1430 LINE",
"154 0 LINE"
);
}
);
};
layerId = "B71E0DD6-B640-4F5E-B48D-BF5E04BC2E71";
paths = (
{
closed = 1;
nodes = (
"257 0 LINE",
"257 750 LINE",
"191 693 LINE",
"1316 693 LINE",
"1267 750 LINE",
"1267 0 LINE",
"1355 0 LINE",
"1355 1430 LINE",
"1267 1430 LINE",
"1267 713 LINE",
"1316 770 LINE",
"191 770 LINE",
"257 713 LINE",
"257 1430 LINE",
"168 1430 LINE",
"168 0 LINE"
);
}
);
width = 1523;
}
);
leftKerningGroup = H;
note = H;
rightKerningGroup = H;
unicode = 0048;
},
{
color = 1;
glyphname = I;
lastChange = "2019-12-17 01:54:24 +0000";
layers = (
{
anchors = (
{
name = bottom;
position = "{328, 0}";
},
{
name = ogonek;
position = "{590, 10}";
},
{
name = top;
position = "{328, 1430}";
},
{
name = topleft;
position = "{20, 1430}";
}
);
layerId = "66066CCB-AAC9-4485-8967-3F6B885ABFA4";
paths = (
{
closed = 1;
nodes = (
"521 0 LINE",
"521 1437 LINE",
"134 1437 LINE",
"134 0 LINE"
);
}
);
width = 656;
},
{
anchors = (
{
name = bottom;
position = "{210, 0}";
},
{
name = ogonek;
position = "{377, 10}";
},
{
name = top;
position = "{210, 1430}";
},
{
name = topleft;
position = "{20, 1430}";
}
);
layerId = "B71E0DD6-B640-4F5E-B48D-BF5E04BC2E71";
paths = (
{
closed = 1;
nodes = (
"251 0 LINE",
"251 1430 LINE",
"168 1430 LINE",
"168 0 LINE"
);
}
);
width = 419;
}
);
leftKerningGroup = H;
note = I;
rightKerningGroup = H;
unicode = 0049;
},
{
color = 1;
glyphname = J;
lastChange = "2019-12-17 01:54:24 +0000";
layers = (
{
anchors = (
{
name = bottom;
position = "{497, 0}";
},
{
name = top;
position = "{497, 1430}";
}
);
layerId = "66066CCB-AAC9-4485-8967-3F6B885ABFA4";
paths = (
{
closed = 1;
nodes = (
"93 -80 OFFCURVE",
"259 -155 OFFCURVE",
"437 -155 CURVE SMOOTH",
"705 -155 OFFCURVE",
"869 75 OFFCURVE",
"869 442 CURVE SMOOTH",
"869 1437 LINE",
"483 1437 LINE",
"483 390 LINE SMOOTH",
"483 106 OFFCURVE",
"472 56 OFFCURVE",
"391 56 CURVE SMOOTH",
"258 56 OFFCURVE",
"129 207 OFFCURVE",
"45 444 CURVE",
"45 49 LINE"
);
}
);
width = 993;
},
{
anchors = (
{
name = bottom;
position = "{369, 0}";
},
{
name = top;
position = "{369, 1430}";
}
);
layerId = "B71E0DD6-B640-4F5E-B48D-BF5E04BC2E71";
paths = (
{
closed = 1;
nodes = (
"186 -112 OFFCURVE",
"246 -147 OFFCURVE",
"330 -147 CURVE SMOOTH",
"476 -147 OFFCURVE",
"570 -41 OFFCURVE",
"570 151 CURVE SMOOTH",
"570 1431 LINE",
"486 1431 LINE",
"486 216 LINE SMOOTH",
"486 4 OFFCURVE",
"437 -66 OFFCURVE",
"335 -66 CURVE SMOOTH",
"247 -66 OFFCURVE",
"176 -14 OFFCURVE",
"132 14 CURVE",
"132 -79 LINE"
);
}
);
width = 737;
}
);
leftKerningGroup = J;
note = J;
rightKerningGroup = J;
unicode = 004A;
},
{
color = 1;
glyphname = K;
lastChange = "2019-12-17 01:54:24 +0000";
layers = (
{
anchors = (
{
name = bottom;
position = "{741, 0}";
},
{
name = top;
position = "{741, 1430}";
}
);
guideLines = (
{
angle = 50.0776;
position = "{893, 1108}";
}
);
layerId = "66066CCB-AAC9-4485-8967-3F6B885ABFA4";
paths = (
{
closed = 1;
nodes = (
"522 0 LINE",
"522 1437 LINE",
"135 1437 LINE",
"135 0 LINE"
);
},
{
closed = 1;
nodes = (
"1440 1437 LINE",
"1160 1437 LINE",
"239 536 LINE",
"413 440 LINE"
);
},
{
closed = 1;
nodes = (
"1549 0 LINE",
"686 987 LINE",
"433 688 LINE",
"1055 0 LINE"
);
}
);
width = 1482;
},
{
anchors = (
{
name = bottom;
position = "{683, 0}";
},
{
name = top;
position = "{683, 1430}";
}
);
layerId = "B71E0DD6-B640-4F5E-B48D-BF5E04BC2E71";
paths = (
{
closed = 1;
nodes = (
"251 0 LINE",
"251 1430 LINE",
"168 1430 LINE",
"168 0 LINE"
);
},
{
closed = 1;
nodes = (
"1171 1430 LINE",
"1079 1430 LINE",
"229 585 LINE",
"228 492 LINE"
);
},
{
closed = 1;
nodes = (
"1236 0 LINE",
"521 823 LINE",
"456 745 LINE",
"1103 0 LINE"
);
}
);
width = 1366;
}
);
leftKerningGroup = H;
note = K;
rightKerningGroup = K;
unicode = 004B;
},
{
color = 1;
glyphname = L;
lastChange = "2019-12-17 02:02:17 +0000";
layers = (
{
anchors = (
{
name = bottom;
position = "{585, 0}";
},
{
name = center;
position = "{585, 715}";
},
{
name = dot;
position = "{585, 0}";
},
{
name = ogonek;
position = "{1076.986, 10}";
},
{
name = top;
position = "{585, 1430}";
},
{
name = topleft;
position = "{-20.832, 1430}";
},
{
name = topright;
position = "{1149, 1430}";
}
);
layerId = "66066CCB-AAC9-4485-8967-3F6B885ABFA4";
paths = (
{
closed = 1;
nodes = (
"1151 0 LINE",
"1151 171 LINE",
"192 171 LINE",
"522 23 LINE",
"522 1436 LINE",
"132 1436 LINE",
"132 0 LINE"
);
}
);
width = 1169;
},
{
anchors = (
{
name = bottom;
position = "{533, 0}";
},
{
name = center;
position = "{533, 715}";
},
{
name = dot;
position = "{533, 0}";
},
{
name = ogonek;
position = "{982.094, 10}";
},
{
name = top;
position = "{533, 1430}";
},
{
name = topleft;
position = "{-18.997, 1430}";
},
{
name = topright;
position = "{1046, 1430}";
}
);
layerId = "B71E0DD6-B640-4F5E-B48D-BF5E04BC2E71";
paths = (
{
closed = 1;
nodes = (
"935 0 LINE",
"935 77 LINE",
"206 77 LINE",
"256 15 LINE",
"256 1430 LINE",
"168 1430 LINE",
"168 0 LINE"
);
}
);
width = 1066;
}
);
leftKerningGroup = H;
note = L;
rightKerningGroup = L;
unicode = 004C;
},
{
color = 1;
glyphname = M;
lastChange = "2019-12-17 01:54:24 +0000";
layers = (
{
anchors = (
{
name = bottom;
position = "{939, 0}";
},
{
name = top;
position = "{939, 1430}";
}
);
layerId = "66066CCB-AAC9-4485-8967-3F6B885ABFA4";
paths = (
{
closed = 1;
nodes = (
"255 0 LINE",
"255 1473 LINE",
"175 1079 LINE",
"851 -9 LINE",
"1527 1173 LINE",
"1502 1245 LINE",
"1366 1060 LINE",
"1366 0 LINE",
"1742 0 LINE",
"1742 1437 LINE",
"1501 1437 LINE",
"683 2 LINE",
"1019 422 LINE",
"385 1437 LINE",
"135 1437 LINE",
"135 0 LINE"
);
}
);
width = 1877;
},
{
anchors = (
{
name = bottom;
position = "{853, 0}";
},
{
name = top;
position = "{853, 1430}";
}
);
guideLines = (
{
angle = 112.9199;
position = "{436, 856}";
},
{
angle = 247.1086;
position = "{1034, 711}";
},
{
angle = 111.5953;
position = "{580, 730}";
},
{
angle = 248.2128;
position = "{1133, 730}";
},
{
angle = 68.3561;
position = "{1093, 689}";
},
{
angle = -67.1343;
position = "{516, 712}";
}
);
layerId = "B71E0DD6-B640-4F5E-B48D-BF5E04BC2E71";
paths = (
{
closed = 1;
nodes = (
"251 0 LINE",
"251 1405 LINE",
"211 1398 LINE",
"853 85 LINE",
"1495 1399 LINE",
"1455 1405 LINE",
"1455 0 LINE",
"1538 0 LINE",
"1538 1430 LINE",
"1405 1430 LINE",
"811 215 LINE",
"895 215 LINE",
"301 1430 LINE",
"168 1430 LINE",
"168 0 LINE"
);
}
);
width = 1706;
}
);
leftKerningGroup = M;
note = M;
rightKerningGroup = M;
unicode = 004D;
},
{
glyphname = N;
lastChange = "2019-12-17 05:43:06 +0000";
layers = (
{
anchors = (
{
name = bottom;
position = "{779, 0}";
},
{
name = top;
position = "{779, 1430}";
}
);
layerId = "66066CCB-AAC9-4485-8967-3F6B885ABFA4";
paths = (
{
closed = 1;
nodes = (
"261 0 LINE",
"261 1360 LINE",
"145 954 LINE",
"1409 0 LINE",
"1425 0 LINE",
"1425 1437 LINE",
"1306 1437 LINE",
"1306 45 LINE",
"1426 470 LINE",
"153 1437 LINE",
"132 1437 LINE",
"145 0 LINE"
);
}
);
width = 1558;
},
{
anchors = (
{
name = bottom;
position = "{788, 0}";
},
{
name = top;
position = "{788, 1430}";
}
);
background = {
anchors = (
{
name = bottom;
position = "{1040, 0}";
},
{
name = top;
position = "{1040, 1430}";
}
);
paths = (
{
closed = 1;
nodes = (
"545 5 LINE",
"545 1411 LINE",
"524 1349 LINE",
"1516 0 LINE",
"1601 0 LINE",
"1601 1430 LINE",
"1535 1430 LINE",
"1535 33 LINE",
"1565 64 LINE",
"575 1430 LINE",
"479 1430 LINE",
"479 5 LINE"
);
}
);
};
layerId = "B71E0DD6-B640-4F5E-B48D-BF5E04BC2E71";
paths = (
{
closed = 1;
nodes = (
"251 4 LINE",
"251 1381 LINE",
"219 1359 LINE",
"1291 0 LINE",
"1407 0 LINE",
"1407 1430 LINE",
"1324 1430 LINE",
"1324 49 LINE",
"1344 91 LINE",
"294 1430 LINE",
"168 1430 LINE",
"168 4 LINE"
);
}
);
width = 1575;
}
);
leftKerningGroup = H;
leftMetricsKey = H;
note = N;
rightKerningGroup = H;
rightMetricsKey = H;
unicode = 004E;
},
{
color = 1;
glyphname = Eng;
lastChange = "2019-12-17 01:48:37 +0000";
layers = (
{
layerId = "66066CCB-AAC9-4485-8967-3F6B885ABFA4";
paths = (
{
closed = 1;
nodes = (
"1275 -383 OFFCURVE",
"1393 -259 OFFCURVE",
"1393 -46 CURVE SMOOTH",
"1393 1437 LINE",
"1186 1437 LINE",
"1186 288 LINE",
"1393 350 LINE",
"365 1437 LINE",
"134 1437 LINE",
"134 -18 LINE",
"340 -18 LINE",
"340 1007 LINE",
"182 996 LINE",
"1062 98 LINE SMOOTH",
"1140 17 OFFCURVE",
"1144 11 OFFCURVE",
"1144 -79 CURVE SMOOTH",
"1144 -175 OFFCURVE",
"1128 -197 OFFCURVE",
"1055 -197 CURVE SMOOTH",
"950 -197 OFFCURVE",
"855 -93 OFFCURVE",
"769 100 CURVE",
"769 -242 LINE",
"835 -339 OFFCURVE",
"933 -383 OFFCURVE",
"1067 -383 CURVE SMOOTH"
);
}
);
width = 1535;
},
{
layerId = "B71E0DD6-B640-4F5E-B48D-BF5E04BC2E71";
paths = (
{
closed = 1;
nodes = (
"1313 -344 OFFCURVE",
"1407 -238 OFFCURVE",
"1407 -46 CURVE SMOOTH",
"1407 1430 LINE",
"1324 1430 LINE",
"1324 90 LINE",
"1341 96 LINE",
"294 1430 LINE",
"168 1430 LINE",
"168 4 LINE",
"251 4 LINE",
"251 1345 LINE",
"234 1339 LINE",
"1259 41 LINE SMOOTH",
"1289 3 OFFCURVE",
"1321 -25 OFFCURVE",
"1321 -67 CURVE SMOOTH",
"1321 -208 OFFCURVE",
"1263 -263 OFFCURVE",
"1172 -263 CURVE SMOOTH",
"1084 -263 OFFCURVE",
"1013 -211 OFFCURVE",
"969 -183 CURVE",
"969 -276 LINE",
"1023 -309 OFFCURVE",
"1083 -344 OFFCURVE",
"1167 -344 CURVE SMOOTH"
);
}
);
width = 1579;
}
);
leftKerningGroup = Eng;
rightKerningGroup = Eng;
unicode = 014A;
},
{
color = 1;
glyphname = O;
lastChange = "2019-12-17 01:54:24 +0000";
layers = (
{
anchors = (
{
name = bottom;
position = "{847, 0}";
},
{
name = center;
position = "{847, 715}";
},
{
name = ogonek;
position = "{1525, 10}";
},
{
name = top;
position = "{847, 1430}";
},
{
name = topleft;
position = "{20, 1430}";
},
{
name = topright;
position = "{1674, 1430}";
}
);
layerId = "66066CCB-AAC9-4485-8967-3F6B885ABFA4";
paths = (
{
closed = 1;
nodes = (
"1298 -44 OFFCURVE",
"1640 281 OFFCURVE",
"1640 707 CURVE SMOOTH",
"1640 1134 OFFCURVE",
"1294 1466 OFFCURVE",
"848 1466 CURVE SMOOTH",
"403 1466 OFFCURVE",
"54 1133 OFFCURVE",
"54 707 CURVE SMOOTH",
"54 281 OFFCURVE",
"398 -44 OFFCURVE",
"848 -44 CURVE SMOOTH"
);
},
{
closed = 1;
nodes = (
"606 146 OFFCURVE",
"447 368 OFFCURVE",
"447 706 CURVE SMOOTH",
"447 1047 OFFCURVE",
"608 1277 OFFCURVE",
"848 1277 CURVE SMOOTH",
"1087 1277 OFFCURVE",
"1248 1047 OFFCURVE",
"1248 706 CURVE SMOOTH",
"1248 367 OFFCURVE",
"1090 146 OFFCURVE",
"848 146 CURVE SMOOTH"
);
}
);
width = 1694;
},
{
anchors = (
{
name = bottom;
position = "{805, 0}";
},
{
name = center;
position = "{805, 715}";
},
{
name = ogonek;
position = "{1449, 10}";
},
{
name = top;
position = "{805, 1430}";
},
{
name = topleft;
position = "{20, 1430}";
},
{
name = topright;
position = "{1590, 1430}";
}
);
background = {
anchors = (
{
name = bottom;
position = "{770, 0}";
},
{
name = center;
position = "{770, 715}";
},
{
name = ogonek;
position = "{1362, 10}";
},
{
name = top;
position = "{770, 1430}";
},
{
name = topleft;
position = "{50, 1430}";
},
{
name = topright;
position = "{1490, 1430}";
}
);
paths = (
{
closed = 1;
nodes = (
"1163 -26 OFFCURVE",
"1420 269 OFFCURVE",
"1420 715 CURVE SMOOTH",
"1420 1162 OFFCURVE",
"1161 1460 OFFCURVE",
"770 1460 CURVE SMOOTH",
"379 1460 OFFCURVE",
"120 1161 OFFCURVE",
"120 715 CURVE SMOOTH",
"120 269 OFFCURVE",
"377 -26 OFFCURVE",
"770 -26 CURVE SMOOTH"
);
},
{
closed = 1;
nodes = (
"433 43 OFFCURVE",
"205 320 OFFCURVE",
"205 718 CURVE SMOOTH",
"205 1116 OFFCURVE",
"435 1395 OFFCURVE",
"770 1403 CURVE",
"1105 1395 OFFCURVE",
"1335 1116 OFFCURVE",
"1335 718 CURVE SMOOTH",
"1335 320 OFFCURVE",
"1107 43 OFFCURVE",
"770 31 CURVE"
);
}
);
};
layerId = "B71E0DD6-B640-4F5E-B48D-BF5E04BC2E71";
paths = (
{
closed = 1;
nodes = (
"1203 -10 OFFCURVE",
"1471 283 OFFCURVE",
"1471 714 CURVE SMOOTH",
"1471 1146 OFFCURVE",
"1201 1443 OFFCURVE",
"805 1443 CURVE SMOOTH",
"410 1443 OFFCURVE",
"139 1145 OFFCURVE",
"139 714 CURVE SMOOTH",
"139 283 OFFCURVE",
"407 -10 OFFCURVE",
"805 -10 CURVE SMOOTH"
);
},
{
closed = 1;
nodes = (
"464 79 OFFCURVE",
"237 338 OFFCURVE",
"237 717 CURVE SMOOTH",
"237 1096 OFFCURVE",
"467 1358 OFFCURVE",
"805 1364 CURVE",
"1143 1358 OFFCURVE",
"1373 1096 OFFCURVE",
"1373 717 CURVE SMOOTH",
"1373 338 OFFCURVE",
"1146 79 OFFCURVE",
"805 69 CURVE"
);
}
);
width = 1610;
}
);
leftKerningGroup = O;
note = O;
rightKerningGroup = O;
unicode = 004F;
},
{
glyphname = OE;
lastChange = "2019-12-17 02:02:29 +0000";
layers = (
{
anchors = (
{
name = bottom;
position = "{1124, 0}";
},
{
name = top;
position = "{1124, 1430}";
}
);
layerId = "66066CCB-AAC9-4485-8967-3F6B885ABFA4";
paths = (
{
closed = 1;
nodes = (
"1232 -45 OFFCURVE",
"1561 280 OFFCURVE",
"1561 706 CURVE SMOOTH",
"1561 1133 OFFCURVE",
"1228 1467 OFFCURVE",
"801 1467 CURVE SMOOTH",
"373 1467 OFFCURVE",
"39 1133 OFFCURVE",
"39 706 CURVE SMOOTH",
"39 281 OFFCURVE",
"369 -45 OFFCURVE",
"801 -45 CURVE SMOOTH"
);
},
{
closed = 1;
nodes = (
"573 142 OFFCURVE",
"425 364 OFFCURVE",
"425 706 CURVE SMOOTH",
"425 1051 OFFCURVE",
"575 1280 OFFCURVE",
"801 1280 CURVE SMOOTH",
"1026 1280 OFFCURVE",
"1179 1048 OFFCURVE",
"1179 706 CURVE SMOOTH",
"1179 367 OFFCURVE",
"1029 142 OFFCURVE",
"801 142 CURVE SMOOTH"
);
},
{
closed = 1;
nodes = (
"2192 -18 LINE",
"2192 175 LINE",
"1123 175 LINE",
"1121 43 LINE",
"1570 -10 LINE",
"1570 812 LINE",
"1263 756 LINE",
"1266 625 LINE",
"2192 625 LINE",
"2192 818 LINE",
"1234 818 LINE",
"1232 687 LINE",
"1570 633 LINE",
"1570 1411 LINE",
"1224 1376 LINE",
"1226 1244 LINE",
"2192 1244 LINE",
"2192 1437 LINE",
"1183 1437 LINE",
"1183 -18 LINE"
);
}
);
width = 2247;
},
{
anchors = (
{
name = bottom;
position = "{1134, 0}";
},
{
name = top;
position = "{1134, 1430}";
}
);
layerId = "B71E0DD6-B640-4F5E-B48D-BF5E04BC2E71";
paths = (
{
closed = 1;
nodes = (
"1167 -10 OFFCURVE",
"1401 286 OFFCURVE",
"1401 717 CURVE SMOOTH",
"1401 1148 OFFCURVE",
"1167 1444 OFFCURVE",
"770 1444 CURVE SMOOTH",
"373 1444 OFFCURVE",
"139 1148 OFFCURVE",
"139 717 CURVE SMOOTH",
"139 286 OFFCURVE",
"373 -10 OFFCURVE",
"770 -10 CURVE SMOOTH"
);
},
{
closed = 1;
nodes = (
"430 77 OFFCURVE",
"237 338 OFFCURVE",
"237 717 CURVE SMOOTH",
"237 1096 OFFCURVE",
"430 1357 OFFCURVE",
"770 1365 CURVE",
"1110 1357 OFFCURVE",
"1303 1096 OFFCURVE",
"1303 717 CURVE SMOOTH",
"1303 338 OFFCURVE",
"1110 77 OFFCURVE",
"770 69 CURVE"
);
},
{
closed = 1;
nodes = (
"2129 0 LINE",
"2129 77 LINE",
"1334 77 LINE",
"1400 16 LINE",
"1400 757 LINE",
"1363 689 LINE",
"2129 689 LINE",
"2129 766 LINE",
"1334 766 LINE",
"1400 705 LINE",
"1400 1419 LINE",
"1353 1353 LINE",
"2129 1353 LINE",
"2129 1430 LINE",
"1317 1430 LINE",
"1317 0 LINE"
);
}
);
width = 2267;
}
);
leftKerningGroup = O;
leftMetricsKey = O;
note = OE;
rightKerningGroup = E;
rightMetricsKey = E;
unicode = 0152;
},
{
color = 1;
glyphname = P;
lastChange = "2019-12-17 02:07:29 +0000";
layers = (
{
anchors = (
{
name = bottom;
position = "{638, 0}";
},
{
name = top;
position = "{638, 1430}";
}
);
layerId = "66066CCB-AAC9-4485-8967-3F6B885ABFA4";
paths = (
{
closed = 1;
nodes = (
"509 0 LINE",
"509 612 LINE",
"333 478 LINE",
"690 478 LINE SMOOTH",
"829 478 OFFCURVE",
"934 508 OFFCURVE",
"1045 578 CURVE SMOOTH",
"1152 645 OFFCURVE",
"1233 809 OFFCURVE",
"1233 957 CURVE SMOOTH",
"1233 1089 OFFCURVE",
"1178 1215 OFFCURVE",
"1091 1287 CURVE SMOOTH",
"964 1391 OFFCURVE",
"828 1436 OFFCURVE",
"638 1436 CURVE SMOOTH",
"133 1436 LINE",
"133 0 LINE"
);
},
{
closed = 1;
nodes = (
"509 1418 LINE",
"176 1290 LINE",
"642 1290 LINE SMOOTH",
"777 1290 OFFCURVE",
"856 1145 OFFCURVE",
"856 936 CURVE SMOOTH",
"856 838 OFFCURVE",
"802 637 OFFCURVE",
"642 637 CURVE SMOOTH",
"419 637 LINE",
"509 506 LINE"
);
}
);
width = 1276;
},
{
anchors = (
{
name = bottom;
position = "{549, 0}";
},
{
name = top;
position = "{549, 1430}";
}
);
layerId = "B71E0DD6-B640-4F5E-B48D-BF5E04BC2E71";
paths = (
{
closed = 1;
nodes = (
"251 0 LINE",
"251 653 LINE",
"179 593 LINE",
"460 593 LINE SMOOTH",
"621 593 OFFCURVE",
"743 625 OFFCURVE",
"826 690 CURVE SMOOTH",
"917 761 OFFCURVE",
"962 869 OFFCURVE",
"962 1016 CURVE SMOOTH",
"962 1148 OFFCURVE",
"926 1248 OFFCURVE",
"852 1316 CURVE SMOOTH",
"769 1393 OFFCURVE",
"639 1430 OFFCURVE",
"461 1430 CURVE SMOOTH",
"168 1430 LINE",
"168 0 LINE"
);
},
{
closed = 1;
nodes = (
"251 1416 LINE",
"196 1353 LINE",
"416 1353 LINE SMOOTH",
"736 1353 OFFCURVE",
"873 1251 OFFCURVE",
"873 1014 CURVE SMOOTH",
"873 773 OFFCURVE",
"736 670 OFFCURVE",
"416 670 CURVE SMOOTH",
"177 670 LINE",
"251 610 LINE"
);
}
);
width = 1098;
}
);
leftKerningGroup = H;
note = P;
rightKerningGroup = P;
unicode = 0050;
},
{
color = 1;
glyphname = Thorn;
lastChange = "2019-12-17 02:07:23 +0000";
layers = (
{
anchors = (
{
name = bottom;
position = "{906, 0}";
},
{
name = top;
position = "{906, 1430}";
}
);
layerId = "66066CCB-AAC9-4485-8967-3F6B885ABFA4";
paths = (
{
closed = 1;
nodes = (
"673 283 LINE SMOOTH",
"858 283 OFFCURVE",
"1034 329 OFFCURVE",
"1110 388 CURVE SMOOTH",
"1246 493 OFFCURVE",
"1290 579 OFFCURVE",
"1290 746 CURVE SMOOTH",
"1290 898 OFFCURVE",
"1256 972 OFFCURVE",
"1143 1075 CURVE SMOOTH",
"1066 1145 OFFCURVE",
"878 1200 OFFCURVE",
"674 1200 CURVE SMOOTH",
"352 1200 LINE",
"352 1043 LINE",
"589 1043 LINE SMOOTH",
"850 1043 OFFCURVE",
"931 973 OFFCURVE",
"931 744 CURVE SMOOTH",
"931 512 OFFCURVE",
"850 440 OFFCURVE",
"589 440 CURVE SMOOTH",
"353 440 LINE",
"353 283 LINE"
);
},
{
closed = 1;
nodes = (
"544 0 LINE",
"544 1430 LINE",
"168 1430 LINE",
"168 0 LINE"
);
}
);
width = 1427;
},
{
anchors = (
{
name = bottom;
position = "{544, 0}";
},
{
name = top;
position = "{544, 1430}";
}
);
layerId = "B71E0DD6-B640-4F5E-B48D-BF5E04BC2E71";
paths = (
{
closed = 1;
nodes = (
"450 323 LINE SMOOTH",
"611 323 OFFCURVE",
"733 355 OFFCURVE",
"816 420 CURVE SMOOTH",
"907 491 OFFCURVE",
"952 599 OFFCURVE",
"952 746 CURVE SMOOTH",
"952 878 OFFCURVE",
"916 978 OFFCURVE",
"842 1046 CURVE SMOOTH",
"759 1123 OFFCURVE",
"629 1160 OFFCURVE",
"451 1160 CURVE SMOOTH",
"244 1160 LINE",
"244 1083 LINE",
"406 1083 LINE SMOOTH",
"726 1083 OFFCURVE",
"863 981 OFFCURVE",
"863 744 CURVE SMOOTH",
"863 503 OFFCURVE",
"726 400 OFFCURVE",
"406 400 CURVE SMOOTH",
"245 400 LINE",
"245 323 LINE"
);
},
{
closed = 1;
nodes = (
"251 0 LINE",
"251 1430 LINE",
"168 1430 LINE",
"168 0 LINE"
);
}
);
width = 1088;
}
);
leftKerningGroup = H;
note = Thorn;
rightKerningGroup = Thorn;
unicode = 00DE;
},
{
glyphname = Q;
lastChange = "2019-12-17 02:02:29 +0000";
layers = (
{
anchors = (
{
name = bottom;
position = "{854, 62}";
},
{
name = top;
position = "{854, 1357}";
}
);
components = (
{
name = O;
transform = "{1, 0, 0, 1, 0, 62}";
}
);
layerId = "66066CCB-AAC9-4485-8967-3F6B885ABFA4";
paths = (
{
closed = 1;
nodes = (
"1328 -392 OFFCURVE",
"1365 -368 OFFCURVE",
"1350 -176 CURVE",
"1289 -176 OFFCURVE",
"1227 -176 OFFCURVE",
"1165 -176 CURVE SMOOTH",
"1078 -176 OFFCURVE",
"1031 -156 OFFCURVE",
"1031 -121 CURVE SMOOTH",
"1031 132 LINE",
"657 132 LINE",
"657 -104 LINE SMOOTH",
"657 -222 OFFCURVE",
"739 -312 OFFCURVE",
"865 -355 CURVE SMOOTH",
"952 -384 OFFCURVE",
"1014 -392 OFFCURVE",
"1142 -392 CURVE SMOOTH"
);
}
);
width = 1694;
},
{
anchors = (
{
name = bottom;
position = "{736, 25}";
},
{
name = top;
position = "{736, 1405}";
}
);
components = (
{
name = O;
transform = "{1, 0, 0, 1.007, 0, 22}";
}
);
layerId = "B71E0DD6-B640-4F5E-B48D-BF5E04BC2E71";
paths = (
{
closed = 1;
nodes = (
"1065 -371 OFFCURVE",
"1079 -366 OFFCURVE",
"1079 -290 CURVE",
"1063 -290 OFFCURVE",
"1046 -290 OFFCURVE",
"1030 -290 CURVE SMOOTH",
"855 -290 OFFCURVE",
"762 -236 OFFCURVE",
"762 -137 CURVE SMOOTH",
"762 51 LINE",
"692 51 LINE",
"692 -147 LINE SMOOTH",
"692 -250 OFFCURVE",
"751 -308 OFFCURVE",
"792 -330 CURVE SMOOTH",
"848 -360 OFFCURVE",
"899 -371 OFFCURVE",
"989 -371 CURVE SMOOTH"
);
}
);
width = 1610;
}
);
leftKerningGroup = O;
leftMetricsKey = O;
note = Q;
rightKerningGroup = O;
rightMetricsKey = O;
unicode = 0051;
},
{
color = 1;
glyphname = R;
lastChange = "2019-12-17 02:34:51 +0000";
layers = (
{
anchors = (
{
name = bottom;
position = "{576, 0}";
},
{
name = top;
position = "{576, 1430}";
}
);
layerId = "66066CCB-AAC9-4485-8967-3F6B885ABFA4";
paths = (
{
closed = 1;
nodes = (
"509 0 LINE",
"509 717 LINE",
"333 583 LINE",
"648 583 LINE",
"690 583 LINE SMOOTH",
"962 583 OFFCURVE",
"1233 705 OFFCURVE",
"1233 997 CURVE SMOOTH",
"1233 1278 OFFCURVE",
"981 1436 OFFCURVE",
"638 1436 CURVE SMOOTH",
"133 1436 LINE",
"133 0 LINE"
);
},
{
closed = 1;
nodes = (
"509 611 LINE",
"509 1418 LINE",
"176 1290 LINE",
"642 1290 LINE SMOOTH",
"777 1290 OFFCURVE",
"856 1185 OFFCURVE",
"856 1006 CURVE SMOOTH",
"856 858 OFFCURVE",
"802 742 OFFCURVE",
"642 742 CURVE SMOOTH",
"419 742 LINE"
);
},
{
closed = 1;
nodes = (
"566 583 OFFCURVE",
"649 597 OFFCURVE",
"746 528 CURVE SMOOTH",
"774 508 OFFCURVE",
"829 471 OFFCURVE",
"895 191 CURVE SMOOTH",
"907 137 OFFCURVE",
"923 64 OFFCURVE",
"937 0 CURVE",
"1292 0 LINE",
"1268 92 OFFCURVE",
"1241 213 OFFCURVE",
"1230 266 CURVE SMOOTH",
"1183 488 OFFCURVE",
"1111 557 OFFCURVE",
"1098 570 CURVE SMOOTH",
"1017 649 OFFCURVE",
"981 640 OFFCURVE",
"918 647 CURVE",
"480 583 LINE"
);
}
);
width = 1352;
},
{
anchors = (
{
name = bottom;
position = "{576, 0}";
},
{
name = top;
position = "{576, 1430}";
}
);
background = {
paths = (
{
closed = 1;
nodes = (
"277 0 LINE",
"277 692 LINE",
"232 687 LINE",
"456 687 LINE SMOOTH",
"583 687 OFFCURVE",
"693 680 OFFCURVE",
"729 622 CURVE SMOOTH",
"764 566 OFFCURVE",
"787 475 OFFCURVE",
"844 220 CURVE SMOOTH",
"871 99 OFFCURVE",
"885 34 OFFCURVE",
"893 0 CURVE",
"963 0 LINE",
"937 92 OFFCURVE",
"918 171 OFFCURVE",
"897 267 CURVE SMOOTH",
"857 448 OFFCURVE",
"826 599 OFFCURVE",
"774 659 CURVE SMOOTH",
"748 689 OFFCURVE",
"708 705 OFFCURVE",
"671 710 CURVE",
"671 711 LINE",
"844 758 OFFCURVE",
"918 857 OFFCURVE",
"918 1068 CURVE SMOOTH",
"918 1326 OFFCURVE",
"762 1430 OFFCURVE",
"472 1430 CURVE SMOOTH",
"217 1430 LINE",
"217 0 LINE"
);
},
{
closed = 1;
nodes = (
"277 1419 LINE",
"232 1404 LINE",
"434 1404 LINE SMOOTH",
"744 1404 OFFCURVE",
"853 1302 OFFCURVE",
"853 1068 CURVE SMOOTH",
"853 791 OFFCURVE",
"742 713 OFFCURVE",
"434 713 CURVE SMOOTH",
"232 713 LINE",
"277 705 LINE"
);
}
);
};
layerId = "B71E0DD6-B640-4F5E-B48D-BF5E04BC2E71";
paths = (
{
closed = 1;
nodes = (
"251 0 LINE",
"251 673 LINE",
"211 633 LINE",
"476 633 LINE",
"583 633 LINE",
"827 683 OFFCURVE",
"962 793 OFFCURVE",
"962 1036 CURVE SMOOTH",
"962 1316 OFFCURVE",
"768 1430 OFFCURVE",
"461 1430 CURVE SMOOTH",
"168 1430 LINE",
"168 0 LINE"
);
},
{
closed = 1;
nodes = (
"251 670 LINE",
"251 1393 LINE",
"211 1353 LINE",
"416 1353 LINE SMOOTH",
"736 1353 OFFCURVE",
"873 1271 OFFCURVE",
"873 1034 CURVE SMOOTH",
"873 793 OFFCURVE",
"736 710 OFFCURVE",
"416 710 CURVE SMOOTH",
"211 710 LINE"
);
},
{
closed = 1;
nodes = (
"546 633 OFFCURVE",
"670 618 OFFCURVE",
"726 578 CURVE SMOOTH",
"795 529 OFFCURVE",
"811 511 OFFCURVE",
"875 221 CURVE SMOOTH",
"891 147 OFFCURVE",
"907 74 OFFCURVE",
"923 0 CURVE",
"1020 0 LINE",
"993 97 OFFCURVE",
"966 221 OFFCURVE",
"950 296 CURVE SMOOTH",
"905 503 OFFCURVE",
"867 572 OFFCURVE",
"818 620 CURVE SMOOTH",
"790 648 OFFCURVE",
"752 667 OFFCURVE",
"713 681 CURVE",
"460 633 LINE"
);
}
);
width = 1151;
}
);
leftKerningGroup = H;
note = R;
rightKerningGroup = R;
unicode = 0052;
},
{
color = 1;
glyphname = S;
lastChange = "2019-12-17 01:54:24 +0000";
layers = (
{
anchors = (
{
name = bottom;
position = "{640, 0}";
},
{
name = top;
position = "{640, 1430}";
}
);
layerId = "66066CCB-AAC9-4485-8967-3F6B885ABFA4";
paths = (
{
closed = 1;
nodes = (
"1060 -41 OFFCURVE",
"1226 94 OFFCURVE",
"1226 444 CURVE SMOOTH",
"1226 684 OFFCURVE",
"1046 848 OFFCURVE",
"690 945 CURVE SMOOTH",
"487 999 OFFCURVE",
"429 1042 OFFCURVE",
"429 1103 CURVE SMOOTH",
"429 1195 OFFCURVE",
"515 1282 OFFCURVE",
"607 1282 CURVE SMOOTH",
"734 1282 OFFCURVE",
"864 1122 OFFCURVE",
"816 993 CURVE",
"1165 993 LINE",
"1153 1294 OFFCURVE",
"948 1468 OFFCURVE",
"624 1468 CURVE SMOOTH",
"246 1468 OFFCURVE",
"92 1339 OFFCURVE",
"92 1016 CURVE SMOOTH",
"92 820 OFFCURVE",
"224 709 OFFCURVE",
"575 594 CURVE SMOOTH",
"785 526 OFFCURVE",
"903 445 OFFCURVE",
"903 387 CURVE SMOOTH",
"903 256 OFFCURVE",
"794 152 OFFCURVE",
"656 152 CURVE SMOOTH",
"494 152 OFFCURVE",
"392 295 OFFCURVE",
"389 529 CURVE",
"49 529 LINE",
"51 154 OFFCURVE",
"253 -41 OFFCURVE",
"642 -41 CURVE SMOOTH"
);
}
);
width = 1279;
},
{
anchors = (
{
name = bottom;
position = "{613, 0}";
},
{
name = top;
position = "{613, 1430}";
}
);
layerId = "B71E0DD6-B640-4F5E-B48D-BF5E04BC2E71";
paths = (
{
closed = 1;
nodes = (
"942 -25 OFFCURVE",
"1089 120 OFFCURVE",
"1089 394 CURVE SMOOTH",
"1089 632 OFFCURVE",
"867 735 OFFCURVE",
"645 804 CURVE SMOOTH",
"320 905 OFFCURVE",
"288 968 OFFCURVE",
"288 1119 CURVE SMOOTH",
"288 1297 OFFCURVE",
"442 1384 OFFCURVE",
"594 1384 CURVE SMOOTH",
"806 1384 OFFCURVE",
"964 1240 OFFCURVE",
"965 1107 CURVE",
"1060 1107 LINE",
"1050 1321 OFFCURVE",
"832 1463 OFFCURVE",
"603 1463 CURVE SMOOTH",
"353 1463 OFFCURVE",
"190 1306 OFFCURVE",
"190 1088 CURVE SMOOTH",
"190 883 OFFCURVE",
"326 801 OFFCURVE",
"589 720 CURVE SMOOTH",
"795 657 OFFCURVE",
"989 602 OFFCURVE",
"989 368 CURVE SMOOTH",
"989 183 OFFCURVE",
"871 54 OFFCURVE",
"620 54 CURVE SMOOTH",
"385 54 OFFCURVE",
"254 179 OFFCURVE",
"230 414 CURVE",
"132 414 LINE",
"154 125 OFFCURVE",
"338 -25 OFFCURVE",
"614 -25 CURVE SMOOTH"
);
}
);
width = 1225;
}
);
leftKerningGroup = S;
note = S;
rightKerningGroup = S;
unicode = 0053;
},
{
color = 1;
glyphname = Germandbls;
lastChange = "2019-12-17 01:54:24 +0000";
layers = (
{
anchors = (
{
name = bottom;
position = "{851, 0}";
},
{
name = top;
position = "{851, 1430}";
}
);
layerId = "66066CCB-AAC9-4485-8967-3F6B885ABFA4";
paths = (
{
closed = 1;
nodes = (
"1509 -40 OFFCURVE",
"1678 101 OFFCURVE",
"1678 458 CURVE SMOOTH",
"1678 694 OFFCURVE",
"1482 856 OFFCURVE",
"1107 960 CURVE SMOOTH",
"1031 980 OFFCURVE",
"965 995 OFFCURVE",
"844 1041 CURVE",
"1132 612 LINE",
"1424 1460 LINE",
"1334 1475 OFFCURVE",
"1138 1513 OFFCURVE",
"845 1513 CURVE SMOOTH",
"401 1513 OFFCURVE",
"119 1361 OFFCURVE",
"119 1106 CURVE SMOOTH",
"119 0 LINE",
"506 0 LINE",
"506 1211 LINE SMOOTH",
"506 1248 OFFCURVE",
"701 1320 OFFCURVE",
"845 1320 CURVE SMOOTH",
"966 1320 OFFCURVE",
"1072 1316 OFFCURVE",
"1290 1306 CURVE",
"1294 1437 LINE",
"1028 1493 LINE",
"742 677 LINE",
"849 648 OFFCURVE",
"948 619 OFFCURVE",
"1015 601 CURVE SMOOTH",
"1195 554 OFFCURVE",
"1355 452 OFFCURVE",
"1355 399 CURVE SMOOTH",
"1355 263 OFFCURVE",
"1246 153 OFFCURVE",
"1109 153 CURVE SMOOTH",
"966 153 OFFCURVE",
"867 240 OFFCURVE",
"759 460 CURVE",
"656 128 LINE",
"737 14 OFFCURVE",
"881 -40 OFFCURVE",
"1093 -40 CURVE SMOOTH"
);
}
);
width = 1702;
},
{
anchors = (
{
name = bottom;
position = "{725, 0}";
},
{
name = top;
position = "{725, 1430}";
}
);
background = {
components = (
{
name = germandbls;
transform = "{1, 0, 0, 1, 39, 0}";
}
);
};
layerId = "B71E0DD6-B640-4F5E-B48D-BF5E04BC2E71";
paths = (
{
closed = 1;
nodes = (
"1134 -25 OFFCURVE",
"1314 118 OFFCURVE",
"1314 382 CURVE SMOOTH",
"1314 654 OFFCURVE",
"1066 733 OFFCURVE",
"861 797 CURVE SMOOTH",
"839 804 OFFCURVE",
"773 826 OFFCURVE",
"736 838 CURVE",
"770 771 LINE",
"998 1461 LINE",
"909 1493 OFFCURVE",
"818 1511 OFFCURVE",
"681 1511 CURVE SMOOTH",
"326 1511 OFFCURVE",
"165 1425 OFFCURVE",
"165 1221 CURVE SMOOTH",
"165 0 LINE",
"248 0 LINE",
"248 1249 LINE SMOOTH",
"248 1365 OFFCURVE",
"403 1434 OFFCURVE",
"681 1434 CURVE SMOOTH",
"770 1434 OFFCURVE",
"869 1422 OFFCURVE",
"922 1411 CURVE",
"909 1465 LINE",
"674 755 LINE",
"712 739 OFFCURVE",
"806 714 OFFCURVE",
"829 707 CURVE SMOOTH",
"1089 629 OFFCURVE",
"1212 564 OFFCURVE",
"1212 368 CURVE SMOOTH",
"1212 165 OFFCURVE",
"1080 54 OFFCURVE",
"843 54 CURVE SMOOTH",
"692 54 OFFCURVE",
"575 107 OFFCURVE",
"506 193 CURVE",
"476 100 LINE",
"573 15 OFFCURVE",
"677 -25 OFFCURVE",
"837 -25 CURVE SMOOTH"
);
}
);
width = 1449;
}
);
unicode = 1E9E;
},
{
color = 1;
glyphname = Schwa;
lastChange = "2019-12-17 01:54:24 +0000";
layers = (
{
anchors = (
{
name = bottom;
position = "{803, 0}";
},
{
name = top;
position = "{803, 1430}";
}
);
background = {
paths = (
{
closed = 1;
nodes = (
"1114 -10 OFFCURVE",
"1382 283 OFFCURVE",
"1382 714 CURVE SMOOTH",
"1382 1146 OFFCURVE",
"1112 1443 OFFCURVE",
"716 1443 CURVE SMOOTH",
"472 1443 OFFCURVE",
"283 1339 OFFCURVE",
"153 1130 CURVE",
"267 1130 LINE",
"361 1273 OFFCURVE",
"528 1361 OFFCURVE",
"716 1364 CURVE",
"1054 1358 OFFCURVE",
"1284 1096 OFFCURVE",
"1284 717 CURVE SMOOTH",
"1284 338 OFFCURVE",
"1057 79 OFFCURVE",
"716 69 CURVE",
"368 79 OFFCURVE",
"138 350 OFFCURVE",
"148 742 CURVE",
"50 742 LINE",
"40 295 OFFCURVE",
"310 -10 OFFCURVE",
"716 -10 CURVE SMOOTH"
);
}
);
};
layerId = "B71E0DD6-B640-4F5E-B48D-BF5E04BC2E71";
paths = (
{
closed = 1;
nodes = (
"1198 -10 OFFCURVE",
"1466 283 OFFCURVE",
"1466 714 CURVE SMOOTH",
"1466 1146 OFFCURVE",
"1196 1443 OFFCURVE",
"800 1443 CURVE SMOOTH",
"552 1443 OFFCURVE",
"352 1325 OFFCURVE",
"239 1131 CURVE",
"350 1131 LINE",
"450 1274 OFFCURVE",
"607 1361 OFFCURVE",
"800 1364 CURVE",
"1138 1358 OFFCURVE",
"1368 1096 OFFCURVE",
"1368 717 CURVE SMOOTH",
"1368 338 OFFCURVE",
"1141 79 OFFCURVE",
"800 69 CURVE",
"437 80 OFFCURVE",
"232 353 OFFCURVE",
"232 742 CURVE",
"134 742 LINE",
"134 300 OFFCURVE",
"378 -10 OFFCURVE",
"800 -10 CURVE SMOOTH"
);
},
{
closed = 1;
nodes = (
"1430 665 LINE",
"1430 742 LINE",
"199 742 LINE",
"199 665 LINE"
);
}
);
width = 1605;
},
{
anchors = (
{
name = bottom;
position = "{841, 0}";
},
{
name = top;
position = "{841, 1430}";
}
);
layerId = "66066CCB-AAC9-4485-8967-3F6B885ABFA4";
paths = (
{
closed = 1;
nodes = (
"1282 -45 OFFCURVE",
"1626 281 OFFCURVE",
"1626 707 CURVE SMOOTH",
"1626 1134 OFFCURVE",
"1278 1467 OFFCURVE",
"833 1467 CURVE SMOOTH",
"529 1467 OFFCURVE",
"283 1327 OFFCURVE",
"109 1051 CURVE",
"501 1051 LINE",
"558 1191 OFFCURVE",
"688 1280 OFFCURVE",
"833 1280 CURVE SMOOTH",
"1073 1280 OFFCURVE",
"1233 1050 OFFCURVE",
"1233 706 CURVE SMOOTH",
"1233 364 OFFCURVE",
"1075 142 OFFCURVE",
"833 142 CURVE SMOOTH",
"575 142 OFFCURVE",
"409 393 OFFCURVE",
"431 768 CURVE",
"40 768 LINE",
"2 312 OFFCURVE",
"358 -45 OFFCURVE",
"833 -45 CURVE SMOOTH"
);
},
{
closed = 1;
nodes = (
"1311 575 LINE",
"1311 768 LINE",
"371 768 LINE",
"371 575 LINE"
);
}
);
width = 1682;
}
);
unicode = 018F;
},
{
color = 1;
glyphname = T;
lastChange = "2019-12-17 01:54:24 +0000";
layers = (
{
anchors = (
{
name = bottom;
position = "{654, 0}";
},
{
name = center;
position = "{654, 715}";
},
{
name = top;
position = "{654, 1430}";
}
);
layerId = "66066CCB-AAC9-4485-8967-3F6B885ABFA4";
paths = (
{
closed = 1;
nodes = (
"849 0 LINE",
"849 1401 LINE",
"516 1376 LINE",
"517 1244 LINE",
"1285 1244 LINE",
"1285 1437 LINE",
"22 1437 LINE",
"22 1244 LINE",
"794 1244 LINE",
"795 1376 LINE",
"462 1401 LINE",
"462 0 LINE"
);
}
);
width = 1307;
},
{
anchors = (
{
name = bottom;
position = "{717, 0}";
},
{
name = center;
position = "{717, 715}";
},
{
name = top;
position = "{717, 1430}";
}
);
layerId = "B71E0DD6-B640-4F5E-B48D-BF5E04BC2E71";
paths = (
{
closed = 1;
nodes = (
"759 0 LINE",
"759 1417 LINE",
"620 1353 LINE",
"1302 1353 LINE",
"1302 1430 LINE",
"131 1430 LINE",
"131 1353 LINE",
"813 1353 LINE",
"674 1417 LINE",
"674 0 LINE"
);
}
);
width = 1433;
}
);
leftKerningGroup = T;
note = T;
rightKerningGroup = T;
unicode = 0054;
},
{
color = 1;
glyphname = U;
lastChange = "2019-12-17 01:54:24 +0000";
layers = (
{
anchors = (
{
name = bottom;
position = "{798, 0}";
},
{
name = ogonek;
position = "{1436, 10}";
},
{
name = top;
position = "{798, 1430}";
},
{
name = topright;
position = "{1576, 1430}";
}
);
layerId = "66066CCB-AAC9-4485-8967-3F6B885ABFA4";
paths = (
{
closed = 1;
nodes = (
"1174 -42 OFFCURVE",
"1488 222 OFFCURVE",
"1488 543 CURVE SMOOTH",
"1488 1437 LINE",
"1278 1437 LINE",
"1278 526 LINE SMOOTH",
"1278 321 OFFCURVE",
"1061 152 OFFCURVE",
"799 152 CURVE SMOOTH",
"576 152 OFFCURVE",
"494 263 OFFCURVE",
"494 560 CURVE SMOOTH",
"494 1437 LINE",
"107 1437 LINE",
"107 569 LINE SMOOTH",
"107 229 OFFCURVE",
"414 -42 OFFCURVE",
"797 -42 CURVE SMOOTH"
);
}
);
width = 1596;
},
{
anchors = (
{
name = bottom;
position = "{737, 0}";
},
{
name = ogonek;
position = "{1326, 10}";
},
{
name = top;
position = "{737, 1430}";
},
{
name = topright;
position = "{1453, 1430}";
}
);
layerId = "B71E0DD6-B640-4F5E-B48D-BF5E04BC2E71";
paths = (
{
closed = 1;
nodes = (
"1024 -24 OFFCURVE",
"1317 219 OFFCURVE",
"1317 570 CURVE SMOOTH",
"1317 1430 LINE",
"1237 1430 LINE",
"1237 563 LINE SMOOTH",
"1237 260 OFFCURVE",
"984 53 OFFCURVE",
"736 53 CURVE SMOOTH",
"490 53 OFFCURVE",
"239 260 OFFCURVE",
"239 563 CURVE SMOOTH",
"239 1430 LINE",
"156 1430 LINE",
"156 570 LINE SMOOTH",
"156 219 OFFCURVE",
"448 -24 OFFCURVE",
"736 -24 CURVE SMOOTH"
);
}
);
width = 1473;
}
);
leftKerningGroup = U;
note = U;
rightKerningGroup = U;
unicode = 0055;
},
{
color = 1;
glyphname = V;
lastChange = "2019-12-17 01:54:24 +0000";
layers = (
{
anchors = (
{
name = bottom;
position = "{669, 0}";
},
{
name = top;
position = "{669, 1430}";
}
);
layerId = "66066CCB-AAC9-4485-8967-3F6B885ABFA4";
paths = (
{
closed = 1;
nodes = (
"1348 1437 LINE",
"1121 1437 LINE",
"534 205 LINE",
"890 491 LINE",
"425 1437 LINE",
"-11 1437 LINE",
"669 -26 LINE"
);
}
);
width = 1337;
},
{
anchors = (
{
name = bottom;
position = "{764, 0}";
},
{
name = top;
position = "{764, 1430}";
}
);
background = {
paths = (
{
closed = 1;
nodes = (
"1268 1429 LINE",
"1244 1429 LINE",
"624 -26 LINE",
"701 114 LINE",
"133 1430 LINE",
"20 1429 LINE",
"650 -27 LINE"
);
}
);
};
layerId = "B71E0DD6-B640-4F5E-B48D-BF5E04BC2E71";
paths = (
{
closed = 1;
nodes = (
"1398 1430 LINE",
"1309 1430 LINE",
"724 80 LINE",
"801 73 LINE",
"215 1430 LINE",
"130 1430 LINE",
"763 -36 LINE"
);
}
);
width = 1528;
}
);
leftKerningGroup = V;
note = V;
rightKerningGroup = V;
unicode = 0056;
},
{
color = 1;
glyphname = W;
lastChange = "2019-12-17 01:54:24 +0000";
layers = (
{
anchors = (
{
name = bottom;
position = "{957, 0}";
},
{
name = top;
position = "{957, 1430}";
}
);
layerId = "66066CCB-AAC9-4485-8967-3F6B885ABFA4";
paths = (
{
closed = 1;
nodes = (
"1918 1438 LINE",
"1697 1438 LINE",
"1248 386 LINE",
"1535 504 LINE",
"1076 1438 LINE",
"632 1438 LINE",
"1314 -14 LINE"
);
},
{
closed = 1;
nodes = (
"1037 889 LINE",
"923 1165 LINE",
"599 389 LINE",
"884 503 LINE",
"423 1438 LINE",
"-12 1438 LINE",
"663 -14 LINE"
);
},
{
closed = 1;
nodes = (
"1305 1438 LINE",
"1083 1438 LINE",
"935 1108 LINE",
"1050 830 LINE"
);
}
);
width = 1913;
},
{
anchors = (
{
name = bottom;
position = "{1059, 0}";
},
{
name = top;
position = "{1059, 1430}";
}
);
background = {
paths = (
{
closed = 1;
nodes = (
"1910 1429 LINE",
"1888 1429 LINE",
"1275 -32 LINE",
"1353 115 LINE",
"785 1430 LINE",
"672 1429 LINE",
"1302 -27 LINE"
);
},
{
closed = 1;
nodes = (
"994 796 LINE",
"985 825 LINE",
"627 -30 LINE",
"704 115 LINE",
"136 1430 LINE",
"23 1429 LINE",
"653 -27 LINE"
);
},
{
closed = 1;
nodes = (
"1279 1429 LINE",
"1256 1429 LINE",
"1000 818 LINE",
"1009 789 LINE"
);
}
);
};
layerId = "B71E0DD6-B640-4F5E-B48D-BF5E04BC2E71";
paths = (
{
closed = 1;
nodes = (
"1988 1430 LINE",
"1907 1430 LINE",
"1367 87 LINE",
"1438 78 LINE",
"894 1430 LINE",
"808 1430 LINE",
"1398 -36 LINE"
);
},
{
closed = 1;
nodes = (
"1082 861 LINE",
"1040 959 LINE",
"687 81 LINE",
"760 78 LINE",
"216 1430 LINE",
"130 1430 LINE",
"720 -36 LINE"
);
},
{
closed = 1;
nodes = (
"1329 1430 LINE",
"1248 1430 LINE",
"1058 959 LINE",
"1099 861 LINE"
);
}
);
width = 2118;
}
);
leftKerningGroup = W;
note = W;
rightKerningGroup = W;
unicode = 0057;
},
{
color = 1;
glyphname = X;
lastChange = "2019-12-17 01:54:24 +0000";
layers = (
{
anchors = (
{
name = bottom;
position = "{701, 0}";
},
{
name = top;
position = "{701, 1430}";
}
);
layerId = "66066CCB-AAC9-4485-8967-3F6B885ABFA4";
paths = (
{
closed = 1;
nodes = (
"1448 0 LINE",
"438 1437 LINE",
"-37 1437 LINE",
"972 0 LINE"
);
},
{
closed = 1;
nodes = (
"243 0 LINE",
"785 750 LINE",
"633 916 LINE",
"-17 0 LINE"
);
},
{
closed = 1;
nodes = (
"1302 1447 LINE",
"1043 1447 LINE",
"564 779 LINE",
"718 613 LINE"
);
}
);
width = 1402;
},
{
anchors = (
{
name = bottom;
position = "{699, 0}";
},
{
name = top;
position = "{699, 1430}";
}
);
layerId = "B71E0DD6-B640-4F5E-B48D-BF5E04BC2E71";
paths = (
{
closed = 1;
nodes = (
"1267 0 LINE",
"275 1430 LINE",
"167 1430 LINE",
"1160 0 LINE"
);
},
{
closed = 1;
nodes = (
"211 0 LINE",
"726 728 LINE",
"669 765 LINE",
"130 0 LINE"
);
},
{
closed = 1;
nodes = (
"1231 1432 LINE",
"1150 1432 LINE",
"674 752 LINE",
"731 715 LINE"
);
}
);
width = 1397;
}
);
leftKerningGroup = X;
note = X;
rightKerningGroup = X;
unicode = 0058;
},
{
color = 1;
glyphname = Y;
lastChange = "2019-12-17 01:54:24 +0000";
layers = (
{
anchors = (
{
name = bottom;
position = "{603, 0}";
},
{
name = top;
position = "{603, 1430}";
},
{
name = topleft;
position = "{20, 1430}";
}
);
layerId = "66066CCB-AAC9-4485-8967-3F6B885ABFA4";
paths = (
{
closed = 1;
nodes = (
"791 0 LINE",
"791 594 LINE",
"1227 1437 LINE",
"988 1437 LINE",
"393 234 LINE",
"825 655 LINE",
"412 1437 LINE",
"-33 1437 LINE",
"405 594 LINE",
"405 0 LINE"
);
}
);
width = 1206;
},
{
anchors = (
{
name = bottom;
position = "{663, 0}";
},
{
name = top;
position = "{663, 1430}";
},
{
name = topleft;
position = "{20, 1430}";
}
);
guideLines = (
{
angle = 245.6375;
position = "{788, 1192}";
},
{
angle = -65.6828;
position = "{317, 1004}";
}
);
layerId = "B71E0DD6-B640-4F5E-B48D-BF5E04BC2E71";
paths = (
{
closed = 1;
nodes = (
"709 0 LINE",
"709 620 LINE",
"1196 1430 LINE",
"1099 1430 LINE",
"644 665 LINE",
"710 649 LINE",
"239 1430 LINE",
"130 1430 LINE",
"626 610 LINE",
"626 0 LINE"
);
}
);
width = 1326;
}
);
leftKerningGroup = Y;
note = Y;
rightKerningGroup = Y;
unicode = 0059;
},
{
color = 1;
glyphname = Z;
lastChange = "2019-12-17 01:54:24 +0000";
layers = (
{
anchors = (
{
name = bottom;
position = "{676, 0}";
},
{
name = center;
position = "{676, 715}";
},
{
name = top;
position = "{676, 1430}";
}
);
layerId = "66066CCB-AAC9-4485-8967-3F6B885ABFA4";
paths = (
{
closed = 1;
nodes = (
"1315 0 LINE",
"1315 193 LINE",
"114 193 LINE",
"111 62 LINE",
"378 11 LINE",
"1358 1437 LINE",
"144 1437 LINE",
"144 1244 LINE",
"1212 1244 LINE",
"1214 1375 LINE",
"940 1417 LINE",
"-45 0 LINE"
);
}
);
width = 1351;
},
{
anchors = (
{
name = bottom;
position = "{685, 0}";
},
{
name = center;
position = "{685, 715}";
},
{
name = top;
position = "{685, 1430}";
}
);
layerId = "B71E0DD6-B640-4F5E-B48D-BF5E04BC2E71";
paths = (
{
closed = 1;
nodes = (
"1204 0 LINE",
"1201 77 LINE",
"248 77 LINE",
"241 23 LINE",
"1239 1430 LINE",
"187 1430 LINE",
"187 1353 LINE",
"1149 1353 LINE",
"1130 1408 LINE",
"130 0 LINE"
);
}
);
width = 1369;
}
);
leftKerningGroup = Z;
note = Z;
rightKerningGroup = Z;
unicode = 005A;
},
{
color = 1;
glyphname = W.rvrn;
lastChange = "2019-12-17 01:54:24 +0000";
layers = (
{
anchors = (
{
name = bottom;
position = "{957, 0}";
},
{
name = top;
position = "{957, 1430}";
}
);
layerId = "66066CCB-AAC9-4485-8967-3F6B885ABFA4";
paths = (
{
closed = 1;
nodes = (
"1918 1438 LINE",
"1697 1438 LINE",
"1248 386 LINE",
"1535 504 LINE",
"1076 1438 LINE",
"632 1438 LINE",
"1314 -14 LINE"
);
},
{
closed = 1;
nodes = (
"1178 1298 LINE",
"1023 1464 LINE",
"603 391 LINE",
"884 503 LINE",
"423 1438 LINE",
"-12 1438 LINE",
"664 -14 LINE"
);
}
);
width = 1913;
},
{
anchors = (
{
name = bottom;
position = "{1059, 0}";
},
{
name = top;
position = "{1059, 1430}";
}
);
layerId = "B71E0DD6-B640-4F5E-B48D-BF5E04BC2E71";
paths = (
{
closed = 1;
nodes = (
"1988 1430 LINE",
"1907 1430 LINE",
"1367 87 LINE",
"1438 78 LINE",
"894 1430 LINE",
"808 1430 LINE",
"1398 -36 LINE"
);
},
{
closed = 1;
nodes = (
"1082 861 LINE",
"1040 959 LINE",
"687 81 LINE",
"760 78 LINE",
"216 1430 LINE",
"130 1430 LINE",
"720 -36 LINE"
);
}
);
width = 2118;
}
);
leftKerningGroup = W;
note = W;
rightKerningGroup = W;
},
{
color = 1;
export = 0;
glyphname = H.t;
lastChange = "2019-12-17 01:54:24 +0000";
layers = (
{
anchors = (
{
name = bottom;
position = "{815, 0}";
},
{
name = center;
position = "{815, 715}";
},
{
name = top;
position = "{815, 1430}";
},
{
name = topleft;
position = "{20, 1430}";
}
);
layerId = "66066CCB-AAC9-4485-8967-3F6B885ABFA4";
paths = (
{
closed = 1;
nodes = (
"511 0 LINE",
"511 848 LINE",
"176 770 LINE",
"179 640 LINE",
"1451 640 LINE",
"1454 770 LINE",
"1118 848 LINE",
"1118 0 LINE",
"1494 0 LINE",
"1494 1437 LINE",
"1118 1437 LINE",
"1118 626 LINE",
"1454 703 LINE",
"1451 833 LINE",
"179 833 LINE",
"176 703 LINE",
"511 626 LINE",
"511 1437 LINE",
"135 1437 LINE",
"135 0 LINE"
);
}
);
width = 1629;
},
{
anchors = (
{
name = bottom;
position = "{779, 0}";
},
{
name = center;
position = "{779, 715}";
},
{
name = top;
position = "{779, 1430}";
},
{
name = topleft;
position = "{20, 1430}";
}
);
background = {
anchors = (
{
name = bottom;
position = "{738, 25}";
},
{
name = center;
position = "{738, 715}";
},
{
name = top;
position = "{738, 1405}";
},
{
name = topleft;
position = "{31, 1405}";
}
);
paths = (
{
closed = 1;
nodes = (
"233 0 LINE",
"233 750 LINE",
"107 693 LINE",
"1362 693 LINE",
"1243 750 LINE",
"1243 0 LINE",
"1331 0 LINE",
"1331 1430 LINE",
"1243 1430 LINE",
"1243 713 LINE",
"1362 770 LINE",
"107 770 LINE",
"233 713 LINE",
"233 1430 LINE",
"144 1430 LINE",
"144 0 LINE"
);
}
);
};
layerId = "B71E0DD6-B640-4F5E-B48D-BF5E04BC2E71";
paths = (
{
closed = 1;
nodes = (
"233 0 LINE",
"233 750 LINE",
"107 693 LINE",
"1362 693 LINE",
"1243 750 LINE",
"1243 0 LINE",
"1331 0 LINE",
"1331 1430 LINE",
"1243 1430 LINE",
"1243 713 LINE",
"1362 770 LINE",
"107 770 LINE",
"233 713 LINE",
"233 1430 LINE",
"144 1430 LINE",
"144 0 LINE"
);
}
);
width = 1557;
}
);
leftKerningGroup = H;
note = H;
rightKerningGroup = H;
},
{
color = 1;
export = 0;
glyphname = O.t;
lastChange = "2019-12-17 01:54:24 +0000";
layers = (
{
anchors = (
{
name = bottom;
position = "{852, 0}";
},
{
name = center;
position = "{852, 715}";
},
{
name = ogonek;
position = "{1534, 10}";
},
{
name = top;
position = "{852, 1430}";
},
{
name = topleft;
position = "{20, 1430}";
},
{
name = topright;
position = "{1684, 1430}";
}
);
layerId = "66066CCB-AAC9-4485-8967-3F6B885ABFA4";
paths = (
{
closed = 1;
nodes = (
"1302 -45 OFFCURVE",
"1647 281 OFFCURVE",
"1647 707 CURVE SMOOTH",
"1647 1133 OFFCURVE",
"1298 1467 OFFCURVE",
"853 1467 CURVE SMOOTH",
"408 1467 OFFCURVE",
"57 1132 OFFCURVE",
"57 707 CURVE SMOOTH",
"57 281 OFFCURVE",
"403 -45 OFFCURVE",
"853 -45 CURVE SMOOTH"
);
},
{
closed = 1;
nodes = (
"610 142 OFFCURVE",
"451 365 OFFCURVE",
"451 706 CURVE SMOOTH",
"451 1050 OFFCURVE",
"612 1280 OFFCURVE",
"853 1280 CURVE SMOOTH",
"1093 1280 OFFCURVE",
"1253 1050 OFFCURVE",
"1253 706 CURVE SMOOTH",
"1253 364 OFFCURVE",
"1096 142 OFFCURVE",
"853 142 CURVE SMOOTH"
);
}
);
width = 1704;
},
{
anchors = (
{
name = bottom;
position = "{787, 0}";
},
{
name = center;
position = "{787, 715}";
},
{
name = ogonek;
position = "{1416, 10}";
},
{
name = top;
position = "{787, 1430}";
},
{
name = topleft;
position = "{20, 1430}";
},
{
name = topright;
position = "{1553, 1430}";
}
);
background = {
anchors = (
{
name = bottom;
position = "{708, 0}";
},
{
name = center;
position = "{708, 715}";
},
{
name = ogonek;
position = "{1300, 10}";
},
{
name = top;
position = "{708, 1430}";
},
{
name = topleft;
position = "{-12, 1430}";
},
{
name = topright;
position = "{1428, 1430}";
}
);
paths = (
{
closed = 1;
nodes = (
"1101 -26 OFFCURVE",
"1358 269 OFFCURVE",
"1358 715 CURVE SMOOTH",
"1358 1162 OFFCURVE",
"1099 1460 OFFCURVE",
"708 1460 CURVE SMOOTH",
"317 1460 OFFCURVE",
"58 1161 OFFCURVE",
"58 715 CURVE SMOOTH",
"58 269 OFFCURVE",
"315 -26 OFFCURVE",
"708 -26 CURVE SMOOTH"
);
},
{
closed = 1;
nodes = (
"371 43 OFFCURVE",
"143 320 OFFCURVE",
"143 718 CURVE SMOOTH",
"143 1116 OFFCURVE",
"373 1395 OFFCURVE",
"708 1403 CURVE",
"1043 1395 OFFCURVE",
"1273 1116 OFFCURVE",
"1273 718 CURVE SMOOTH",
"1273 320 OFFCURVE",
"1045 43 OFFCURVE",
"708 31 CURVE"
);
}
);
};
layerId = "B71E0DD6-B640-4F5E-B48D-BF5E04BC2E71";
paths = (
{
closed = 1;
nodes = (
"1209 -10 OFFCURVE",
"1493 283 OFFCURVE",
"1493 714 CURVE SMOOTH",
"1493 1145 OFFCURVE",
"1206 1444 OFFCURVE",
"788 1444 CURVE SMOOTH",
"369 1444 OFFCURVE",
"81 1145 OFFCURVE",
"81 714 CURVE SMOOTH",
"81 283 OFFCURVE",
"365 -10 OFFCURVE",
"788 -10 CURVE SMOOTH"
);
},
{
closed = 1;
nodes = (
"428 77 OFFCURVE",
"186 338 OFFCURVE",
"186 717 CURVE SMOOTH",
"186 1096 OFFCURVE",
"431 1360 OFFCURVE",
"788 1365 CURVE",
"1143 1360 OFFCURVE",
"1388 1096 OFFCURVE",
"1388 717 CURVE SMOOTH",
"1388 338 OFFCURVE",
"1146 77 OFFCURVE",
"788 69 CURVE"
);
}
);
width = 1573;
}
);
leftKerningGroup = O;
note = O;
rightKerningGroup = O;
},
{
color = 0;
glyphname = a;
lastChange = "2019-12-17 01:54:24 +0000";
layers = (
{
anchors = (
{
name = bottom;
position = "{659, 0}";
},
{
name = ogonek;
position = "{1186, 10}";
},
{
name = top;
position = "{659, 1006}";
}
);
layerId = "66066CCB-AAC9-4485-8967-3F6B885ABFA4";
paths = (
{
closed = 1;
nodes = (
"800 -33 OFFCURVE",
"939 92 OFFCURVE",
"992 360 CURVE",
"877 434 LINE",
"877 0 LINE",
"1239 0 LINE",
"1239 1019 LINE",
"873 1019 LINE",
"873 567 LINE",
"985 643 LINE",
"940 910 OFFCURVE",
"791 1044 OFFCURVE",
"541 1044 CURVE SMOOTH",
"233 1044 OFFCURVE",
"34 828 OFFCURVE",
"34 499 CURVE SMOOTH",
"34 178 OFFCURVE",
"236 -33 OFFCURVE",
"547 -33 CURVE SMOOTH"
);
},
{
closed = 1;
nodes = (
"453 170 OFFCURVE",
"401 268 OFFCURVE",
"401 503 CURVE SMOOTH",
"401 740 OFFCURVE",
"452 841 OFFCURVE",
"576 841 CURVE SMOOTH",
"721 841 OFFCURVE",
"817 682 OFFCURVE",
"817 495 CURVE SMOOTH",
"817 321 OFFCURVE",
"726 170 OFFCURVE",
"581 170 CURVE SMOOTH"
);
}
);
width = 1318;
},
{
anchors = (
{
name = bottom;
position = "{568, 0}";
},
{
name = ogonek;
position = "{1022, 10}";
},
{
name = top;
position = "{568, 989}";
}
);
background = {
anchors = (
{
name = bottom;
position = "{559, 0}";
},
{
name = ogonek;
position = "{958, 10}";
},
{
name = top;
position = "{559, 989}";
}
);
paths = (
{
closed = 1;
nodes = (
"745 -24 OFFCURVE",
"902 92 OFFCURVE",
"960 311 CURVE",
"926 358 LINE",
"912 2 LINE",
"989 2 LINE",
"989 989 LINE",
"914 989 LINE",
"914 618 LINE",
"962 650 LINE",
"902 885 OFFCURVE",
"741 1015 OFFCURVE",
"537 1015 CURVE SMOOTH",
"273 1015 OFFCURVE",
"95 794 OFFCURVE",
"95 481 CURVE SMOOTH",
"95 171 OFFCURVE",
"268 -24 OFFCURVE",
"537 -24 CURVE SMOOTH"
);
},
{
closed = 1;
nodes = (
"303 45 OFFCURVE",
"174 210 OFFCURVE",
"174 492 CURVE SMOOTH",
"174 778 OFFCURVE",
"314 946 OFFCURVE",
"537 946 CURVE SMOOTH",
"768 946 OFFCURVE",
"909 761 OFFCURVE",
"909 481 CURVE SMOOTH",
"909 203 OFFCURVE",
"766 45 OFFCURVE",
"537 45 CURVE SMOOTH"
);
}
);
};
layerId = "B71E0DD6-B640-4F5E-B48D-BF5E04BC2E71";
paths = (
{
closed = 1;
nodes = (
"753 -28 OFFCURVE",
"905 93 OFFCURVE",
"962 310 CURVE",
"935 342 LINE",
"923 0 LINE",
"1015 0 LINE",
"1015 991 LINE",
"924 991 LINE",
"924 627 LINE",
"964 653 LINE",
"904 883 OFFCURVE",
"751 1016 OFFCURVE",
"545 1016 CURVE SMOOTH",
"286 1016 OFFCURVE",
"105 796 OFFCURVE",
"105 482 CURVE SMOOTH",
"105 176 OFFCURVE",
"280 -28 OFFCURVE",
"546 -28 CURVE SMOOTH"
);
},
{
closed = 1;
nodes = (
"324 53 OFFCURVE",
"191 216 OFFCURVE",
"191 492 CURVE SMOOTH",
"191 769 OFFCURVE",
"325 935 OFFCURVE",
"549 935 CURVE SMOOTH",
"775 935 OFFCURVE",
"923 756 OFFCURVE",
"923 482 CURVE SMOOTH",
"923 216 OFFCURVE",
"780 53 OFFCURVE",
"550 53 CURVE SMOOTH"
);
}
);
width = 1136;
}
);
leftKerningGroup = a;
leftMetricsKey = o;
note = a;
rightKerningGroup = n;
rightMetricsKey = n;
unicode = 0061;
},
{
color = 0;
glyphname = ae;
lastChange = "2019-12-17 01:54:24 +0000";
layers = (
{
anchors = (
{
name = bottom;
position = "{1080, 0}";
},
{
name = top;
position = "{1080, 1006}";
}
);
layerId = "66066CCB-AAC9-4485-8967-3F6B885ABFA4";
paths = (
{
closed = 1;
nodes = (
"803 -35 OFFCURVE",
"950 94 OFFCURVE",
"1006 359 CURVE",
"908 438 LINE",
"908 0 LINE",
"1226 0 LINE",
"1226 1038 LINE",
"903 1038 LINE",
"903 583 LINE",
"1000 659 LINE",
"951 927 OFFCURVE",
"796 1063 OFFCURVE",
"544 1063 CURVE SMOOTH",
"233 1063 OFFCURVE",
"31 842 OFFCURVE",
"31 508 CURVE SMOOTH",
"31 181 OFFCURVE",
"236 -35 OFFCURVE",
"550 -35 CURVE SMOOTH"
);
},
{
closed = 1;
nodes = (
"455 170 OFFCURVE",
"397 278 OFFCURVE",
"397 512 CURVE SMOOTH",
"397 748 OFFCURVE",
"453 859 OFFCURVE",
"577 859 CURVE SMOOTH",
"716 859 OFFCURVE",
"820 705 OFFCURVE",
"820 505 CURVE SMOOTH",
"820 325 OFFCURVE",
"724 170 OFFCURVE",
"583 170 CURVE SMOOTH"
);
},
{
closed = 1;
nodes = (
"1877 -28 OFFCURVE",
"2030 110 OFFCURVE",
"2126 428 CURVE",
"1867 428 LINE",
"1920 344 OFFCURVE",
"1746 175 OFFCURVE",
"1611 175 CURVE SMOOTH",
"1483 175 OFFCURVE",
"1412 296 OFFCURVE",
"1412 503 CURVE SMOOTH",
"1412 625 OFFCURVE",
"1485 842 OFFCURVE",
"1601 842 CURVE SMOOTH",
"1706 842 OFFCURVE",
"1761 724 OFFCURVE",
"1780 482 CURVE",
"2130 482 LINE",
"2094 856 OFFCURVE",
"1913 1046 OFFCURVE",
"1596 1046 CURVE SMOOTH",
"1278 1046 OFFCURVE",
"1064 827 OFFCURVE",
"1064 507 CURVE SMOOTH",
"1064 185 OFFCURVE",
"1277 -28 OFFCURVE",
"1601 -28 CURVE SMOOTH"
);
},
{
closed = 1;
nodes = (
"2054 482 LINE",
"2054 678 LINE",
"1327 678 LINE",
"1393 481 LINE"
);
}
);
width = 2160;
},
{
anchors = (
{
name = bottom;
position = "{938, 0}";
},
{
name = top;
position = "{938, 989}";
}
);
layerId = "B71E0DD6-B640-4F5E-B48D-BF5E04BC2E71";
paths = (
{
closed = 1;
nodes = (
"740 -28 OFFCURVE",
"886 94 OFFCURVE",
"943 311 CURVE",
"914 342 LINE",
"903 0 LINE",
"995 0 LINE",
"995 997 LINE",
"903 997 LINE",
"903 631 LINE",
"943 655 LINE",
"886 887 OFFCURVE",
"736 1022 OFFCURVE",
"535 1022 CURVE SMOOTH",
"280 1022 OFFCURVE",
"105 801 OFFCURVE",
"105 485 CURVE SMOOTH",
"105 176 OFFCURVE",
"276 -28 OFFCURVE",
"536 -28 CURVE SMOOTH"
);
},
{
closed = 1;
nodes = (
"320 53 OFFCURVE",
"191 215 OFFCURVE",
"191 495 CURVE SMOOTH",
"191 775 OFFCURVE",
"322 941 OFFCURVE",
"539 941 CURVE SMOOTH",
"759 941 OFFCURVE",
"903 761 OFFCURVE",
"903 485 CURVE SMOOTH",
"903 217 OFFCURVE",
"764 53 OFFCURVE",
"540 53 CURVE SMOOTH"
);
},
{
closed = 1;
nodes = (
"1557 -28 OFFCURVE",
"1705 99 OFFCURVE",
"1761 321 CURVE",
"1681 321 LINE",
"1638 153 OFFCURVE",
"1517 53 OFFCURVE",
"1358 53 CURVE SMOOTH",
"1151 53 OFFCURVE",
"1024 219 OFFCURVE",
"1024 491 CURVE SMOOTH",
"1024 764 OFFCURVE",
"1153 936 OFFCURVE",
"1357 936 CURVE SMOOTH",
"1550 936 OFFCURVE",
"1681 780 OFFCURVE",
"1701 522 CURVE",
"1776 522 LINE",
"1760 823 OFFCURVE",
"1595 1016 OFFCURVE",
"1356 1016 CURVE SMOOTH",
"1107 1016 OFFCURVE",
"935 795 OFFCURVE",
"935 482 CURVE SMOOTH",
"935 177 OFFCURVE",
"1104 -28 OFFCURVE",
"1357 -28 CURVE SMOOTH"
);
},
{
closed = 1;
nodes = (
"1749 522 LINE",
"1746 597 LINE",
"977 597 LINE",
"974 522 LINE"
);
}
);
width = 1876;
}
);
leftKerningGroup = a;
leftMetricsKey = a;
note = ae;
rightKerningGroup = e;
rightMetricsKey = e;
unicode = 00E6;
},
{
color = 0;
glyphname = b;
lastChange = "2019-12-17 05:57:19 +0000";
layers = (
{
anchors = (
{
name = bottom;
position = "{645, 0}";
},
{
name = top;
position = "{645, 1524}";
}
);
layerId = "66066CCB-AAC9-4485-8967-3F6B885ABFA4";
paths = (
{
closed = 1;
nodes = (
"1065 -35 OFFCURVE",
"1258 176 OFFCURVE",
"1258 508 CURVE SMOOTH",
"1258 841 OFFCURVE",
"1060 1052 OFFCURVE",
"743 1052 CURVE SMOOTH",
"517 1052 OFFCURVE",
"430 949 OFFCURVE",
"362 643 CURVE",
"482 569 LINE",
"482 1597 LINE",
"121 1597 LINE",
"121 -11 LINE",
"478 -11 LINE",
"478 431 LINE",
"344 371 LINE",
"409 81 OFFCURVE",
"521 -35 OFFCURVE",
"759 -35 CURVE SMOOTH"
);
},
{
closed = 1;
nodes = (
"566 170 OFFCURVE",
"467 307 OFFCURVE",
"467 494 CURVE SMOOTH",
"467 694 OFFCURVE",
"572 848 OFFCURVE",
"711 848 CURVE SMOOTH",
"837 848 OFFCURVE",
"892 745 OFFCURVE",
"892 512 CURVE SMOOTH",
"892 272 OFFCURVE",
"837 170 OFFCURVE",
"706 170 CURVE SMOOTH"
);
}
);
width = 1292;
},
{
anchors = (
{
name = bottom;
position = "{572, 0}";
},
{
name = top;
position = "{572, 1514}";
}
);
layerId = "B71E0DD6-B640-4F5E-B48D-BF5E04BC2E71";
paths = (
{
closed = 1;
nodes = (
"862 -28 OFFCURVE",
"1038 175 OFFCURVE",
"1038 482 CURVE SMOOTH",
"1038 797 OFFCURVE",
"858 1016 OFFCURVE",
"598 1016 CURVE SMOOTH",
"393 1016 OFFCURVE",
"237 881 OFFCURVE",
"178 652 CURVE",
"219 627 LINE",
"219 1514 LINE",
"133 1514 LINE",
"133 0 LINE",
"218 0 LINE",
"218 341 LINE",
"178 315 LINE",
"236 95 OFFCURVE",
"386 -28 OFFCURVE",
"597 -28 CURVE SMOOTH"
);
},
{
closed = 1;
nodes = (
"364 53 OFFCURVE",
"221 217 OFFCURVE",
"221 482 CURVE SMOOTH",
"221 758 OFFCURVE",
"369 936 OFFCURVE",
"594 936 CURVE SMOOTH",
"817 936 OFFCURVE",
"952 769 OFFCURVE",
"952 492 CURVE SMOOTH",
"952 216 OFFCURVE",
"819 53 OFFCURVE",
"593 53 CURVE SMOOTH"
);
}
);
width = 1143;
}
);
leftKerningGroup = h;
leftMetricsKey = l;
note = b;
rightKerningGroup = o;
rightMetricsKey = o;
unicode = 0062;
},
{
color = 1;
glyphname = c;
lastChange = "2019-12-17 05:57:58 +0000";
layers = (
{
anchors = (
{
name = bottom;
position = "{534, 0}";
},
{
name = top;
position = "{534, 1006}";
}
);
layerId = "66066CCB-AAC9-4485-8967-3F6B885ABFA4";
paths = (
{
closed = 1;
nodes = (
"752 -62 OFFCURVE",
"893 -20 OFFCURVE",
"992 56 CURVE",
"992 435 LINE",
"894 257 OFFCURVE",
"748 141 OFFCURVE",
"619 141 CURVE SMOOTH",
"473 141 OFFCURVE",
"397 264 OFFCURVE",
"397 489 CURVE SMOOTH",
"397 716 OFFCURVE",
"479 843 OFFCURVE",
"630 843 CURVE SMOOTH",
"746 843 OFFCURVE",
"848 760 OFFCURVE",
"975 566 CURVE",
"975 944 LINE",
"832 1015 OFFCURVE",
"716 1047 OFFCURVE",
"598 1047 CURVE SMOOTH",
"274 1047 OFFCURVE",
"34 805 OFFCURVE",
"34 480 CURVE SMOOTH",
"34 159 OFFCURVE",
"265 -62 OFFCURVE",
"602 -62 CURVE SMOOTH"
);
}
);
width = 1065;
},
{
anchors = (
{
name = bottom;
position = "{485, 0}";
},
{
name = top;
position = "{485, 989}";
}
);
background = {
paths = (
{
closed = 1;
nodes = (
"565 4 OFFCURVE",
"603 23 OFFCURVE",
"672 59 CURVE",
"672 16 LINE",
"621 -3 OFFCURVE",
"566 -24 OFFCURVE",
"512 -24 CURVE SMOOTH",
"265 -24 OFFCURVE",
"116 174 OFFCURVE",
"116 444 CURVE SMOOTH",
"116 718 OFFCURVE",
"270 918 OFFCURVE",
"523 918 CURVE SMOOTH",
"569 918 OFFCURVE",
"614 901 OFFCURVE",
"656 888 CURVE",
"656 847 LINE",
"579 882 OFFCURVE",
"545 890 OFFCURVE",
"492 890 CURVE SMOOTH",
"300 890 OFFCURVE",
"152 716 OFFCURVE",
"152 435 CURVE SMOOTH",
"152 153 OFFCURVE",
"291 4 OFFCURVE",
"496 4 CURVE SMOOTH"
);
}
);
};
layerId = "B71E0DD6-B640-4F5E-B48D-BF5E04BC2E71";
paths = (
{
closed = 1;
nodes = (
"689 -33 OFFCURVE",
"780 -6 OFFCURVE",
"865 48 CURVE",
"865 163 LINE",
"800 93 OFFCURVE",
"693 48 OFFCURVE",
"586 48 CURVE SMOOTH",
"360 48 OFFCURVE",
"194 229 OFFCURVE",
"194 482 CURVE SMOOTH",
"194 736 OFFCURVE",
"361 918 OFFCURVE",
"587 918 CURVE SMOOTH",
"691 918 OFFCURVE",
"802 874 OFFCURVE",
"864 805 CURVE",
"864 918 LINE",
"778 972 OFFCURVE",
"685 999 OFFCURVE",
"585 999 CURVE SMOOTH",
"349 999 OFFCURVE",
"105 825 OFFCURVE",
"105 481 CURVE SMOOTH",
"105 137 OFFCURVE",
"348 -33 OFFCURVE",
"586 -33 CURVE SMOOTH"
);
}
);
width = 969;
}
);
leftMetricsKey = o;
note = c;
unicode = 0063;
},
{
color = 0;
glyphname = d;
lastChange = "2019-12-17 05:58:01 +0000";
layers = (
{
anchors = (
{
name = bottom;
position = "{648, 0}";
},
{
name = center;
position = "{648, 503}";
},
{
name = top;
position = "{648, 1524}";
},
{
name = topright;
position = "{1272, 1006}";
}
);
layerId = "66066CCB-AAC9-4485-8967-3F6B885ABFA4";
paths = (
{
closed = 1;
nodes = (
"770 -33 OFFCURVE",
"881 82 OFFCURVE",
"948 372 CURVE",
"814 431 LINE",
"814 -11 LINE",
"1171 -11 LINE",
"1171 1597 LINE",
"809 1597 LINE",
"809 569 LINE",
"930 643 LINE",
"863 948 OFFCURVE",
"773 1052 OFFCURVE",
"547 1052 CURVE SMOOTH",
"230 1052 OFFCURVE",
"34 843 OFFCURVE",
"34 508 CURVE SMOOTH",
"34 178 OFFCURVE",
"227 -33 OFFCURVE",
"532 -33 CURVE SMOOTH"
);
},
{
closed = 1;
nodes = (
"455 171 OFFCURVE",
"400 272 OFFCURVE",
"400 512 CURVE SMOOTH",
"400 747 OFFCURVE",
"454 848 OFFCURVE",
"581 848 CURVE SMOOTH",
"719 848 OFFCURVE",
"823 693 OFFCURVE",
"823 494 CURVE SMOOTH",
"823 306 OFFCURVE",
"725 171 OFFCURVE",
"586 171 CURVE SMOOTH"
);
}
);
width = 1292;
},
{
anchors = (
{
name = bottom;
position = "{572, 0}";
},
{
name = center;
position = "{572, 495}";
},
{
name = top;
position = "{572, 1514}";
},
{
name = topright;
position = "{1123, 989}";
}
);
layerId = "B71E0DD6-B640-4F5E-B48D-BF5E04BC2E71";
paths = (
{
closed = 1;
nodes = (
"756 -38 OFFCURVE",
"908 88 OFFCURVE",
"966 310 CURVE",
"925 335 LINE",
"925 0 LINE",
"1010 0 LINE",
"1010 1514 LINE",
"925 1514 LINE",
"925 626 LINE",
"965 650 LINE",
"906 883 OFFCURVE",
"751 1019 OFFCURVE",
"545 1019 CURVE SMOOTH",
"286 1019 OFFCURVE",
"105 796 OFFCURVE",
"105 479 CURVE SMOOTH",
"105 168 OFFCURVE",
"281 -38 OFFCURVE",
"546 -38 CURVE SMOOTH"
);
},
{
closed = 1;
nodes = (
"324 44 OFFCURVE",
"191 208 OFFCURVE",
"191 488 CURVE SMOOTH",
"191 770 OFFCURVE",
"325 937 OFFCURVE",
"549 937 CURVE SMOOTH",
"776 937 OFFCURVE",
"923 756 OFFCURVE",
"923 478 CURVE SMOOTH",
"923 210 OFFCURVE",
"780 44 OFFCURVE",
"550 44 CURVE SMOOTH"
);
}
);
width = 1143;
}
);
leftKerningGroup = o;
leftMetricsKey = o;
note = d;
rightKerningGroup = l;
rightMetricsKey = l;
unicode = 0064;
},
{
color = 1;
glyphname = eth;
lastChange = "2019-12-17 01:49:42 +0000";
layers = (
{
layerId = "66066CCB-AAC9-4485-8967-3F6B885ABFA4";
paths = (
{
closed = 1;
nodes = (
"780 -63 OFFCURVE",
"878 -22 OFFCURVE",
"1013 108 CURVE SMOOTH",
"1131 222 OFFCURVE",
"1187 365 OFFCURVE",
"1187 547 CURVE SMOOTH",
"1187 708 OFFCURVE",
"1130 931 OFFCURVE",
"1061 1052 CURVE SMOOTH",
"895 1346 OFFCURVE",
"580 1535 OFFCURVE",
"152 1601 CURVE",
"12 1412 LINE",
"497 1354 OFFCURVE",
"760 1107 OFFCURVE",
"849 692 CURVE",
"1064 852 LINE",
"900 991 OFFCURVE",
"773 1046 OFFCURVE",
"597 1046 CURVE SMOOTH",
"373 1046 OFFCURVE",
"270 1013 OFFCURVE",
"148 893 CURVE SMOOTH",
"74 822 OFFCURVE",
"6 653 OFFCURVE",
"6 488 CURVE SMOOTH",
"6 344 OFFCURVE",
"75 158 OFFCURVE",
"157 79 CURVE SMOOTH",
"278 -40 OFFCURVE",
"359 -63 OFFCURVE",
"597 -63 CURVE SMOOTH"
);
},
{
closed = 1;
nodes = (
"475 141 OFFCURVE",
"371 306 OFFCURVE",
"371 489 CURVE SMOOTH",
"371 672 OFFCURVE",
"477 841 OFFCURVE",
"596 841 CURVE SMOOTH",
"715 841 OFFCURVE",
"821 672 OFFCURVE",
"821 489 CURVE SMOOTH",
"821 305 OFFCURVE",
"717 141 OFFCURVE",
"596 141 CURVE SMOOTH"
);
},
{
closed = 1;
nodes = (
"304 1033 LINE",
"994 1625 LINE",
"681 1625 LINE",
"-10 1033 LINE"
);
}
);
width = 1207;
},
{
background = {
paths = (
{
closed = 1;
nodes = (
"675 1392 OFFCURVE",
"973 1135 OFFCURVE",
"1022 923 CURVE",
"870 812 LINE",
"742 919 OFFCURVE",
"719 936 OFFCURVE",
"645 936 CURVE SMOOTH",
"557 936 OFFCURVE",
"517 907 OFFCURVE",
"395 782 CURVE SMOOTH",
"346 733 OFFCURVE",
"291 592 OFFCURVE",
"291 441 CURVE SMOOTH",
"291 286 OFFCURVE",
"348 149 OFFCURVE",
"394 103 CURVE SMOOTH",
"519 -23 OFFCURVE",
"552 -47 OFFCURVE",
"645 -47 CURVE SMOOTH",
"739 -47 OFFCURVE",
"771 -23 OFFCURVE",
"892 105 CURVE SMOOTH",
"933 148 OFFCURVE",
"997 292 OFFCURVE",
"997 499 CURVE SMOOTH",
"997 659 OFFCURVE",
"952 883 OFFCURVE",
"900 985 CURVE SMOOTH",
"773 1238 OFFCURVE",
"590 1401 OFFCURVE",
"342 1480 CURVE",
"332 1465 LINE"
);
},
{
closed = 1;
nodes = (
"390 -15 OFFCURVE",
"231 173 OFFCURVE",
"231 442 CURVE SMOOTH",
"231 713 OFFCURVE",
"390 904 OFFCURVE",
"644 904 CURVE SMOOTH",
"898 904 OFFCURVE",
"1057 713 OFFCURVE",
"1057 442 CURVE SMOOTH",
"1057 173 OFFCURVE",
"898 -15 OFFCURVE",
"644 -15 CURVE SMOOTH"
);
},
{
closed = 1;
nodes = (
"791 1629 LINE",
"921 1629 LINE",
"377 1103 LINE",
"247 1103 LINE"
);
}
);
};
layerId = "B71E0DD6-B640-4F5E-B48D-BF5E04BC2E71";
paths = (
{
closed = 1;
nodes = (
"700 -28 OFFCURVE",
"810 18 OFFCURVE",
"891 99 CURVE SMOOTH",
"984 191 OFFCURVE",
"1037 328 OFFCURVE",
"1036 491 CURVE SMOOTH",
"1035 643 OFFCURVE",
"1020 847 OFFCURVE",
"945 1011 CURVE SMOOTH",
"817 1291 OFFCURVE",
"514 1525 OFFCURVE",
"211 1587 CURVE",
"169 1526 LINE",
"582 1427 OFFCURVE",
"918 1069 OFFCURVE",
"928 717 CURVE",
"977 726 LINE",
"895 915 OFFCURVE",
"751 1014 OFFCURVE",
"569 1014 CURVE SMOOTH",
"448 1014 OFFCURVE",
"347 972 OFFCURVE",
"259 883 CURVE SMOOTH",
"168 792 OFFCURVE",
"104 644 OFFCURVE",
"104 482 CURVE SMOOTH",
"104 319 OFFCURVE",
"171 181 OFFCURVE",
"253 100 CURVE SMOOTH",
"341 13 OFFCURVE",
"442 -28 OFFCURVE",
"569 -28 CURVE SMOOTH"
);
},
{
closed = 1;
nodes = (
"336 53 OFFCURVE",
"196 227 OFFCURVE",
"196 491 CURVE SMOOTH",
"196 756 OFFCURVE",
"340 932 OFFCURVE",
"569 932 CURVE SMOOTH",
"796 932 OFFCURVE",
"944 750 OFFCURVE",
"944 482 CURVE SMOOTH",
"944 223 OFFCURVE",
"800 53 OFFCURVE",
"569 53 CURVE SMOOTH"
);
},
{
closed = 1;
nodes = (
"323 1125 LINE",
"875 1639 LINE",
"792 1639 LINE",
"240 1125 LINE"
);
}
);
width = 1145;
}
);
leftKerningGroup = eth;
note = eth;
rightKerningGroup = eth;
unicode = 00F0;
},
{
color = 1;
glyphname = e;
lastChange = "2019-12-17 01:54:24 +0000";
layers = (
{
anchors = (
{
name = bottom;
position = "{594, 0}";
},
{
name = ogonek;
position = "{1068, 10}";
},
{
name = top;
position = "{594, 1006}";
}
);
background = {
paths = (
{
closed = 1;
nodes = (
"805 -31 OFFCURVE",
"966 80 OFFCURVE",
"1049 305 CURVE",
"844 305 LINE",
"819 167 OFFCURVE",
"672 40 OFFCURVE",
"576 40 CURVE SMOOTH",
"458 40 OFFCURVE",
"376 228 OFFCURVE",
"376 457 CURVE SMOOTH",
"376 508 OFFCURVE",
"380 529 OFFCURVE",
"380 531 CURVE",
"365 503 LINE",
"1073 503 LINE",
"1042 782 OFFCURVE",
"847 955 OFFCURVE",
"561 955 CURVE SMOOTH",
"254 955 OFFCURVE",
"40 755 OFFCURVE",
"40 459 CURVE SMOOTH",
"40 164 OFFCURVE",
"253 -31 OFFCURVE",
"567 -31 CURVE SMOOTH"
);
},
{
closed = 1;
nodes = (
"379 521 LINE",
"402 725 OFFCURVE",
"492 884 OFFCURVE",
"567 884 CURVE SMOOTH",
"639 884 OFFCURVE",
"709 741 OFFCURVE",
"736 524 CURVE",
"840 567 LINE",
"343 567 LINE"
);
}
);
};
layerId = "66066CCB-AAC9-4485-8967-3F6B885ABFA4";
paths = (
{
closed = 1;
nodes = (
"895 -28 OFFCURVE",
"1054 108 OFFCURVE",
"1155 428 CURVE",
"881 428 LINE",
"941 350 OFFCURVE",
"757 175 OFFCURVE",
"614 175 CURVE SMOOTH",
"481 175 OFFCURVE",
"405 297 OFFCURVE",
"405 503 CURVE SMOOTH",
"405 624 OFFCURVE",
"481 842 OFFCURVE",
"604 842 CURVE SMOOTH",
"713 842 OFFCURVE",
"771 724 OFFCURVE",
"790 482 CURVE",
"1157 482 LINE",
"1120 856 OFFCURVE",
"933 1046 OFFCURVE",
"598 1046 CURVE SMOOTH",
"264 1046 OFFCURVE",
"39 828 OFFCURVE",
"39 507 CURVE SMOOTH",
"39 184 OFFCURVE",
"262 -28 OFFCURVE",
"604 -28 CURVE SMOOTH"
);
},
{
closed = 1;
nodes = (
"1079 482 LINE",
"1079 678 LINE",
"312 678 LINE",
"388 481 LINE"
);
}
);
width = 1187;
},
{
anchors = (
{
name = bottom;
position = "{544, 0}";
},
{
name = ogonek;
position = "{978, 10}";
},
{
name = top;
position = "{544, 989}";
}
);
background = {
paths = (
{
closed = 1;
nodes = (
"741 -44 OFFCURVE",
"798 22 OFFCURVE",
"894 264 CURVE",
"1073 264 LINE",
"1043 123 OFFCURVE",
"800 -12 OFFCURVE",
"615 -12 CURVE SMOOTH",
"352 -12 OFFCURVE",
"217 159 OFFCURVE",
"217 442 CURVE SMOOTH",
"217 481 OFFCURVE",
"491 527 OFFCURVE",
"491 542 CURVE",
"336 509 LINE",
"913 509 LINE",
"875 788 OFFCURVE",
"765 938 OFFCURVE",
"600 938 CURVE SMOOTH",
"410 938 OFFCURVE",
"277 737 OFFCURVE",
"277 444 CURVE SMOOTH",
"277 149 OFFCURVE",
"408 -44 OFFCURVE",
"606 -44 CURVE SMOOTH"
);
},
{
closed = 1;
nodes = (
"227 551 LINE",
"263 779 OFFCURVE",
"386 906 OFFCURVE",
"606 906 CURVE SMOOTH",
"831 906 OFFCURVE",
"931 791 OFFCURVE",
"967 550 CURVE",
"803 536 LINE",
"370 536 LINE"
);
}
);
};
layerId = "B71E0DD6-B640-4F5E-B48D-BF5E04BC2E71";
paths = (
{
closed = 1;
nodes = (
"758 -28 OFFCURVE",
"912 98 OFFCURVE",
"971 321 CURVE",
"888 321 LINE",
"844 154 OFFCURVE",
"716 53 OFFCURVE",
"549 53 CURVE SMOOTH",
"331 53 OFFCURVE",
"198 218 OFFCURVE",
"198 491 CURVE SMOOTH",
"198 764 OFFCURVE",
"333 936 OFFCURVE",
"547 936 CURVE SMOOTH",
"751 936 OFFCURVE",
"889 780 OFFCURVE",
"909 522 CURVE",
"987 522 LINE",
"971 822 OFFCURVE",
"798 1016 OFFCURVE",
"547 1016 CURVE SMOOTH",
"286 1016 OFFCURVE",
"105 796 OFFCURVE",
"105 482 CURVE SMOOTH",
"105 177 OFFCURVE",
"282 -28 OFFCURVE",
"547 -28 CURVE SMOOTH"
);
},
{
closed = 1;
nodes = (
"959 522 LINE",
"956 597 LINE",
"147 597 LINE",
"147 522 LINE"
);
}
);
width = 1087;
}
);
leftKerningGroup = o;
note = e;
rightKerningGroup = e;
unicode = 0065;
},
{
color = 1;
glyphname = f;
lastChange = "2019-12-17 01:54:24 +0000";
layers = (
{
anchors = (
{
name = bottom;
position = "{343, 0}";
},
{
name = top;
position = "{343, 1514}";
}
);
background = {
anchors = (
{
name = bottom;
position = "{470, 0}";
},
{
name = top;
position = "{470, 1514}";
}
);
paths = (
{
closed = 1;
nodes = (
"377 0 LINE",
"377 1145 LINE SMOOTH",
"377 1404 OFFCURVE",
"397 1462 OFFCURVE",
"477 1462 CURVE",
"529 1454 OFFCURVE",
"556 1418 OFFCURVE",
"556 1360 CURVE SMOOTH",
"556 1328 OFFCURVE",
"548 1303 OFFCURVE",
"538 1258 CURVE",
"607 1258 LINE",
"620 1295 OFFCURVE",
"627 1348 OFFCURVE",
"627 1383 CURVE SMOOTH",
"627 1485 OFFCURVE",
"566 1531 OFFCURVE",
"470 1531 CURVE SMOOTH",
"300 1531 OFFCURVE",
"302 1335 OFFCURVE",
"302 1145 CURVE SMOOTH",
"302 0 LINE"
);
},
{
closed = 1;
nodes = (
"539 923 LINE",
"539 989 LINE",
"143 989 LINE",
"143 923 LINE"
);
}
);
};
layerId = "B71E0DD6-B640-4F5E-B48D-BF5E04BC2E71";
paths = (
{
closed = 1;
nodes = (
"386 0 LINE",
"386 1115 LINE SMOOTH",
"386 1378 OFFCURVE",
"401 1450 OFFCURVE",
"489 1450 CURVE SMOOTH",
"545 1450 OFFCURVE",
"578 1428 OFFCURVE",
"578 1388 CURVE SMOOTH",
"578 1371 OFFCURVE",
"572 1349 OFFCURVE",
"566 1331 CURVE",
"645 1331 LINE",
"650 1339 OFFCURVE",
"660 1367 OFFCURVE",
"660 1396 CURVE SMOOTH",
"660 1474 OFFCURVE",
"578 1532 OFFCURVE",
"481 1532 CURVE SMOOTH",
"291 1532 OFFCURVE",
"301 1312 OFFCURVE",
"301 1114 CURVE SMOOTH",
"301 0 LINE"
);
},
{
closed = 1;
nodes = (
"589 909 LINE",
"589 988 LINE",
"97 988 LINE",
"97 909 LINE"
);
}
);
width = 686;
},
{
anchors = (
{
name = bottom;
position = "{320, 0}";
},
{
name = top;
position = "{320, 1524}";
}
);
layerId = "66066CCB-AAC9-4485-8967-3F6B885ABFA4";
paths = (
{
closed = 1;
nodes = (
"562 0 LINE",
"562 1060 LINE SMOOTH",
"562 1220 OFFCURVE",
"490 1369 OFFCURVE",
"575 1431 CURVE",
"557 1439 OFFCURVE",
"626 1450 OFFCURVE",
"626 1411 CURVE SMOOTH",
"626 1382 OFFCURVE",
"613 1302 OFFCURVE",
"582 1217 CURVE",
"841 1217 LINE",
"855 1285 OFFCURVE",
"863 1350 OFFCURVE",
"863 1385 CURVE SMOOTH",
"863 1562 OFFCURVE",
"737 1653 OFFCURVE",
"527 1653 CURVE SMOOTH",
"291 1653 OFFCURVE",
"200 1518 OFFCURVE",
"200 1175 CURVE SMOOTH",
"200 0 LINE"
);
},
{
closed = 1;
nodes = (
"760 818 LINE",
"760 1021 LINE",
"14 1021 LINE",
"14 818 LINE"
);
}
);
width = 639;
}
);
leftKerningGroup = f;
note = f;
rightKerningGroup = f;
unicode = 0066;
},
{
color = 1;
glyphname = g;
lastChange = "2019-12-17 01:54:24 +0000";
layers = (
{
anchors = (
{
name = bottom;
position = "{684, -526}";
},
{
name = top;
position = "{684, 1006}";
}
);
background = {
paths = (
{
closed = 1;
nodes = (
"1001 -609 OFFCURVE",
"1238 -341 OFFCURVE",
"1238 148 CURVE SMOOTH",
"1238 1116 LINE",
"865 1116 LINE",
"865 814 LINE",
"1022 830 LINE",
"967 1027 OFFCURVE",
"810 1146 OFFCURVE",
"584 1146 CURVE SMOOTH",
"266 1146 OFFCURVE",
"56 912 OFFCURVE",
"56 562 CURVE SMOOTH",
"56 211 OFFCURVE",
"268 -20 OFFCURVE",
"591 -20 CURVE SMOOTH",
"817 -20 OFFCURVE",
"969 94 OFFCURVE",
"1025 285 CURVE",
"869 343 LINE",
"869 69 LINE SMOOTH",
"869 -306 OFFCURVE",
"738 -535 OFFCURVE",
"572 -535 CURVE SMOOTH",
"433 -535 OFFCURVE",
"301 -374 OFFCURVE",
"293 -179 CURVE",
"54 -179 LINE",
"102 -458 OFFCURVE",
"301 -609 OFFCURVE",
"601 -609 CURVE SMOOTH"
);
},
{
closed = 1;
nodes = (
"500 55 OFFCURVE",
"434 276 OFFCURVE",
"434 567 CURVE SMOOTH",
"434 866 OFFCURVE",
"501 1072 OFFCURVE",
"622 1072 CURVE SMOOTH",
"758 1072 OFFCURVE",
"883 824 OFFCURVE",
"883 559 CURVE SMOOTH",
"883 302 OFFCURVE",
"766 55 OFFCURVE",
"628 55 CURVE SMOOTH"
);
}
);
};
layerId = "66066CCB-AAC9-4485-8967-3F6B885ABFA4";
paths = (
{
closed = 1;
nodes = (
"1002 -582 OFFCURVE",
"1239 -313 OFFCURVE",
"1239 138 CURVE SMOOTH",
"1239 1035 LINE",
"861 1035 LINE",
"861 653 LINE",
"1046 659 LINE",
"990 929 OFFCURVE",
"841 1061 OFFCURVE",
"583 1061 CURVE SMOOTH",
"262 1061 OFFCURVE",
"52 835 OFFCURVE",
"52 492 CURVE SMOOTH",
"52 148 OFFCURVE",
"263 -77 OFFCURVE",
"590 -77 CURVE SMOOTH",
"849 -77 OFFCURVE",
"985 38 OFFCURVE",
"1049 301 CURVE",
"865 368 LINE",
"865 68 LINE SMOOTH",
"865 -203 OFFCURVE",
"750 -379 OFFCURVE",
"571 -379 CURVE SMOOTH",
"405 -379 OFFCURVE",
"265 -228 OFFCURVE",
"300 -66 CURVE",
"38 -66 LINE",
"75 -406 OFFCURVE",
"269 -582 OFFCURVE",
"600 -582 CURVE SMOOTH"
);
},
{
closed = 1;
nodes = (
"489 125 OFFCURVE",
"435 232 OFFCURVE",
"435 495 CURVE SMOOTH",
"435 751 OFFCURVE",
"489 858 OFFCURVE",
"621 858 CURVE SMOOTH",
"773 858 OFFCURVE",
"878 686 OFFCURVE",
"878 489 CURVE SMOOTH",
"878 296 OFFCURVE",
"781 125 OFFCURVE",
"627 125 CURVE SMOOTH"
);
}
);
width = 1367;
},
{
anchors = (
{
name = bottom;
position = "{565, -526}";
},
{
name = top;
position = "{565, 989}";
}
);
layerId = "B71E0DD6-B640-4F5E-B48D-BF5E04BC2E71";
paths = (
{
closed = 1;
nodes = (
"852 -558 OFFCURVE",
"996 -342 OFFCURVE",
"996 98 CURVE SMOOTH",
"996 991 LINE",
"906 991 LINE",
"906 649 LINE",
"933 693 LINE",
"867 900 OFFCURVE",
"725 1016 OFFCURVE",
"536 1016 CURVE SMOOTH",
"282 1016 OFFCURVE",
"106 796 OFFCURVE",
"106 482 CURVE SMOOTH",
"106 175 OFFCURVE",
"277 -28 OFFCURVE",
"537 -28 CURVE SMOOTH",
"736 -28 OFFCURVE",
"880 108 OFFCURVE",
"939 295 CURVE",
"916 339 LINE",
"907 65 LINE",
"907 -311 OFFCURVE",
"778 -478 OFFCURVE",
"517 -478 CURVE SMOOTH",
"328 -478 OFFCURVE",
"199 -391 OFFCURVE",
"183 -268 CURVE",
"105 -268 LINE",
"138 -453 OFFCURVE",
"311 -558 OFFCURVE",
"533 -558 CURVE SMOOTH"
);
},
{
closed = 1;
nodes = (
"320 53 OFFCURVE",
"192 214 OFFCURVE",
"192 492 CURVE SMOOTH",
"192 770 OFFCURVE",
"323 936 OFFCURVE",
"540 936 CURVE SMOOTH",
"760 936 OFFCURVE",
"904 758 OFFCURVE",
"904 482 CURVE SMOOTH",
"904 217 OFFCURVE",
"764 53 OFFCURVE",
"541 53 CURVE SMOOTH"
);
}
);
width = 1130;
}
);
leftKerningGroup = g;
note = g;
rightKerningGroup = g;
unicode = 0067;
},
{
color = 1;
glyphname = h;
lastChange = "2019-12-17 01:54:24 +0000";
layers = (
{
anchors = (
{
name = bottom;
position = "{640, 0}";
},
{
name = center;
position = "{640, 762}";
},
{
name = top;
position = "{640, 1524}";
}
);
layerId = "66066CCB-AAC9-4485-8967-3F6B885ABFA4";
paths = (
{
closed = 1;
nodes = (
"485 -18 LINE",
"485 502 LINE SMOOTH",
"485 692 OFFCURVE",
"591 843 OFFCURVE",
"729 843 CURVE SMOOTH",
"830 843 OFFCURVE",
"832 813 OFFCURVE",
"832 566 CURVE SMOOTH",
"832 -18 LINE",
"1194 -18 LINE",
"1194 653 LINE SMOOTH",
"1194 891 OFFCURVE",
"1021 1046 OFFCURVE",
"755 1046 CURVE SMOOTH",
"517 1046 OFFCURVE",
"368 937 OFFCURVE",
"296 712 CURVE",
"483 431 LINE",
"483 1603 LINE",
"122 1603 LINE",
"122 -18 LINE"
);
}
);
width = 1280;
},
{
anchors = (
{
name = bottom;
position = "{521, 0}";
},
{
name = center;
position = "{521, 757}";
},
{
name = top;
position = "{521, 1514}";
}
);
layerId = "B71E0DD6-B640-4F5E-B48D-BF5E04BC2E71";
paths = (
{
closed = 1;
nodes = (
"222 1 LINE",
"222 571 LINE SMOOTH",
"222 796 OFFCURVE",
"347 935 OFFCURVE",
"548 935 CURVE SMOOTH",
"749 935 OFFCURVE",
"835 827 OFFCURVE",
"835 580 CURVE SMOOTH",
"835 1 LINE",
"921 1 LINE",
"921 586 LINE SMOOTH",
"921 874 OFFCURVE",
"803 1016 OFFCURVE",
"562 1016 CURVE SMOOTH",
"362 1016 OFFCURVE",
"227 895 OFFCURVE",
"196 660 CURVE",
"222 670 LINE",
"222 1514 LINE",
"136 1514 LINE",
"136 1 LINE"
);
}
);
width = 1042;
}
);
leftKerningGroup = h;
note = h;
rightKerningGroup = n;
unicode = 0068;
},
{
color = 1;
glyphname = idotless;
lastChange = "2019-12-17 01:54:24 +0000";
layers = (
{
anchors = (
{
name = bottom;
position = "{289, 0}";
},
{
name = ogonek;
position = "{519, 10}";
},
{
name = top;
position = "{289, 1006}";
}
);
layerId = "66066CCB-AAC9-4485-8967-3F6B885ABFA4";
paths = (
{
closed = 1;
nodes = (
"469 -18 LINE",
"469 1021 LINE",
"108 1021 LINE",
"108 -18 LINE"
);
}
);
width = 577;
},
{
anchors = (
{
name = bottom;
position = "{173, 0}";
},
{
name = ogonek;
position = "{311, 10}";
},
{
name = top;
position = "{173, 989}";
}
);
layerId = "B71E0DD6-B640-4F5E-B48D-BF5E04BC2E71";
paths = (
{
closed = 1;
nodes = (
"216 0 LINE",
"216 988 LINE",
"130 988 LINE",
"130 0 LINE"
);
}
);
width = 346;
}
);
leftKerningGroup = idotless;
note = dotlessi;
rightKerningGroup = idotless;
unicode = 0131;
},
{
color = 1;
glyphname = jdotless;
lastChange = "2019-12-17 01:54:24 +0000";
layers = (
{
anchors = (
{
name = bottom;
position = "{300, -526}";
},
{
name = top;
position = "{300, 1006}";
}
);
layerId = "66066CCB-AAC9-4485-8967-3F6B885ABFA4";
paths = (
{
closed = 1;
nodes = (
"390 -539 OFFCURVE",
"481 -403 OFFCURVE",
"481 -60 CURVE SMOOTH",
"481 1038 LINE",
"119 1038 LINE",
"119 55 LINE SMOOTH",
"119 -104 OFFCURVE",
"191 -254 OFFCURVE",
"105 -316 CURVE",
"129 -325 OFFCURVE",
"54 -337 OFFCURVE",
"54 -297 CURVE SMOOTH",
"54 -266 OFFCURVE",
"67 -187 OFFCURVE",
"99 -103 CURVE",
"-160 -103 LINE",
"-173 -160 OFFCURVE",
"-183 -237 OFFCURVE",
"-183 -274 CURVE SMOOTH",
"-183 -450 OFFCURVE",
"-55 -539 OFFCURVE",
"154 -539 CURVE SMOOTH"
);
}
);
width = 599;
},
{
anchors = (
{
name = bottom;
position = "{179, -526}";
},
{
name = top;
position = "{179, 989}";
}
);
layerId = "B71E0DD6-B640-4F5E-B48D-BF5E04BC2E71";
paths = (
{
closed = 1;
nodes = (
"233 -558 OFFCURVE",
"222 -337 OFFCURVE",
"222 -140 CURVE SMOOTH",
"222 991 LINE",
"136 991 LINE",
"136 -140 LINE SMOOTH",
"136 -400 OFFCURVE",
"124 -476 OFFCURVE",
"34 -476 CURVE SMOOTH",
"-21 -476 OFFCURVE",
"-55 -447 OFFCURVE",
"-55 -386 CURVE SMOOTH",
"-55 -375 OFFCURVE",
"-54 -367 OFFCURVE",
"-51 -348 CURVE",
"-130 -348 LINE",
"-133 -359 OFFCURVE",
"-136 -372 OFFCURVE",
"-136 -392 CURVE SMOOTH",
"-136 -503 OFFCURVE",
"-54 -558 OFFCURVE",
"42 -558 CURVE SMOOTH"
);
}
);
width = 358;
}
);
leftKerningGroup = jdotless;
rightKerningGroup = jdotless;
unicode = 0237;
},
{
color = 1;
glyphname = k;
lastChange = "2019-12-17 05:42:21 +0000";
layers = (
{
anchors = (
{
name = bottom;
position = "{620, 0}";
},
{
name = top;
position = "{620, 1524}";
}
);
background = {
components = (
{
name = n;
}
);
};
guideLines = (
{
angle = 49.4556;
position = "{815, 680}";
}
);
layerId = "66066CCB-AAC9-4485-8967-3F6B885ABFA4";
paths = (
{
closed = 1;
nodes = (
"482 -18 LINE",
"482 1603 LINE",
"121 1603 LINE",
"121 -18 LINE"
);
},
{
closed = 1;
nodes = (
"1299 -18 LINE",
"691 688 LINE",
"468 403 LINE",
"867 -18 LINE"
);
},
{
closed = 1;
nodes = (
"1202 1021 LINE",
"909 1021 LINE",
"442 537 LINE",
"407 157 LINE"
);
}
);
width = 1240;
},
{
anchors = (
{
name = bottom;
position = "{502, 0}";
},
{
name = top;
position = "{502, 1514}";
}
);
background = {
components = (
{
name = n;
transform = "{1, 0, 0, 1, 5, 0}";
}
);
};
guideLines = (
{
angle = -44.7476;
position = "{584, 226}";
}
);
layerId = "B71E0DD6-B640-4F5E-B48D-BF5E04BC2E71";
paths = (
{
closed = 1;
nodes = (
"219 0 LINE",
"219 1514 LINE",
"133 1514 LINE",
"133 0 LINE"
);
},
{
closed = 1;
nodes = (
"908 0 LINE",
"331 622 LINE",
"268 549 LINE",
"777 0 LINE"
);
},
{
closed = 1;
nodes = (
"815 988 LINE",
"699 988 LINE",
"149 453 LINE",
"211 400 LINE"
);
}
);
width = 1003;
}
);
leftKerningGroup = h;
leftMetricsKey = l;
note = k;
rightKerningGroup = k;
unicode = 006B;
},
{
color = 1;
glyphname = kgreenlandic;
lastChange = "2019-12-17 05:46:13 +0000";
layers = (
{
anchors = (
{
name = bottom;
position = "{500, 0}";
},
{
name = top;
position = "{500, 989}";
}
);
layerId = "B71E0DD6-B640-4F5E-B48D-BF5E04BC2E71";
paths = (
{
closed = 1;
nodes = (
"812 988 LINE",
"696 988 LINE",
"146 453 LINE",
"208 400 LINE"
);
},
{
closed = 1;
nodes = (
"216 0 LINE",
"216 989 LINE",
"130 989 LINE",
"130 0 LINE"
);
},
{
closed = 1;
nodes = (
"905 0 LINE",
"328 622 LINE",
"265 549 LINE",
"774 0 LINE"
);
}
);
width = 1000;
},
{
anchors = (
{
name = bottom;
position = "{601, 0}";
},
{
name = top;
position = "{601, 1006}";
}
);
layerId = "66066CCB-AAC9-4485-8967-3F6B885ABFA4";
paths = (
{
closed = 1;
nodes = (
"1216 1138 LINE",
"898 1069 LINE",
"431 524 LINE",
"424 196 LINE"
);
},
{
closed = 1;
nodes = (
"471 0 LINE",
"471 1037 LINE",
"109 1037 LINE",
"109 0 LINE"
);
},
{
closed = 1;
nodes = (
"1287 -89 LINE",
"684 649 LINE",
"447 425 LINE",
"833 -34 LINE"
);
}
);
width = 1202;
}
);
unicode = 0138;
},
{
color = 1;
glyphname = lslash;
lastChange = "2019-12-17 01:49:42 +0000";
layers = (
{
layerId = "66066CCB-AAC9-4485-8967-3F6B885ABFA4";
paths = (
{
closed = 1;
nodes = (
"562 -18 LINE",
"562 1603 LINE",
"200 1603 LINE",
"200 -18 LINE"
);
},
{
closed = 1;
nodes = (
"832 887 LINE",
"727 1056 LINE",
"-78 602 LINE",
"29 432 LINE"
);
}
);
width = 755;
},
{
layerId = "B71E0DD6-B640-4F5E-B48D-BF5E04BC2E71";
paths = (
{
closed = 1;
nodes = (
"430 0 LINE",
"430 1514 LINE",
"344 1514 LINE",
"344 0 LINE"
);
},
{
closed = 1;
nodes = (
"676 879 LINE",
"632 950 LINE",
"95 633 LINE",
"139 562 LINE"
);
}
);
width = 771;
}
);
leftKerningGroup = lslash;
rightKerningGroup = lslash;
unicode = 0142;
},
{
color = 1;
glyphname = m;
lastChange = "2019-12-17 01:54:24 +0000";
layers = (
{
anchors = (
{
name = bottom;
position = "{951, 0}";
},
{
name = top;
position = "{951, 1006}";
}
);
layerId = "66066CCB-AAC9-4485-8967-3F6B885ABFA4";
paths = (
{
closed = 1;
nodes = (
"472 -18 LINE",
"472 502 LINE SMOOTH",
"472 687 OFFCURVE",
"558 841 OFFCURVE",
"667 841 CURVE SMOOTH",
"763 841 OFFCURVE",
"803 754 OFFCURVE",
"803 563 CURVE SMOOTH",
"803 -18 LINE",
"1164 -18 LINE",
"1164 502 LINE SMOOTH",
"1164 707 OFFCURVE",
"1223 828 OFFCURVE",
"1331 828 CURVE SMOOTH",
"1423 828 OFFCURVE",
"1449 763 OFFCURVE",
"1449 563 CURVE SMOOTH",
"1449 -18 LINE",
"1811 -18 LINE",
"1811 646 LINE SMOOTH",
"1811 891 OFFCURVE",
"1654 1046 OFFCURVE",
"1401 1046 CURVE SMOOTH",
"1196 1046 OFFCURVE",
"1119 965 OFFCURVE",
"939 638 CURVE",
"1161 642 LINE",
"1138 899 OFFCURVE",
"979 1046 OFFCURVE",
"741 1046 CURVE SMOOTH",
"557 1046 OFFCURVE",
"462 968 OFFCURVE",
"340 735 CURVE",
"475 512 LINE",
"475 1021 LINE",
"111 1021 LINE",
"111 -18 LINE"
);
}
);
width = 1901;
},
{
anchors = (
{
name = bottom;
position = "{883, 0}";
},
{
name = top;
position = "{883, 989}";
}
);
layerId = "B71E0DD6-B640-4F5E-B48D-BF5E04BC2E71";
paths = (
{
closed = 1;
nodes = (
"216 0 LINE",
"216 571 LINE SMOOTH",
"216 799 OFFCURVE",
"350 936 OFFCURVE",
"575 936 CURVE SMOOTH",
"767 936 OFFCURVE",
"847 845 OFFCURVE",
"847 631 CURVE SMOOTH",
"847 0 LINE",
"933 0 LINE",
"933 571 LINE SMOOTH",
"933 800 OFFCURVE",
"1063 933 OFFCURVE",
"1288 933 CURVE SMOOTH",
"1480 933 OFFCURVE",
"1558 844 OFFCURVE",
"1558 631 CURVE SMOOTH",
"1558 1 LINE",
"1644 1 LINE",
"1644 658 LINE SMOOTH",
"1644 895 OFFCURVE",
"1531 1016 OFFCURVE",
"1305 1016 CURVE SMOOTH",
"1072 1016 OFFCURVE",
"924 893 OFFCURVE",
"897 673 CURVE",
"929 671 LINE",
"922 903 OFFCURVE",
"811 1016 OFFCURVE",
"592 1016 CURVE SMOOTH",
"373 1016 OFFCURVE",
"230 905 OFFCURVE",
"193 705 CURVE",
"216 659 LINE",
"216 990 LINE",
"130 990 LINE",
"130 0 LINE"
);
}
);
width = 1766;
}
);
leftKerningGroup = n;
note = m;
rightKerningGroup = n;
unicode = 006D;
},
{
color = 1;
glyphname = n;
lastChange = "2019-12-17 01:54:24 +0000";
layers = (
{
anchors = (
{
name = bottom;
position = "{626, 0}";
},
{
name = top;
position = "{626, 1006}";
}
);
layerId = "66066CCB-AAC9-4485-8967-3F6B885ABFA4";
paths = (
{
closed = 1;
nodes = (
"479 -1 LINE",
"479 518 LINE SMOOTH",
"479 693 OFFCURVE",
"587 855 OFFCURVE",
"705 855 CURVE SMOOTH",
"785 855 OFFCURVE",
"795 806 OFFCURVE",
"795 594 CURVE SMOOTH",
"795 -1 LINE",
"1173 -1 LINE",
"1173 657 LINE SMOOTH",
"1173 905 OFFCURVE",
"1009 1062 OFFCURVE",
"748 1062 CURVE SMOOTH",
"539 1062 OFFCURVE",
"430 970 OFFCURVE",
"346 734 CURVE",
"475 445 LINE",
"479 1037 LINE",
"101 1037 LINE",
"101 -1 LINE"
);
}
);
width = 1252;
},
{
anchors = (
{
name = bottom;
position = "{518, 0}";
},
{
name = top;
position = "{518, 989}";
}
);
background = {
anchors = (
{
name = bottom;
position = "{478, 0}";
},
{
name = top;
position = "{478, 914}";
}
);
paths = (
{
closed = 1;
nodes = (
"196 0 LINE",
"196 549 LINE SMOOTH",
"196 756 OFFCURVE",
"357 946 OFFCURVE",
"549 946 CURVE SMOOTH",
"723 946 OFFCURVE",
"857 830 OFFCURVE",
"857 596 CURVE SMOOTH",
"857 0 LINE",
"932 0 LINE",
"932 593 LINE SMOOTH",
"932 879 OFFCURVE",
"777 1015 OFFCURVE",
"559 1015 CURVE SMOOTH",
"373 1015 OFFCURVE",
"193 884 OFFCURVE",
"164 662 CURVE",
"196 691 LINE",
"196 989 LINE",
"121 989 LINE",
"121 0 LINE"
);
}
);
};
layerId = "B71E0DD6-B640-4F5E-B48D-BF5E04BC2E71";
paths = (
{
closed = 1;
nodes = (
"216 0 LINE",
"216 571 LINE SMOOTH",
"216 796 OFFCURVE",
"341 935 OFFCURVE",
"543 935 CURVE SMOOTH",
"743 935 OFFCURVE",
"829 827 OFFCURVE",
"829 580 CURVE SMOOTH",
"829 0 LINE",
"915 0 LINE",
"915 587 LINE SMOOTH",
"915 874 OFFCURVE",
"797 1016 OFFCURVE",
"556 1016 CURVE SMOOTH",
"346 1016 OFFCURVE",
"206 882 OFFCURVE",
"190 661 CURVE",
"216 668 LINE",
"216 990 LINE",
"130 990 LINE",
"130 0 LINE"
);
}
);
width = 1036;
}
);
leftKerningGroup = n;
note = n;
rightKerningGroup = n;
unicode = 006E;
},
{
glyphname = eng;
lastChange = "2019-12-17 05:43:10 +0000";
layers = (
{
layerId = "66066CCB-AAC9-4485-8967-3F6B885ABFA4";
paths = (
{
closed = 1;
nodes = (
"1080 -447 OFFCURVE",
"1171 -313 OFFCURVE",
"1171 32 CURVE SMOOTH",
"1171 651 LINE SMOOTH",
"1171 893 OFFCURVE",
"1001 1046 OFFCURVE",
"732 1046 CURVE SMOOTH",
"612 1046 OFFCURVE",
"525 1029 OFFCURVE",
"366 958 CURVE",
"462 846 LINE",
"462 1021 LINE",
"102 1021 LINE",
"102 -18 LINE",
"464 -18 LINE",
"464 502 LINE SMOOTH",
"464 690 OFFCURVE",
"552 841 OFFCURVE",
"707 841 CURVE SMOOTH",
"797 841 OFFCURVE",
"810 795 OFFCURVE",
"810 566 CURVE SMOOTH",
"810 147 LINE SMOOTH",
"810 -12 OFFCURVE",
"882 -162 OFFCURVE",
"796 -225 CURVE",
"830 -236 OFFCURVE",
"745 -247 OFFCURVE",
"745 -205 CURVE SMOOTH",
"745 -175 OFFCURVE",
"759 -92 OFFCURVE",
"791 -11 CURVE",
"528 -11 LINE",
"516 -77 OFFCURVE",
"508 -148 OFFCURVE",
"508 -182 CURVE SMOOTH",
"508 -358 OFFCURVE",
"634 -447 OFFCURVE",
"844 -447 CURVE SMOOTH"
);
}
);
width = 1251;
},
{
background = {
paths = (
{
closed = 1;
nodes = (
"935 -470 OFFCURVE",
"935 -250 OFFCURVE",
"935 -52 CURVE SMOOTH",
"935 658 LINE SMOOTH",
"935 894 OFFCURVE",
"821 1016 OFFCURVE",
"594 1016 CURVE SMOOTH",
"371 1016 OFFCURVE",
"228 904 OFFCURVE",
"193 702 CURVE",
"216 654 LINE",
"216 990 LINE",
"130 990 LINE",
"130 1 LINE",
"216 1 LINE",
"216 571 LINE SMOOTH",
"216 803 OFFCURVE",
"349 936 OFFCURVE",
"581 936 CURVE SMOOTH",
"772 936 OFFCURVE",
"849 847 OFFCURVE",
"849 631 CURVE SMOOTH",
"849 -52 LINE SMOOTH",
"849 -317 OFFCURVE",
"829 -382 OFFCURVE",
"747 -388 CURVE",
"686 -381 OFFCURVE",
"658 -350 OFFCURVE",
"658 -287 CURVE SMOOTH",
"658 -260 OFFCURVE",
"664 -230 OFFCURVE",
"689 -173 CURVE",
"616 -173 LINE",
"601 -212 OFFCURVE",
"592 -263 OFFCURVE",
"592 -304 CURVE SMOOTH",
"592 -411 OFFCURVE",
"648 -470 OFFCURVE",
"755 -470 CURVE SMOOTH"
);
}
);
};
layerId = "B71E0DD6-B640-4F5E-B48D-BF5E04BC2E71";
paths = (
{
closed = 1;
nodes = (
"926 -418 OFFCURVE",
"915 -197 OFFCURVE",
"915 0 CURVE SMOOTH",
"915 587 LINE SMOOTH",
"915 874 OFFCURVE",
"797 1016 OFFCURVE",
"556 1016 CURVE SMOOTH",
"383 1016 OFFCURVE",
"258 925 OFFCURVE",
"210 770 CURVE",
"216 761 LINE",
"216 990 LINE",
"130 990 LINE",
"130 0 LINE",
"216 0 LINE",
"216 571 LINE SMOOTH",
"216 796 OFFCURVE",
"341 935 OFFCURVE",
"543 935 CURVE SMOOTH",
"743 935 OFFCURVE",
"829 827 OFFCURVE",
"829 580 CURVE SMOOTH",
"829 0 LINE SMOOTH",
"829 -260 OFFCURVE",
"817 -336 OFFCURVE",
"727 -336 CURVE SMOOTH",
"672 -336 OFFCURVE",
"638 -307 OFFCURVE",
"638 -246 CURVE SMOOTH",
"638 -235 OFFCURVE",
"639 -227 OFFCURVE",
"642 -208 CURVE",
"563 -208 LINE",
"560 -219 OFFCURVE",
"557 -232 OFFCURVE",
"557 -252 CURVE SMOOTH",
"557 -363 OFFCURVE",
"639 -418 OFFCURVE",
"735 -418 CURVE SMOOTH"
);
}
);
width = 1036;
}
);
leftKerningGroup = n;
leftMetricsKey = n;
rightKerningGroup = j;
rightMetricsKey = n;
unicode = 014B;
},
{
color = 1;
glyphname = o;
lastChange = "2019-12-17 01:54:24 +0000";
layers = (
{
anchors = (
{
name = bottom;
position = "{605, 0}";
},
{
name = center;
position = "{605, 503}";
},
{
name = ogonek;
position = "{1088, 10}";
},
{
name = top;
position = "{605, 1006}";
},
{
name = topright;
position = "{1189, 1006}";
}
);
layerId = "66066CCB-AAC9-4485-8967-3F6B885ABFA4";
paths = (
{
closed = 1;
nodes = (
"954 -18 OFFCURVE",
"1175 194 OFFCURVE",
"1175 525 CURVE SMOOTH",
"1175 858 OFFCURVE",
"949 1078 OFFCURVE",
"605 1078 CURVE SMOOTH",
"260 1078 OFFCURVE",
"34 858 OFFCURVE",
"34 525 CURVE SMOOTH",
"34 194 OFFCURVE",
"256 -18 OFFCURVE",
"605 -18 CURVE SMOOTH"
);
},
{
closed = 1;
nodes = (
"497 186 OFFCURVE",
"418 332 OFFCURVE",
"418 524 CURVE SMOOTH",
"418 720 OFFCURVE",
"498 874 OFFCURVE",
"605 874 CURVE SMOOTH",
"713 874 OFFCURVE",
"794 713 OFFCURVE",
"794 525 CURVE SMOOTH",
"794 334 OFFCURVE",
"713 186 OFFCURVE",
"605 186 CURVE SMOOTH"
);
}
);
width = 1209;
},
{
anchors = (
{
name = bottom;
position = "{553, 0}";
},
{
name = center;
position = "{553, 495}";
},
{
name = ogonek;
position = "{995, 10}";
},
{
name = top;
position = "{553, 989}";
},
{
name = topright;
position = "{1086, 989}";
}
);
background = {
anchors = (
{
name = bottom;
position = "{551, 0}";
},
{
name = center;
position = "{551, 495}";
},
{
name = ogonek;
position = "{945, 10}";
},
{
name = top;
position = "{551, 989}";
},
{
name = topright;
position = "{1023, 989}";
}
);
paths = (
{
closed = 1;
nodes = (
"817 -24 OFFCURVE",
"1007 190 OFFCURVE",
"1007 492 CURVE SMOOTH",
"1007 795 OFFCURVE",
"814 1015 OFFCURVE",
"550 1015 CURVE SMOOTH",
"284 1015 OFFCURVE",
"95 796 OFFCURVE",
"95 492 CURVE SMOOTH",
"95 189 OFFCURVE",
"283 -24 OFFCURVE",
"550 -24 CURVE SMOOTH"
);
},
{
closed = 1;
nodes = (
"305 48 OFFCURVE",
"175 228 OFFCURVE",
"175 503 CURVE SMOOTH",
"175 799 OFFCURVE",
"334 946 OFFCURVE",
"550 946 CURVE SMOOTH",
"788 946 OFFCURVE",
"928 773 OFFCURVE",
"928 492 CURVE SMOOTH",
"928 203 OFFCURVE",
"777 48 OFFCURVE",
"550 48 CURVE SMOOTH"
);
}
);
};
layerId = "B71E0DD6-B640-4F5E-B48D-BF5E04BC2E71";
paths = (
{
closed = 1;
nodes = (
"820 -28 OFFCURVE",
"1001 179 OFFCURVE",
"1001 482 CURVE SMOOTH",
"1001 791 OFFCURVE",
"814 1016 OFFCURVE",
"552 1016 CURVE SMOOTH",
"291 1016 OFFCURVE",
"105 792 OFFCURVE",
"105 482 CURVE SMOOTH",
"105 178 OFFCURVE",
"285 -28 OFFCURVE",
"552 -28 CURVE SMOOTH"
);
},
{
closed = 1;
nodes = (
"337 54 OFFCURVE",
"202 221 OFFCURVE",
"202 491 CURVE SMOOTH",
"202 758 OFFCURVE",
"342 935 OFFCURVE",
"552 935 CURVE SMOOTH",
"761 935 OFFCURVE",
"902 753 OFFCURVE",
"902 482 CURVE SMOOTH",
"902 215 OFFCURVE",
"770 54 OFFCURVE",
"552 54 CURVE SMOOTH"
);
}
);
width = 1106;
}
);
leftKerningGroup = o;
note = o;
rightKerningGroup = o;
unicode = 006F;
},
{
color = 1;
glyphname = p;
lastChange = "2019-12-17 01:54:24 +0000";
layers = (
{
anchors = (
{
name = bottom;
position = "{626, 0}";
},
{
name = top;
position = "{626, 1006}";
}
);
layerId = "66066CCB-AAC9-4485-8967-3F6B885ABFA4";
paths = (
{
closed = 1;
nodes = (
"438 -505 LINE",
"438 441 LINE",
"317 365 LINE",
"385 63 OFFCURVE",
"475 -43 OFFCURVE",
"698 -43 CURVE SMOOTH",
"1013 -43 OFFCURVE",
"1213 174 OFFCURVE",
"1213 513 CURVE SMOOTH",
"1213 848 OFFCURVE",
"1018 1066 OFFCURVE",
"715 1066 CURVE SMOOTH",
"480 1066 OFFCURVE",
"366 951 OFFCURVE",
"302 669 CURVE",
"434 581 LINE",
"434 1045 LINE",
"76 1045 LINE",
"76 -505 LINE"
);
},
{
closed = 1;
nodes = (
"528 162 OFFCURVE",
"423 318 OFFCURVE",
"423 516 CURVE SMOOTH",
"423 713 OFFCURVE",
"524 862 OFFCURVE",
"661 862 CURVE SMOOTH",
"790 862 OFFCURVE",
"847 753 OFFCURVE",
"847 508 CURVE SMOOTH",
"847 270 OFFCURVE",
"792 162 OFFCURVE",
"666 162 CURVE SMOOTH"
);
}
);
width = 1252;
},
{
anchors = (
{
name = bottom;
position = "{563, 0}";
},
{
name = top;
position = "{563, 989}";
}
);
layerId = "B71E0DD6-B640-4F5E-B48D-BF5E04BC2E71";
paths = (
{
closed = 1;
nodes = (
"222 -526 LINE",
"222 364 LINE",
"182 339 LINE",
"239 110 OFFCURVE",
"391 -25 OFFCURVE",
"591 -25 CURVE SMOOTH",
"846 -25 OFFCURVE",
"1021 195 OFFCURVE",
"1021 509 CURVE SMOOTH",
"1021 815 OFFCURVE",
"850 1019 OFFCURVE",
"590 1019 CURVE SMOOTH",
"385 1019 OFFCURVE",
"238 896 OFFCURVE",
"182 677 CURVE",
"221 651 LINE",
"221 991 LINE",
"136 991 LINE",
"136 -526 LINE"
);
},
{
closed = 1;
nodes = (
"368 56 OFFCURVE",
"224 234 OFFCURVE",
"224 509 CURVE SMOOTH",
"224 775 OFFCURVE",
"363 939 OFFCURVE",
"586 939 CURVE SMOOTH",
"806 939 OFFCURVE",
"935 777 OFFCURVE",
"935 499 CURVE SMOOTH",
"935 221 OFFCURVE",
"805 56 OFFCURVE",
"587 56 CURVE SMOOTH"
);
}
);
width = 1126;
}
);
leftKerningGroup = p;
note = p;
rightKerningGroup = o;
unicode = 0070;
},
{
color = 1;
glyphname = thorn;
lastChange = "2019-12-17 01:54:24 +0000";
layers = (
{
anchors = (
{
name = bottom;
position = "{660, 0}";
},
{
name = top;
position = "{660, 1006}";
}
);
layerId = "66066CCB-AAC9-4485-8967-3F6B885ABFA4";
paths = (
{
closed = 1;
nodes = (
"496 -505 LINE",
"496 441 LINE",
"377 365 LINE",
"441 66 OFFCURVE",
"535 -43 OFFCURVE",
"757 -43 CURVE SMOOTH",
"1073 -43 OFFCURVE",
"1271 174 OFFCURVE",
"1271 513 CURVE SMOOTH",
"1271 848 OFFCURVE",
"1077 1066 OFFCURVE",
"773 1066 CURVE SMOOTH",
"538 1066 OFFCURVE",
"424 951 OFFCURVE",
"360 669 CURVE",
"492 581 LINE",
"492 1597 LINE",
"135 1597 LINE",
"135 -505 LINE"
);
},
{
closed = 1;
nodes = (
"586 162 OFFCURVE",
"481 317 OFFCURVE",
"481 516 CURVE SMOOTH",
"481 712 OFFCURVE",
"582 862 OFFCURVE",
"719 862 CURVE SMOOTH",
"848 862 OFFCURVE",
"905 752 OFFCURVE",
"905 508 CURVE SMOOTH",
"905 269 OFFCURVE",
"850 162 OFFCURVE",
"724 162 CURVE SMOOTH"
);
}
);
width = 1320;
},
{
anchors = (
{
name = bottom;
position = "{566, 0}";
},
{
name = top;
position = "{566, 989}";
}
);
layerId = "B71E0DD6-B640-4F5E-B48D-BF5E04BC2E71";
paths = (
{
closed = 1;
nodes = (
"228 -526 LINE",
"228 364 LINE",
"188 339 LINE",
"245 109 OFFCURVE",
"396 -25 OFFCURVE",
"597 -25 CURVE SMOOTH",
"852 -25 OFFCURVE",
"1027 195 OFFCURVE",
"1027 509 CURVE SMOOTH",
"1027 815 OFFCURVE",
"856 1019 OFFCURVE",
"596 1019 CURVE SMOOTH",
"390 1019 OFFCURVE",
"244 897 OFFCURVE",
"188 677 CURVE",
"227 651 LINE",
"227 1514 LINE",
"142 1514 LINE",
"142 -526 LINE"
);
},
{
closed = 1;
nodes = (
"374 56 OFFCURVE",
"230 234 OFFCURVE",
"230 509 CURVE SMOOTH",
"230 775 OFFCURVE",
"369 939 OFFCURVE",
"592 939 CURVE SMOOTH",
"812 939 OFFCURVE",
"941 777 OFFCURVE",
"941 499 CURVE SMOOTH",
"941 221 OFFCURVE",
"811 56 OFFCURVE",
"593 56 CURVE SMOOTH"
);
}
);
width = 1132;
}
);
leftKerningGroup = h;
note = thorn;
rightKerningGroup = o;
unicode = 00FE;
},
{
color = 1;
glyphname = q;
lastChange = "2019-12-17 01:54:24 +0000";
layers = (
{
anchors = (
{
name = bottom;
position = "{658, 0}";
},
{
name = top;
position = "{658, 1006}";
}
);
layerId = "66066CCB-AAC9-4485-8967-3F6B885ABFA4";
paths = (
{
closed = 1;
nodes = (
"1188 -505 LINE",
"1188 1045 LINE",
"830 1045 LINE",
"830 581 LINE",
"962 669 LINE",
"898 951 OFFCURVE",
"784 1066 OFFCURVE",
"550 1066 CURVE SMOOTH",
"246 1066 OFFCURVE",
"52 849 OFFCURVE",
"52 513 CURVE SMOOTH",
"52 175 OFFCURVE",
"252 -43 OFFCURVE",
"565 -43 CURVE SMOOTH",
"789 -43 OFFCURVE",
"878 61 OFFCURVE",
"947 365 CURVE",
"826 441 LINE",
"826 -505 LINE"
);
},
{
closed = 1;
nodes = (
"473 162 OFFCURVE",
"418 269 OFFCURVE",
"418 508 CURVE SMOOTH",
"418 753 OFFCURVE",
"474 862 OFFCURVE",
"603 862 CURVE SMOOTH",
"741 862 OFFCURVE",
"841 713 OFFCURVE",
"841 516 CURVE SMOOTH",
"841 317 OFFCURVE",
"736 162 OFFCURVE",
"598 162 CURVE SMOOTH"
);
}
);
width = 1315;
},
{
anchors = (
{
name = bottom;
position = "{563, 0}";
},
{
name = top;
position = "{563, 989}";
}
);
layerId = "B71E0DD6-B640-4F5E-B48D-BF5E04BC2E71";
paths = (
{
closed = 1;
nodes = (
"990 -526 LINE",
"990 991 LINE",
"905 991 LINE",
"905 651 LINE",
"945 676 LINE",
"889 896 OFFCURVE",
"742 1019 OFFCURVE",
"536 1019 CURVE SMOOTH",
"276 1019 OFFCURVE",
"105 816 OFFCURVE",
"105 509 CURVE SMOOTH",
"105 195 OFFCURVE",
"281 -25 OFFCURVE",
"535 -25 CURVE SMOOTH",
"736 -25 OFFCURVE",
"887 109 OFFCURVE",
"944 338 CURVE",
"905 364 LINE",
"905 -526 LINE"
);
},
{
closed = 1;
nodes = (
"322 56 OFFCURVE",
"191 221 OFFCURVE",
"191 499 CURVE SMOOTH",
"191 776 OFFCURVE",
"320 939 OFFCURVE",
"540 939 CURVE SMOOTH",
"763 939 OFFCURVE",
"903 775 OFFCURVE",
"903 509 CURVE SMOOTH",
"903 234 OFFCURVE",
"759 56 OFFCURVE",
"539 56 CURVE SMOOTH"
);
}
);
width = 1126;
}
);
leftKerningGroup = o;
note = q;
rightKerningGroup = q;
unicode = 0071;
},
{
color = 1;
glyphname = r;
lastChange = "2019-12-17 01:54:24 +0000";
layers = (
{
anchors = (
{
name = bottom;
position = "{486, 0}";
},
{
name = top;
position = "{486, 1006}";
}
);
layerId = "66066CCB-AAC9-4485-8967-3F6B885ABFA4";
paths = (
{
closed = 1;
nodes = (
"472 -18 LINE",
"472 623 LINE SMOOTH",
"472 721 OFFCURVE",
"563 839 OFFCURVE",
"666 839 CURVE SMOOTH",
"717 839 OFFCURVE",
"704 869 OFFCURVE",
"704 813 CURVE SMOOTH",
"704 739 OFFCURVE",
"719 819 OFFCURVE",
"607 648 CURVE",
"911 579 LINE",
"932 686 OFFCURVE",
"941 744 OFFCURVE",
"941 783 CURVE SMOOTH",
"941 941 OFFCURVE",
"832 1046 OFFCURVE",
"673 1046 CURVE SMOOTH",
"510 1046 OFFCURVE",
"445 924 OFFCURVE",
"348 513 CURVE",
"472 644 LINE",
"472 1021 LINE",
"111 1021 LINE",
"111 -18 LINE"
);
}
);
width = 972;
},
{
anchors = (
{
name = bottom;
position = "{436, 0}";
},
{
name = top;
position = "{436, 989}";
}
);
layerId = "B71E0DD6-B640-4F5E-B48D-BF5E04BC2E71";
paths = (
{
closed = 1;
nodes = (
"216 0 LINE",
"216 607 LINE SMOOTH",
"216 804 OFFCURVE",
"336 935 OFFCURVE",
"511 935 CURVE SMOOTH",
"620 935 OFFCURVE",
"696 901 OFFCURVE",
"696 822 CURVE SMOOTH",
"696 801 OFFCURVE",
"691 753 OFFCURVE",
"674 720 CURVE",
"739 704 LINE",
"751 719 OFFCURVE",
"772 763 OFFCURVE",
"772 817 CURVE SMOOTH",
"772 939 OFFCURVE",
"667 1016 OFFCURVE",
"526 1016 CURVE SMOOTH",
"344 1016 OFFCURVE",
"213 886 OFFCURVE",
"188 677 CURVE",
"216 662 LINE",
"216 990 LINE",
"130 990 LINE",
"130 0 LINE"
);
}
);
width = 871;
}
);
leftKerningGroup = n;
note = r;
rightKerningGroup = r;
unicode = 0072;
},
{
color = 1;
glyphname = s;
lastChange = "2019-12-17 01:54:24 +0000";
layers = (
{
anchors = (
{
name = bottom;
position = "{504, 0}";
},
{
name = top;
position = "{504, 1006}";
}
);
layerId = "66066CCB-AAC9-4485-8967-3F6B885ABFA4";
paths = (
{
closed = 1;
nodes = (
"809 -36 OFFCURVE",
"958 71 OFFCURVE",
"958 309 CURVE SMOOTH",
"958 535 OFFCURVE",
"801 677 OFFCURVE",
"516 722 CURVE SMOOTH",
"361 747 OFFCURVE",
"349 761 OFFCURVE",
"349 791 CURVE SMOOTH",
"349 838 OFFCURVE",
"378 859 OFFCURVE",
"499 859 CURVE SMOOTH",
"613 859 OFFCURVE",
"756 822 OFFCURVE",
"901 625 CURVE",
"901 927 LINE",
"761 1024 OFFCURVE",
"650 1062 OFFCURVE",
"500 1062 CURVE SMOOTH",
"230 1062 OFFCURVE",
"76 945 OFFCURVE",
"76 737 CURVE SMOOTH",
"76 552 OFFCURVE",
"212 428 OFFCURVE",
"459 375 CURVE SMOOTH",
"624 341 OFFCURVE",
"650 319 OFFCURVE",
"650 262 CURVE SMOOTH",
"650 195 OFFCURVE",
"604 169 OFFCURVE",
"482 169 CURVE SMOOTH",
"325 169 OFFCURVE",
"213 252 OFFCURVE",
"59 474 CURVE",
"59 137 LINE",
"170 9 OFFCURVE",
"289 -36 OFFCURVE",
"494 -36 CURVE SMOOTH"
);
}
);
width = 1007;
},
{
anchors = (
{
name = bottom;
position = "{443, 0}";
},
{
name = top;
position = "{443, 989}";
}
);
background = {
anchors = (
{
name = bottom;
position = "{416, 0}";
},
{
name = top;
position = "{416, 989}";
}
);
paths = (
{
closed = 1;
nodes = (
"606 -24 OFFCURVE",
"748 76 OFFCURVE",
"748 275 CURVE SMOOTH",
"748 421 OFFCURVE",
"641 506 OFFCURVE",
"406 557 CURVE SMOOTH",
"214 599 OFFCURVE",
"182 671 OFFCURVE",
"182 757 CURVE SMOOTH",
"182 902 OFFCURVE",
"285 950 OFFCURVE",
"418 948 CURVE SMOOTH",
"529 947 OFFCURVE",
"590 912 OFFCURVE",
"674 839 CURVE",
"674 918 LINE",
"588 981 OFFCURVE",
"520 1015 OFFCURVE",
"419 1015 CURVE SMOOTH",
"235 1015 OFFCURVE",
"103 901 OFFCURVE",
"103 732 CURVE SMOOTH",
"103 594 OFFCURVE",
"159 523 OFFCURVE",
"392 474 CURVE SMOOTH",
"570 437 OFFCURVE",
"665 394 OFFCURVE",
"665 264 CURVE SMOOTH",
"665 129 OFFCURVE",
"579 46 OFFCURVE",
"410 46 CURVE SMOOTH",
"288 46 OFFCURVE",
"204 89 OFFCURVE",
"88 183 CURVE",
"88 93 LINE",
"185 21 OFFCURVE",
"289 -24 OFFCURVE",
"411 -24 CURVE SMOOTH"
);
}
);
};
layerId = "B71E0DD6-B640-4F5E-B48D-BF5E04BC2E71";
paths = (
{
closed = 1;
nodes = (
"648 -25 OFFCURVE",
"785 97 OFFCURVE",
"785 276 CURVE SMOOTH",
"785 432 OFFCURVE",
"664 514 OFFCURVE",
"430 561 CURVE SMOOTH",
"227 602 OFFCURVE",
"200 685 OFFCURVE",
"200 761 CURVE SMOOTH",
"200 893 OFFCURVE",
"313 937 OFFCURVE",
"452 937 CURVE SMOOTH",
"588 937 OFFCURVE",
"666 882 OFFCURVE",
"733 835 CURVE",
"733 933 LINE",
"650 986 OFFCURVE",
"567 1016 OFFCURVE",
"450 1016 CURVE SMOOTH",
"248 1016 OFFCURVE",
"121 918 OFFCURVE",
"121 761 CURVE SMOOTH",
"121 603 OFFCURVE",
"196 526 OFFCURVE",
"418 482 CURVE SMOOTH",
"631 440 OFFCURVE",
"701 363 OFFCURVE",
"701 258 CURVE SMOOTH",
"701 128 OFFCURVE",
"575 57 OFFCURVE",
"412 57 CURVE SMOOTH",
"258 57 OFFCURVE",
"163 126 OFFCURVE",
"103 182 CURVE",
"102 74 LINE",
"178 16 OFFCURVE",
"283 -25 OFFCURVE",
"413 -25 CURVE SMOOTH"
);
}
);
width = 885;
}
);
leftKerningGroup = s;
note = s;
rightKerningGroup = s;
unicode = 0073;
},
{
color = 1;
glyphname = germandbls;
lastChange = "2019-12-17 01:54:24 +0000";
layers = (
{
anchors = (
{
name = bottom;
position = "{759, 0}";
},
{
name = top;
position = "{759, 1006}";
}
);
layerId = "66066CCB-AAC9-4485-8967-3F6B885ABFA4";
paths = (
{
closed = 1;
nodes = (
"1337 -63 OFFCURVE",
"1481 49 OFFCURVE",
"1481 298 CURVE SMOOTH",
"1481 516 OFFCURVE",
"1336 678 OFFCURVE",
"1113 706 CURVE SMOOTH",
"1002 721 OFFCURVE",
"902 762 OFFCURVE",
"902 782 CURVE SMOOTH",
"902 802 OFFCURVE",
"923 808 OFFCURVE",
"1025 865 CURVE SMOOTH",
"1107 911 OFFCURVE",
"1255 987 OFFCURVE",
"1255 1229 CURVE SMOOTH",
"1255 1513 OFFCURVE",
"1077 1653 OFFCURVE",
"721 1653 CURVE SMOOTH",
"368 1653 OFFCURVE",
"197 1499 OFFCURVE",
"197 1175 CURVE SMOOTH",
"197 0 LINE",
"557 0 LINE",
"557 1175 LINE SMOOTH",
"557 1388 OFFCURVE",
"596 1448 OFFCURVE",
"734 1448 CURVE SMOOTH",
"876 1448 OFFCURVE",
"987 1357 OFFCURVE",
"987 1243 CURVE SMOOTH",
"987 1190 OFFCURVE",
"969 1175 OFFCURVE",
"869 1109 CURVE SMOOTH",
"793 1059 OFFCURVE",
"640 1002 OFFCURVE",
"640 764 CURVE SMOOTH",
"640 553 OFFCURVE",
"771 416 OFFCURVE",
"1017 363 CURVE SMOOTH",
"1158 334 OFFCURVE",
"1205 313 OFFCURVE",
"1205 262 CURVE SMOOTH",
"1205 188 OFFCURVE",
"1138 143 OFFCURVE",
"1027 143 CURVE SMOOTH",
"862 143 OFFCURVE",
"781 202 OFFCURVE",
"624 432 CURVE",
"624 123 LINE",
"744 -30 OFFCURVE",
"818 -63 OFFCURVE",
"1027 -63 CURVE SMOOTH"
);
},
{
closed = 1;
nodes = (
"439 818 LINE",
"439 1021 LINE",
"12 1021 LINE",
"12 818 LINE"
);
}
);
width = 1518;
},
{
anchors = (
{
name = bottom;
position = "{605, 0}";
},
{
name = top;
position = "{605, 989}";
}
);
background = {
components = (
{
name = s;
transform = "{1, 0, 0, 1, 293, 0}";
}
);
};
layerId = "B71E0DD6-B640-4F5E-B48D-BF5E04BC2E71";
paths = (
{
closed = 1;
nodes = (
"1006 -28 OFFCURVE",
"1109 71 OFFCURVE",
"1109 277 CURVE SMOOTH",
"1109 439 OFFCURVE",
"984 537 OFFCURVE",
"757 579 CURVE SMOOTH",
"551 617 OFFCURVE",
"538 656 OFFCURVE",
"538 744 CURVE SMOOTH",
"538 840 OFFCURVE",
"615 880 OFFCURVE",
"687 922 CURVE SMOOTH",
"775 974 OFFCURVE",
"911 1024 OFFCURVE",
"911 1214 CURVE SMOOTH",
"911 1404 OFFCURVE",
"789 1532 OFFCURVE",
"582 1532 CURVE SMOOTH",
"377 1532 OFFCURVE",
"262 1395 OFFCURVE",
"262 1114 CURVE SMOOTH",
"262 0 LINE",
"348 0 LINE",
"348 1114 LINE SMOOTH",
"348 1350 OFFCURVE",
"440 1451 OFFCURVE",
"590 1451 CURVE SMOOTH",
"772 1451 OFFCURVE",
"827 1314 OFFCURVE",
"827 1198 CURVE SMOOTH",
"827 1078 OFFCURVE",
"746 1054 OFFCURVE",
"660 1001 CURVE SMOOTH",
"572 947 OFFCURVE",
"459 880 OFFCURVE",
"459 752 CURVE SMOOTH",
"459 584 OFFCURVE",
"515 533 OFFCURVE",
"747 491 CURVE SMOOTH",
"941 456 OFFCURVE",
"1023 378 OFFCURVE",
"1023 258 CURVE SMOOTH",
"1023 126 OFFCURVE",
"925 58 OFFCURVE",
"745 58 CURVE SMOOTH",
"602 58 OFFCURVE",
"529 101 OFFCURVE",
"467 137 CURVE",
"467 29 LINE",
"547 -10 OFFCURVE",
"637 -28 OFFCURVE",
"747 -28 CURVE SMOOTH"
);
},
{
closed = 1;
nodes = (
"289 909 LINE",
"289 988 LINE",
"97 988 LINE",
"97 909 LINE"
);
}
);
width = 1210;
}
);
leftKerningGroup = h;
note = germandbls;
rightKerningGroup = germandbls;
unicode = 00DF;
},
{
color = 1;
glyphname = t;
lastChange = "2019-12-17 02:00:05 +0000";
layers = (
{
anchors = (
{
name = bottom;
position = "{375, 0}";
},
{
name = center;
position = "{375, 495}";
},
{
name = top;
position = "{375, 989}";
},
{
name = topright;
position = "{730, 989}";
}
);
background = {
anchors = (
{
name = bottom;
position = "{380, 0}";
},
{
name = center;
position = "{380, 495}";
},
{
name = top;
position = "{380, 989}";
},
{
name = topright;
position = "{550, 1349}";
}
);
paths = (
{
closed = 1;
nodes = (
"446 -21 OFFCURVE",
"492 -18 OFFCURVE",
"536 -9 CURVE",
"536 69 LINE",
"479 53 OFFCURVE",
"437 49 OFFCURVE",
"403 49 CURVE SMOOTH",
"364 49 OFFCURVE",
"373 122 OFFCURVE",
"373 164 CURVE SMOOTH",
"373 928 LINE",
"499 928 LINE",
"499 989 LINE",
"373 989 LINE",
"373 1259 LINE",
"313 1259 LINE",
"313 1040 OFFCURVE",
"326 999 OFFCURVE",
"191 991 CURVE",
"191 928 LINE",
"293 928 LINE",
"293 190 LINE SMOOTH",
"293 15 OFFCURVE",
"310 -21 OFFCURVE",
"395 -21 CURVE SMOOTH"
);
}
);
};
layerId = "B71E0DD6-B640-4F5E-B48D-BF5E04BC2E71";
paths = (
{
closed = 1;
nodes = (
"504 -27 OFFCURVE",
"593 -14 OFFCURVE",
"652 -1 CURVE",
"652 83 LINE",
"615 76 OFFCURVE",
"544 54 OFFCURVE",
"473 54 CURVE SMOOTH",
"348 54 OFFCURVE",
"363 136 OFFCURVE",
"363 245 CURVE SMOOTH",
"363 906 LINE",
"629 906 LINE",
"629 988 LINE",
"363 988 LINE",
"363 1278 LINE",
"308 1278 LINE",
"310 1010 OFFCURVE",
"325 987 OFFCURVE",
"67 988 CURVE",
"67 906 LINE",
"276 906 LINE",
"276 231 LINE SMOOTH",
"276 135 OFFCURVE",
"267 -27 OFFCURVE",
"447 -27 CURVE SMOOTH"
);
}
);
width = 750;
},
{
anchors = (
{
name = bottom;
position = "{315, 0}";
},
{
name = center;
position = "{315, 503}";
},
{
name = top;
position = "{315, 1006}";
},
{
name = topright;
position = "{609, 1006}";
}
);
layerId = "66066CCB-AAC9-4485-8967-3F6B885ABFA4";
paths = (
{
closed = 1;
nodes = (
"570 -32 OFFCURVE",
"643 -18 OFFCURVE",
"724 27 CURVE",
"724 271 LINE",
"572 179 OFFCURVE",
"563 173 OFFCURVE",
"514 173 CURVE SMOOTH",
"492 173 OFFCURVE",
"520 243 OFFCURVE",
"520 563 CURVE SMOOTH",
"520 819 LINE",
"662 819 LINE",
"662 1020 LINE",
"520 1020 LINE",
"520 1325 LINE",
"325 1325 LINE",
"376 1152 OFFCURVE",
"226 1018 OFFCURVE",
"10 1020 CURVE",
"10 819 LINE",
"157 819 LINE",
"157 255 LINE SMOOTH",
"157 74 OFFCURVE",
"261 -32 OFFCURVE",
"444 -32 CURVE SMOOTH"
);
}
);
width = 629;
}
);
leftKerningGroup = t;
note = t;
rightKerningGroup = t;
unicode = 0074;
},
{
color = 1;
glyphname = u;
lastChange = "2019-12-17 01:54:24 +0000";
layers = (
{
anchors = (
{
name = bottom;
position = "{617, 0}";
},
{
name = ogonek;
position = "{1111, 10}";
},
{
name = top;
position = "{617, 1006}";
},
{
name = topright;
position = "{1214, 1006}";
}
);
layerId = "66066CCB-AAC9-4485-8967-3F6B885ABFA4";
paths = (
{
closed = 1;
nodes = (
"764 1021 LINE",
"764 494 LINE SMOOTH",
"764 334 OFFCURVE",
"644 162 OFFCURVE",
"528 162 CURVE SMOOTH",
"444 162 OFFCURVE",
"450 193 OFFCURVE",
"450 461 CURVE SMOOTH",
"450 1021 LINE",
"89 1021 LINE",
"89 328 LINE SMOOTH",
"89 116 OFFCURVE",
"259 -43 OFFCURVE",
"481 -43 CURVE SMOOTH",
"642 -43 OFFCURVE",
"728 38 OFFCURVE",
"812 256 CURVE",
"768 598 LINE",
"764 -18 LINE",
"1125 -18 LINE",
"1125 1021 LINE"
);
}
);
width = 1234;
},
{
anchors = (
{
name = bottom;
position = "{537, 0}";
},
{
name = ogonek;
position = "{966, 10}";
},
{
name = top;
position = "{537, 989}";
},
{
name = topright;
position = "{1053, 989}";
}
);
layerId = "B71E0DD6-B640-4F5E-B48D-BF5E04BC2E71";
paths = (
{
closed = 1;
nodes = (
"857 989 LINE",
"857 524 LINE SMOOTH",
"857 216 OFFCURVE",
"727 54 OFFCURVE",
"483 54 CURVE SMOOTH",
"268 54 OFFCURVE",
"208 178 OFFCURVE",
"208 362 CURVE SMOOTH",
"208 989 LINE",
"122 989 LINE",
"122 327 LINE SMOOTH",
"122 101 OFFCURVE",
"246 -27 OFFCURVE",
"471 -27 CURVE SMOOTH",
"703 -27 OFFCURVE",
"845 106 OFFCURVE",
"888 404 CURVE",
"857 353 LINE",
"857 0 LINE",
"943 0 LINE",
"943 989 LINE"
);
}
);
width = 1073;
}
);
leftKerningGroup = u;
note = u;
rightKerningGroup = u;
unicode = 0075;
},
{
color = 1;
glyphname = v;
lastChange = "2019-12-17 01:54:24 +0000";
layers = (
{
anchors = (
{
name = bottom;
position = "{575, 0}";
},
{
name = top;
position = "{575, 1006}";
}
);
layerId = "66066CCB-AAC9-4485-8967-3F6B885ABFA4";
paths = (
{
closed = 1;
nodes = (
"625 -75 LINE",
"1180 1038 LINE",
"957 1038 LINE",
"586 347 LINE",
"738 317 LINE",
"360 1038 LINE",
"-29 1038 LINE",
"514 -75 LINE"
);
}
);
width = 1150;
},
{
anchors = (
{
name = bottom;
position = "{562, 0}";
},
{
name = top;
position = "{562, 989}";
}
);
guideLines = (
{
angle = 246.2505;
position = "{803, 525}";
},
{
angle = 114.2118;
position = "{188, 689}";
},
{
angle = 246.4287;
position = "{791, 524}";
}
);
layerId = "B71E0DD6-B640-4F5E-B48D-BF5E04BC2E71";
paths = (
{
closed = 1;
nodes = (
"569 -47 LINE",
"1028 989 LINE",
"950 989 LINE",
"530 41 LINE",
"618 78 LINE",
"207 991 LINE",
"96 989 LINE",
"564 -47 LINE"
);
}
);
width = 1124;
}
);
leftKerningGroup = v;
note = v;
rightKerningGroup = v;
unicode = 0076;
},
{
color = 1;
glyphname = w;
lastChange = "2019-12-17 01:54:24 +0000";
layers = (
{
anchors = (
{
name = bottom;
position = "{877, 0}";
},
{
name = top;
position = "{877, 1006}";
}
);
layerId = "66066CCB-AAC9-4485-8967-3F6B885ABFA4";
paths = (
{
closed = 1;
nodes = (
"1231 -92 LINE",
"1784 1021 LINE",
"1561 1021 LINE",
"1192 334 LINE",
"1344 297 LINE",
"966 1021 LINE",
"577 1021 LINE",
"1119 -92 LINE"
);
},
{
closed = 1;
nodes = (
"624 -92 LINE",
"967 609 LINE",
"855 852 LINE",
"589 334 LINE",
"737 296 LINE",
"360 1021 LINE",
"-29 1021 LINE",
"513 -92 LINE"
);
},
{
closed = 1;
nodes = (
"1207 1021 LINE",
"979 1021 LINE",
"847 787 LINE",
"1017 669 LINE"
);
}
);
width = 1754;
},
{
anchors = (
{
name = bottom;
position = "{772, 0}";
},
{
name = top;
position = "{772, 989}";
}
);
background = {
paths = (
{
closed = 1;
nodes = (
"1069 -77 LINE",
"1558 990 LINE",
"1520 990 LINE",
"1002 -146 LINE",
"1118 44 LINE",
"676 990 LINE",
"566 990 LINE",
"1063 -77 LINE"
);
},
{
closed = 1;
nodes = (
"501 -77 LINE",
"803 581 LINE",
"785 624 LINE",
"446 -119 LINE",
"551 42 LINE",
"109 990 LINE",
"-2 990 LINE",
"496 -77 LINE"
);
},
{
closed = 1;
nodes = (
"1000 990 LINE",
"962 990 LINE",
"793 622 LINE",
"813 587 LINE"
);
}
);
};
layerId = "B71E0DD6-B640-4F5E-B48D-BF5E04BC2E71";
paths = (
{
closed = 1;
nodes = (
"1009 -47 LINE",
"1448 989 LINE",
"1374 989 LINE",
"974 41 LINE",
"1057 78 LINE",
"667 991 LINE",
"558 989 LINE",
"1004 -47 LINE"
);
},
{
closed = 1;
nodes = (
"548 -47 LINE",
"791 524 LINE",
"753 611 LINE",
"513 41 LINE",
"596 78 LINE",
"205 991 LINE",
"96 989 LINE",
"543 -47 LINE"
);
},
{
closed = 1;
nodes = (
"987 989 LINE",
"913 989 LINE",
"756 611 LINE",
"794 524 LINE"
);
}
);
width = 1544;
}
);
leftKerningGroup = w;
note = w;
rightKerningGroup = w;
unicode = 0077;
},
{
color = 1;
glyphname = x;
lastChange = "2019-12-17 01:54:24 +0000";
layers = (
{
anchors = (
{
name = bottom;
position = "{529, 0}";
},
{
name = top;
position = "{529, 1006}";
}
);
layerId = "66066CCB-AAC9-4485-8967-3F6B885ABFA4";
paths = (
{
closed = 1;
nodes = (
"1101 -18 LINE",
"389 1021 LINE",
"-45 1021 LINE",
"668 -18 LINE"
);
},
{
closed = 1;
nodes = (
"206 -18 LINE",
"567 413 LINE",
"454 601 LINE",
"-54 -18 LINE"
);
},
{
closed = 1;
nodes = (
"1093 1021 LINE",
"838 1021 LINE",
"488 602 LINE",
"607 422 LINE"
);
}
);
width = 1057;
},
{
anchors = (
{
name = bottom;
position = "{533, 0}";
},
{
name = top;
position = "{533, 989}";
}
);
layerId = "B71E0DD6-B640-4F5E-B48D-BF5E04BC2E71";
paths = (
{
closed = 1;
nodes = (
"970 0 LINE",
"233 989 LINE",
"103 989 LINE",
"840 0 LINE"
);
},
{
closed = 1;
nodes = (
"187 0 LINE",
"551 487 LINE",
"485 527 LINE",
"96 0 LINE"
);
},
{
closed = 1;
nodes = (
"931 989 LINE",
"837 989 LINE",
"512 547 LINE",
"565 492 LINE"
);
}
);
width = 1065;
}
);
leftKerningGroup = x;
note = x;
rightKerningGroup = x;
unicode = 0078;
},
{
color = 1;
glyphname = y;
lastChange = "2019-12-17 01:54:24 +0000";
layers = (
{
anchors = (
{
name = bottom;
position = "{530, 0}";
},
{
name = top;
position = "{530, 1006}";
}
);
guideLines = (
{
angle = 250.697;
position = "{683, 634}";
}
);
layerId = "66066CCB-AAC9-4485-8967-3F6B885ABFA4";
paths = (
{
closed = 1;
nodes = (
"455 -544 OFFCURVE",
"510 -379 OFFCURVE",
"564 -235 CURVE SMOOTH",
"693 117 OFFCURVE",
"737 231 OFFCURVE",
"843 512 CURVE",
"1079 1020 LINE",
"851 1021 LINE",
"579 371 LINE",
"712 351 LINE",
"361 1021 LINE",
"-27 1021 LINE",
"509 -86 LINE",
"488 98 LINE",
"395 -123 LINE SMOOTH",
"361 -204 OFFCURVE",
"361 -352 OFFCURVE",
"274 -352 CURVE SMOOTH",
"247 -352 OFFCURVE",
"165 -353 OFFCURVE",
"242 -289 CURVE",
"46 -289 LINE",
"44 -474 OFFCURVE",
"112 -544 OFFCURVE",
"280 -544 CURVE SMOOTH"
);
}
);
width = 1059;
},
{
anchors = (
{
name = bottom;
position = "{547, 0}";
},
{
name = top;
position = "{547, 989}";
}
);
guideLines = (
{
angle = 69.7563;
position = "{743, 419}";
},
{
angle = 66.1043;
position = "{799, 471}";
}
);
layerId = "B71E0DD6-B640-4F5E-B48D-BF5E04BC2E71";
paths = (
{
closed = 1;
nodes = (
"374 -554 OFFCURVE",
"403 -502 OFFCURVE",
"449 -376 CURVE SMOOTH",
"487 -272 OFFCURVE",
"529 -157 OFFCURVE",
"569 -47 CURVE",
"998 989 LINE",
"920 989 LINE",
"570 137 LINE",
"591 137 LINE",
"207 991 LINE",
"96 989 LINE",
"538 9 LINE",
"536 59 LINE",
"437 -217 LINE SMOOTH",
"357 -439 OFFCURVE",
"358 -481 OFFCURVE",
"287 -481 CURVE SMOOTH",
"244 -481 OFFCURVE",
"213 -450 OFFCURVE",
"214 -404 CURVE",
"146 -404 LINE",
"150 -496 OFFCURVE",
"212 -554 OFFCURVE",
"288 -554 CURVE SMOOTH"
);
}
);
width = 1094;
}
);
leftKerningGroup = y;
note = y;
rightKerningGroup = y;
unicode = 0079;
},
{
color = 1;
glyphname = z;
lastChange = "2019-12-17 01:54:24 +0000";
layers = (
{
anchors = (
{
name = bottom;
position = "{530, 0}";
},
{
name = center;
position = "{530, 503}";
},
{
name = top;
position = "{530, 1006}";
}
);
layerId = "66066CCB-AAC9-4485-8967-3F6B885ABFA4";
paths = (
{
closed = 1;
nodes = (
"1007 -18 LINE",
"1007 187 LINE",
"368 187 LINE",
"439 41 LINE",
"1097 1021 LINE",
"66 1021 LINE",
"66 818 LINE",
"689 818 LINE",
"615 962 LINE",
"-42 -18 LINE"
);
}
);
width = 1059;
},
{
anchors = (
{
name = bottom;
position = "{488, 0}";
},
{
name = center;
position = "{488, 495}";
},
{
name = top;
position = "{488, 989}";
}
);
layerId = "B71E0DD6-B640-4F5E-B48D-BF5E04BC2E71";
paths = (
{
closed = 1;
nodes = (
"852 0 LINE",
"852 84 LINE",
"183 84 LINE",
"213 21 LINE",
"879 989 LINE",
"136 989 LINE",
"136 905 LINE",
"765 905 LINE",
"760 966 LINE",
"95 0 LINE"
);
}
);
width = 976;
}
);
leftKerningGroup = z;
note = z;
rightKerningGroup = z;
unicode = 007A;
},
{
color = 1;
glyphname = m.rvrn;
lastChange = "2019-12-17 01:54:24 +0000";
layers = (
{
anchors = (
{
name = bottom;
position = "{950, 0}";
},
{
name = top;
position = "{950, 1006}";
}
);
layerId = "66066CCB-AAC9-4485-8967-3F6B885ABFA4";
paths = (
{
closed = 1;
nodes = (
"472 0 LINE",
"472 502 LINE SMOOTH",
"472 688 OFFCURVE",
"557 841 OFFCURVE",
"666 841 CURVE SMOOTH",
"762 841 OFFCURVE",
"802 754 OFFCURVE",
"802 563 CURVE SMOOTH",
"802 0 LINE",
"1163 0 LINE",
"1163 769 LINE",
"1134 769 LINE",
"1075 947 OFFCURVE",
"934 1046 OFFCURVE",
"740 1046 CURVE SMOOTH",
"556 1046 OFFCURVE",
"461 968 OFFCURVE",
"339 735 CURVE",
"474 512 LINE",
"474 1021 LINE",
"110 1021 LINE",
"110 0 LINE"
);
},
{
closed = 1;
nodes = (
"1810 0 LINE",
"1810 646 LINE SMOOTH",
"1810 891 OFFCURVE",
"1653 1046 OFFCURVE",
"1400 1046 CURVE SMOOTH",
"1202 1046 OFFCURVE",
"1123 970 OFFCURVE",
"956 665 CURVE",
"1165 451 LINE",
"1152 686 OFFCURVE",
"1211 828 OFFCURVE",
"1330 828 CURVE SMOOTH",
"1422 828 OFFCURVE",
"1449 762 OFFCURVE",
"1449 563 CURVE SMOOTH",
"1449 0 LINE"
);
}
);
width = 1900;
},
{
anchors = (
{
name = bottom;
position = "{857, 0}";
},
{
name = top;
position = "{857, 989}";
}
);
layerId = "B71E0DD6-B640-4F5E-B48D-BF5E04BC2E71";
paths = (
{
closed = 1;
nodes = (
"194 1 LINE",
"194 571 LINE SMOOTH",
"194 799 OFFCURVE",
"328 936 OFFCURVE",
"553 936 CURVE SMOOTH",
"745 936 OFFCURVE",
"825 845 OFFCURVE",
"825 631 CURVE SMOOTH",
"825 1 LINE",
"911 1 LINE",
"911 721 LINE",
"904 721 LINE",
"883 919 OFFCURVE",
"773 1016 OFFCURVE",
"570 1016 CURVE SMOOTH",
"351 1016 OFFCURVE",
"208 905 OFFCURVE",
"171 705 CURVE",
"194 659 LINE",
"194 990 LINE",
"108 990 LINE",
"108 1 LINE"
);
},
{
closed = 1;
nodes = (
"1622 2 LINE",
"1622 658 LINE SMOOTH",
"1622 895 OFFCURVE",
"1509 1016 OFFCURVE",
"1283 1016 CURVE SMOOTH",
"1052 1016 OFFCURVE",
"903 893 OFFCURVE",
"875 678 CURVE",
"917 480 LINE",
"880 764 OFFCURVE",
"1013 933 OFFCURVE",
"1266 933 CURVE SMOOTH",
"1458 933 OFFCURVE",
"1536 844 OFFCURVE",
"1536 631 CURVE SMOOTH",
"1536 2 LINE"
);
}
);
width = 1713;
}
);
leftKerningGroup = n;
note = m;
rightKerningGroup = n;
},
{
color = 1;
glyphname = w.rvrn;
lastChange = "2019-12-17 01:54:24 +0000";
layers = (
{
anchors = (
{
name = bottom;
position = "{768, 0}";
},
{
name = top;
position = "{768, 1006}";
}
);
layerId = "66066CCB-AAC9-4485-8967-3F6B885ABFA4";
paths = (
{
closed = 1;
nodes = (
"1134 -91 LINE",
"1689 1021 LINE",
"1468 1021 LINE",
"1098 355 LINE",
"1252 289 LINE",
"867 1021 LINE",
"478 1021 LINE",
"1021 -91 LINE"
);
},
{
closed = 1;
nodes = (
"523 -91 LINE",
"868 603 LINE",
"755 851 LINE",
"489 354 LINE",
"641 289 LINE",
"256 1021 LINE",
"-133 1021 LINE",
"411 -91 LINE"
);
}
);
width = 1536;
},
{
anchors = (
{
name = bottom;
position = "{876, 0}";
},
{
name = top;
position = "{876, 989}";
}
);
layerId = "B71E0DD6-B640-4F5E-B48D-BF5E04BC2E71";
paths = (
{
closed = 1;
nodes = (
"1167 -77 LINE",
"1656 990 LINE",
"1618 990 LINE",
"1112 -119 LINE",
"1217 42 LINE",
"774 990 LINE",
"664 990 LINE",
"1161 -77 LINE"
);
},
{
closed = 1;
nodes = (
"599 -77 LINE",
"901 581 LINE",
"883 624 LINE",
"544 -119 LINE",
"649 42 LINE",
"207 990 LINE",
"96 990 LINE",
"594 -77 LINE"
);
}
);
width = 1752;
}
);
leftKerningGroup = w;
leftMetricsKey = w;
note = w;
rightKerningGroup = w;
rightMetricsKey = w;
},
{
color = 1;
export = 0;
glyphname = n.t;
lastChange = "2019-12-17 01:51:10 +0000";
layers = (
{
anchors = (
{
name = bottom;
position = "{657, 64}";
},
{
name = top;
position = "{723, 939}";
}
);
layerId = "66066CCB-AAC9-4485-8967-3F6B885ABFA4";
paths = (
{
closed = 1;
nodes = (
"470 -18 LINE",
"470 502 LINE SMOOTH",
"470 677 OFFCURVE",
"579 837 OFFCURVE",
"702 837 CURVE SMOOTH",
"796 837 OFFCURVE",
"805 797 OFFCURVE",
"805 577 CURVE SMOOTH",
"805 -18 LINE",
"1167 -18 LINE",
"1167 642 LINE SMOOTH",
"1167 891 OFFCURVE",
"1006 1046 OFFCURVE",
"744 1046 CURVE SMOOTH",
"533 1046 OFFCURVE",
"431 956 OFFCURVE",
"349 714 CURVE",
"467 468 LINE",
"470 1021 LINE",
"108 1021 LINE",
"108 -18 LINE"
);
}
);
width = 1253;
},
{
anchors = (
{
name = bottom;
position = "{493, 25}";
},
{
name = top;
position = "{498, 966}";
}
);
background = {
anchors = (
{
name = bottom;
position = "{493, 25}";
},
{
name = top;
position = "{498, 966}";
}
);
paths = (
{
closed = 1;
nodes = (
"196 0 LINE",
"196 571 LINE SMOOTH",
"196 796 OFFCURVE",
"321 935 OFFCURVE",
"523 935 CURVE SMOOTH",
"723 935 OFFCURVE",
"809 827 OFFCURVE",
"809 580 CURVE SMOOTH",
"809 0 LINE",
"895 0 LINE",
"895 587 LINE SMOOTH",
"895 874 OFFCURVE",
"777 1016 OFFCURVE",
"536 1016 CURVE SMOOTH",
"326 1016 OFFCURVE",
"186 882 OFFCURVE",
"170 661 CURVE",
"196 668 LINE",
"196 990 LINE",
"110 990 LINE",
"110 0 LINE"
);
}
);
};
layerId = "B71E0DD6-B640-4F5E-B48D-BF5E04BC2E71";
paths = (
{
closed = 1;
nodes = (
"196 0 LINE",
"196 571 LINE SMOOTH",
"196 796 OFFCURVE",
"321 935 OFFCURVE",
"523 935 CURVE SMOOTH",
"723 935 OFFCURVE",
"809 827 OFFCURVE",
"809 580 CURVE SMOOTH",
"809 0 LINE",
"895 0 LINE",
"895 587 LINE SMOOTH",
"895 874 OFFCURVE",
"777 1016 OFFCURVE",
"536 1016 CURVE SMOOTH",
"326 1016 OFFCURVE",
"186 882 OFFCURVE",
"170 661 CURVE",
"196 668 LINE",
"196 990 LINE",
"110 990 LINE",
"110 0 LINE"
);
}
);
width = 985;
}
);
leftKerningGroup = n;
note = n;
rightKerningGroup = n;
},
{
color = 1;
export = 0;
glyphname = o.t;
lastChange = "2019-12-17 01:51:10 +0000";
layers = (
{
anchors = (
{
name = bottom;
position = "{620, 79}";
},
{
name = center;
position = "{620, 518}";
},
{
name = ogonek;
position = "{1063, 89}";
},
{
name = top;
position = "{619, 955}";
},
{
name = topright;
position = "{1151, 955}";
}
);
layerId = "66066CCB-AAC9-4485-8967-3F6B885ABFA4";
paths = (
{
closed = 1;
nodes = (
"961 -35 OFFCURVE",
"1180 177 OFFCURVE",
"1180 509 CURVE SMOOTH",
"1180 843 OFFCURVE",
"957 1062 OFFCURVE",
"614 1062 CURVE SMOOTH",
"270 1062 OFFCURVE",
"46 842 OFFCURVE",
"46 509 CURVE SMOOTH",
"46 176 OFFCURVE",
"266 -35 OFFCURVE",
"614 -35 CURVE SMOOTH"
);
},
{
closed = 1;
nodes = (
"498 170 OFFCURVE",
"414 317 OFFCURVE",
"414 509 CURVE SMOOTH",
"414 704 OFFCURVE",
"500 858 OFFCURVE",
"614 858 CURVE SMOOTH",
"727 858 OFFCURVE",
"814 701 OFFCURVE",
"814 509 CURVE SMOOTH",
"814 319 OFFCURVE",
"729 170 OFFCURVE",
"614 170 CURVE SMOOTH"
);
}
);
width = 1226;
},
{
anchors = (
{
name = bottom;
position = "{525, 25}";
},
{
name = center;
position = "{525, 496}";
},
{
name = ogonek;
position = "{949, 35}";
},
{
name = top;
position = "{515, 966}";
},
{
name = topright;
position = "{1032, 966}";
}
);
background = {
anchors = (
{
name = bottom;
position = "{491, 0}";
},
{
name = center;
position = "{491, 495}";
},
{
name = ogonek;
position = "{885, 10}";
},
{
name = top;
position = "{491, 989}";
},
{
name = topright;
position = "{963, 989}";
}
);
paths = (
{
closed = 1;
nodes = (
"757 -24 OFFCURVE",
"947 190 OFFCURVE",
"947 492 CURVE SMOOTH",
"947 795 OFFCURVE",
"754 1015 OFFCURVE",
"490 1015 CURVE SMOOTH",
"224 1015 OFFCURVE",
"35 796 OFFCURVE",
"35 492 CURVE SMOOTH",
"35 189 OFFCURVE",
"223 -24 OFFCURVE",
"490 -24 CURVE SMOOTH"
);
},
{
closed = 1;
nodes = (
"245 48 OFFCURVE",
"115 228 OFFCURVE",
"115 503 CURVE SMOOTH",
"115 799 OFFCURVE",
"274 946 OFFCURVE",
"490 946 CURVE SMOOTH",
"728 946 OFFCURVE",
"868 773 OFFCURVE",
"868 492 CURVE SMOOTH",
"868 203 OFFCURVE",
"717 48 OFFCURVE",
"490 48 CURVE SMOOTH"
);
}
);
};
layerId = "B71E0DD6-B640-4F5E-B48D-BF5E04BC2E71";
paths = (
{
closed = 1;
nodes = (
"807 -29 OFFCURVE",
"999 177 OFFCURVE",
"999 482 CURVE SMOOTH",
"999 793 OFFCURVE",
"801 1016 OFFCURVE",
"522 1016 CURVE SMOOTH",
"245 1016 OFFCURVE",
"48 793 OFFCURVE",
"48 482 CURVE SMOOTH",
"48 177 OFFCURVE",
"239 -29 OFFCURVE",
"522 -29 CURVE SMOOTH"
);
},
{
closed = 1;
nodes = (
"297 54 OFFCURVE",
"153 224 OFFCURVE",
"153 490 CURVE SMOOTH",
"153 755 OFFCURVE",
"303 935 OFFCURVE",
"522 935 CURVE SMOOTH",
"741 935 OFFCURVE",
"892 751 OFFCURVE",
"892 482 CURVE SMOOTH",
"892 217 OFFCURVE",
"750 54 OFFCURVE",
"522 54 CURVE SMOOTH"
);
}
);
width = 1047;
}
);
leftKerningGroup = o;
note = o;
rightKerningGroup = o;
},
{
glyphname = f_f;
lastChange = "2019-12-17 05:44:55 +0000";
layers = (
{
anchors = (
{
name = caret_1;
position = "{366, 0}";
}
);
layerId = "B71E0DD6-B640-4F5E-B48D-BF5E04BC2E71";
paths = (
{
closed = 1;
nodes = (
"512 0 LINE",
"512 1155 LINE SMOOTH",
"512 1429 OFFCURVE",
"534 1502 OFFCURVE",
"620 1502 CURVE",
"692 1492 OFFCURVE",
"703 1429 OFFCURVE",
"703 1380 CURVE SMOOTH",
"703 1351 OFFCURVE",
"696 1313 OFFCURVE",
"688 1298 CURVE",
"733 1298 LINE",
"748 1343 OFFCURVE",
"751 1381 OFFCURVE",
"751 1403 CURVE SMOOTH",
"751 1477 OFFCURVE",
"716 1531 OFFCURVE",
"613 1531 CURVE SMOOTH",
"460 1531 OFFCURVE",
"460 1355 OFFCURVE",
"460 1155 CURVE SMOOTH",
"460 0 LINE"
);
},
{
closed = 1;
nodes = (
"269 0 LINE",
"269 1138 LINE SMOOTH",
"269 1412 OFFCURVE",
"291 1485 OFFCURVE",
"377 1485 CURVE",
"449 1475 OFFCURVE",
"460 1412 OFFCURVE",
"460 1363 CURVE",
"460 1191 LINE",
"490 1281 LINE",
"505 1326 OFFCURVE",
"508 1364 OFFCURVE",
"508 1386 CURVE SMOOTH",
"508 1460 OFFCURVE",
"473 1514 OFFCURVE",
"370 1514 CURVE SMOOTH",
"217 1514 OFFCURVE",
"217 1338 OFFCURVE",
"217 1138 CURVE SMOOTH",
"217 0 LINE"
);
},
{
closed = 1;
nodes = (
"393 884 LINE",
"393 910 LINE",
"97 910 LINE",
"97 884 LINE"
);
},
{
closed = 1;
nodes = (
"636 884 LINE",
"636 910 LINE",
"340 910 LINE",
"340 884 LINE"
);
}
);
width = 777;
},
{
anchors = (
{
name = caret_1;
position = "{652, 66}";
}
);
layerId = "66066CCB-AAC9-4485-8967-3F6B885ABFA4";
paths = (
{
closed = 1;
nodes = (
"1095 0 LINE",
"1095 985 LINE SMOOTH",
"1095 1135 OFFCURVE",
"992 1355 OFFCURVE",
"1173 1360 CURVE",
"1172 1388 OFFCURVE",
"1132 1413 OFFCURVE",
"1132 1329 CURVE SMOOTH",
"1132 1303 OFFCURVE",
"1118 1218 OFFCURVE",
"1091 1141 CURVE",
"1368 1141 LINE",
"1382 1215 OFFCURVE",
"1389 1268 OFFCURVE",
"1389 1300 CURVE SMOOTH",
"1389 1473 OFFCURVE",
"1257 1562 OFFCURVE",
"1046 1562 CURVE SMOOTH",
"804 1562 OFFCURVE",
"712 1433 OFFCURVE",
"712 1102 CURVE SMOOTH",
"712 0 LINE"
);
},
{
closed = 1;
nodes = (
"576 0 LINE",
"576 927 LINE SMOOTH",
"576 1055 OFFCURVE",
"510 1214 OFFCURVE",
"577 1277 CURVE",
"649 1277 OFFCURVE",
"686 1198 OFFCURVE",
"712 1035 CURVE",
"712 954 LINE",
"850 1095 LINE",
"859 1124 OFFCURVE",
"871 1213 OFFCURVE",
"871 1242 CURVE SMOOTH",
"871 1415 OFFCURVE",
"740 1506 OFFCURVE",
"527 1506 CURVE SMOOTH",
"286 1506 OFFCURVE",
"194 1377 OFFCURVE",
"194 1046 CURVE SMOOTH",
"194 0 LINE"
);
},
{
closed = 1;
nodes = (
"768 768 LINE",
"768 973 LINE",
"14 973 LINE",
"14 768 LINE"
);
},
{
closed = 1;
nodes = (
"1286 768 LINE",
"1286 973 LINE",
"533 973 LINE",
"533 768 LINE"
);
}
);
width = 1165;
}
);
leftMetricsKey = f;
rightMetricsKey = f;
},
{
glyphname = f_f_i;
lastChange = "2019-12-17 01:48:37 +0000";
layers = (
{
anchors = (
{
name = caret_1;
position = "{321, 0}";
},
{
name = caret_2;
position = "{586, 0}";
}
);
layerId = "B71E0DD6-B640-4F5E-B48D-BF5E04BC2E71";
paths = (
{
closed = 1;
nodes = (
"512 0 LINE",
"512 1155 LINE SMOOTH",
"512 1429 OFFCURVE",
"534 1502 OFFCURVE",
"620 1502 CURVE",
"692 1492 OFFCURVE",
"703 1429 OFFCURVE",
"703 1380 CURVE SMOOTH",
"703 1351 OFFCURVE",
"696 1313 OFFCURVE",
"688 1298 CURVE",
"733 1298 LINE",
"748 1343 OFFCURVE",
"751 1381 OFFCURVE",
"751 1403 CURVE SMOOTH",
"751 1477 OFFCURVE",
"716 1531 OFFCURVE",
"613 1531 CURVE SMOOTH",
"460 1531 OFFCURVE",
"460 1355 OFFCURVE",
"460 1155 CURVE SMOOTH",
"460 0 LINE"
);
},
{
closed = 1;
nodes = (
"269 0 LINE",
"269 1138 LINE SMOOTH",
"269 1412 OFFCURVE",
"291 1485 OFFCURVE",
"377 1485 CURVE",
"449 1475 OFFCURVE",
"460 1412 OFFCURVE",
"460 1363 CURVE",
"460 1191 LINE",
"490 1281 LINE",
"505 1326 OFFCURVE",
"508 1364 OFFCURVE",
"508 1386 CURVE SMOOTH",
"508 1460 OFFCURVE",
"473 1514 OFFCURVE",
"370 1514 CURVE SMOOTH",
"217 1514 OFFCURVE",
"217 1338 OFFCURVE",
"217 1138 CURVE SMOOTH",
"217 0 LINE"
);
},
{
closed = 1;
nodes = (
"393 884 LINE",
"393 910 LINE",
"97 910 LINE",
"97 884 LINE"
);
},
{
closed = 1;
nodes = (
"706 884 LINE",
"706 910 LINE",
"340 910 LINE",
"340 884 LINE"
);
},
{
closed = 1;
nodes = (
"739 0 LINE",
"739 910 LINE",
"687 910 LINE",
"687 0 LINE"
);
}
);
width = 849;
},
{
anchors = (
{
name = caret_1;
position = "{565, 66}";
},
{
name = caret_2;
position = "{1132, 66}";
}
);
layerId = "66066CCB-AAC9-4485-8967-3F6B885ABFA4";
paths = (
{
closed = 1;
nodes = (
"1081 0 LINE",
"1081 985 LINE SMOOTH",
"1081 1105 OFFCURVE",
"1015 1271 OFFCURVE",
"1083 1334 CURVE",
"1135 1323 OFFCURVE",
"1141 1345 OFFCURVE",
"1141 1329 CURVE SMOOTH",
"1141 1284 OFFCURVE",
"1132 1263 OFFCURVE",
"1097 1141 CURVE",
"1374 1141 LINE",
"1390 1232 OFFCURVE",
"1396 1280 OFFCURVE",
"1396 1300 CURVE SMOOTH",
"1396 1473 OFFCURVE",
"1264 1562 OFFCURVE",
"1053 1562 CURVE SMOOTH",
"803 1562 OFFCURVE",
"698 1426 OFFCURVE",
"698 1102 CURVE SMOOTH",
"698 0 LINE"
);
},
{
closed = 1;
nodes = (
"562 0 LINE",
"562 927 LINE SMOOTH",
"562 1055 OFFCURVE",
"496 1214 OFFCURVE",
"563 1277 CURVE",
"635 1277 OFFCURVE",
"672 1198 OFFCURVE",
"698 1035 CURVE",
"698 954 LINE",
"838 1097 LINE",
"850 1162 OFFCURVE",
"857 1211 OFFCURVE",
"857 1242 CURVE SMOOTH",
"857 1413 OFFCURVE",
"743 1506 OFFCURVE",
"535 1506 CURVE SMOOTH",
"285 1506 OFFCURVE",
"180 1369 OFFCURVE",
"180 1046 CURVE SMOOTH",
"180 0 LINE"
);
},
{
closed = 1;
nodes = (
"754 768 LINE",
"754 973 LINE",
"0 973 LINE",
"0 768 LINE"
);
},
{
closed = 1;
nodes = (
"1273 768 LINE",
"1273 973 LINE",
"519 973 LINE",
"519 768 LINE"
);
},
{
closed = 1;
nodes = (
"1603 -18 LINE",
"1603 973 LINE",
"1220 973 LINE",
"1220 -18 LINE"
);
}
);
width = 1696;
}
);
leftMetricsKey = f;
rightMetricsKey = i;
},
{
glyphname = f_f_l;
lastChange = "2019-12-17 05:42:21 +0000";
layers = (
{
anchors = (
{
name = caret_1;
position = "{342, 0}";
},
{
name = caret_2;
position = "{609, 0}";
}
);
layerId = "B71E0DD6-B640-4F5E-B48D-BF5E04BC2E71";
paths = (
{
closed = 1;
nodes = (
"512 0 LINE",
"512 1155 LINE SMOOTH",
"512 1429 OFFCURVE",
"534 1502 OFFCURVE",
"620 1502 CURVE",
"692 1492 OFFCURVE",
"703 1429 OFFCURVE",
"703 1380 CURVE",
"733 1298 LINE",
"748 1343 OFFCURVE",
"755 1381 OFFCURVE",
"755 1403 CURVE SMOOTH",
"755 1477 OFFCURVE",
"716 1531 OFFCURVE",
"613 1531 CURVE SMOOTH",
"460 1531 OFFCURVE",
"460 1355 OFFCURVE",
"460 1155 CURVE SMOOTH",
"460 0 LINE"
);
},
{
closed = 1;
nodes = (
"269 0 LINE",
"269 1138 LINE SMOOTH",
"269 1412 OFFCURVE",
"291 1485 OFFCURVE",
"377 1485 CURVE",
"449 1475 OFFCURVE",
"460 1412 OFFCURVE",
"460 1363 CURVE",
"460 1191 LINE",
"490 1281 LINE",
"505 1326 OFFCURVE",
"508 1364 OFFCURVE",
"508 1386 CURVE SMOOTH",
"508 1460 OFFCURVE",
"473 1514 OFFCURVE",
"370 1514 CURVE SMOOTH",
"217 1514 OFFCURVE",
"217 1338 OFFCURVE",
"217 1138 CURVE SMOOTH",
"217 0 LINE"
);
},
{
closed = 1;
nodes = (
"393 884 LINE",
"393 910 LINE",
"97 910 LINE",
"97 884 LINE"
);
},
{
closed = 1;
nodes = (
"636 884 LINE",
"636 910 LINE",
"340 910 LINE",
"340 884 LINE"
);
},
{
closed = 1;
nodes = (
"755 0 LINE",
"755 1403 LINE",
"703 1404 LINE",
"703 0 LINE"
);
}
);
width = 888;
},
{
anchors = (
{
name = caret_1;
position = "{582, 66}";
},
{
name = caret_2;
position = "{1152, 66}";
}
);
layerId = "66066CCB-AAC9-4485-8967-3F6B885ABFA4";
paths = (
{
closed = 1;
nodes = (
"1095 0 LINE",
"1095 985 LINE SMOOTH",
"1095 1087 OFFCURVE",
"1080 1253 OFFCURVE",
"1101 1333 CURVE",
"1208 1317 OFFCURVE",
"1241 1119 OFFCURVE",
"1229 872 CURVE",
"1374 1173 LINE",
"1384 1230 OFFCURVE",
"1389 1272 OFFCURVE",
"1389 1300 CURVE SMOOTH",
"1389 1473 OFFCURVE",
"1257 1562 OFFCURVE",
"1046 1562 CURVE SMOOTH",
"804 1562 OFFCURVE",
"712 1433 OFFCURVE",
"712 1102 CURVE SMOOTH",
"712 0 LINE"
);
},
{
closed = 1;
nodes = (
"576 0 LINE",
"576 927 LINE SMOOTH",
"576 1055 OFFCURVE",
"510 1214 OFFCURVE",
"577 1277 CURVE",
"649 1277 OFFCURVE",
"686 1198 OFFCURVE",
"712 1035 CURVE",
"712 954 LINE",
"850 1095 LINE",
"859 1124 OFFCURVE",
"871 1213 OFFCURVE",
"871 1242 CURVE SMOOTH",
"871 1415 OFFCURVE",
"740 1506 OFFCURVE",
"527 1506 CURVE SMOOTH",
"286 1506 OFFCURVE",
"194 1377 OFFCURVE",
"194 1046 CURVE SMOOTH",
"194 0 LINE"
);
},
{
closed = 1;
nodes = (
"768 768 LINE",
"768 973 LINE",
"14 973 LINE",
"14 768 LINE"
);
},
{
closed = 1;
nodes = (
"1286 768 LINE",
"1286 973 LINE",
"533 973 LINE",
"533 768 LINE"
);
},
{
closed = 1;
nodes = (
"1613 -18 LINE",
"1613 1531 LINE",
"1231 1531 LINE",
"1231 -18 LINE"
);
}
);
width = 1733;
}
);
leftMetricsKey = f;
rightMetricsKey = l;
},
{
glyphname = fi;
lastChange = "2019-12-17 01:48:37 +0000";
layers = (
{
anchors = (
{
name = caret_1;
position = "{615, 66}";
}
);
layerId = "66066CCB-AAC9-4485-8967-3F6B885ABFA4";
paths = (
{
closed = 1;
nodes = (
"564 -18 LINE",
"564 957 LINE",
"353 786 LINE",
"817 786 LINE",
"817 991 LINE",
"362 991 LINE",
"564 818 LINE",
"564 1181 LINE SMOOTH",
"564 1356 OFFCURVE",
"565 1361 OFFCURVE",
"684 1361 CURVE SMOOTH",
"760 1361 OFFCURVE",
"790 1349 OFFCURVE",
"790 1324 CURVE SMOOTH",
"790 1292 OFFCURVE",
"764 1226 OFFCURVE",
"728 1107 CURVE",
"1103 1107 LINE",
"1131 1194 OFFCURVE",
"1143 1273 OFFCURVE",
"1143 1316 CURVE SMOOTH",
"1143 1496 OFFCURVE",
"965 1562 OFFCURVE",
"684 1562 CURVE SMOOTH",
"338 1562 OFFCURVE",
"178 1419 OFFCURVE",
"178 1102 CURVE SMOOTH",
"178 818 LINE",
"380 991 LINE",
"0 991 LINE",
"0 786 LINE",
"389 786 LINE",
"178 957 LINE",
"178 -18 LINE"
);
},
{
closed = 1;
nodes = (
"1134 -18 LINE",
"1121 991 LINE",
"739 991 LINE",
"752 -18 LINE"
);
}
);
width = 1237;
},
{
anchors = (
{
name = caret_1;
position = "{375, 0}";
}
);
layerId = "B71E0DD6-B640-4F5E-B48D-BF5E04BC2E71";
paths = (
{
closed = 1;
nodes = (
"269 0 LINE",
"269 929 LINE",
"224 884 LINE",
"493 884 LINE",
"493 910 LINE",
"224 910 LINE",
"269 865 LINE",
"269 1155 LINE SMOOTH",
"269 1429 OFFCURVE",
"291 1502 OFFCURVE",
"407 1502 CURVE",
"479 1492 OFFCURVE",
"520 1429 OFFCURVE",
"520 1380 CURVE SMOOTH",
"520 1351 OFFCURVE",
"513 1313 OFFCURVE",
"505 1298 CURVE",
"550 1298 LINE",
"565 1343 OFFCURVE",
"568 1381 OFFCURVE",
"568 1403 CURVE SMOOTH",
"568 1477 OFFCURVE",
"503 1531 OFFCURVE",
"400 1531 CURVE SMOOTH",
"217 1531 OFFCURVE",
"217 1355 OFFCURVE",
"217 1155 CURVE SMOOTH",
"217 865 LINE",
"262 910 LINE",
"97 910 LINE",
"97 884 LINE",
"262 884 LINE",
"217 929 LINE",
"217 0 LINE"
);
},
{
closed = 1;
nodes = (
"540 2 LINE",
"540 910 LINE",
"488 910 LINE",
"488 2 LINE"
);
}
);
width = 666;
}
);
leftKerningGroup = f;
leftMetricsKey = f;
note = fi;
rightKerningGroup = i;
rightMetricsKey = i;
unicode = F001;
},
{
glyphname = fl;
lastChange = "2019-12-17 05:42:21 +0000";
layers = (
{
anchors = (
{
name = caret_1;
position = "{607, 66}";
}
);
layerId = "66066CCB-AAC9-4485-8967-3F6B885ABFA4";
paths = (
{
closed = 1;
nodes = (
"576 0 LINE",
"576 985 LINE SMOOTH",
"576 1070 OFFCURVE",
"561 1250 OFFCURVE",
"583 1333 CURVE",
"690 1315 OFFCURVE",
"721 1119 OFFCURVE",
"710 873 CURVE",
"854 1171 LINE",
"863 1214 OFFCURVE",
"871 1276 OFFCURVE",
"871 1300 CURVE SMOOTH",
"871 1474 OFFCURVE",
"740 1562 OFFCURVE",
"527 1562 CURVE SMOOTH",
"286 1562 OFFCURVE",
"194 1434 OFFCURVE",
"194 1102 CURVE SMOOTH",
"194 0 LINE"
);
},
{
closed = 1;
nodes = (
"768 768 LINE",
"768 973 LINE",
"14 973 LINE",
"14 768 LINE"
);
},
{
closed = 1;
nodes = (
"1095 -18 LINE",
"1095 1531 LINE",
"712 1531 LINE",
"712 -18 LINE"
);
}
);
width = 1215;
},
{
anchors = (
{
name = caret_1;
position = "{354, 0}";
}
);
layerId = "B71E0DD6-B640-4F5E-B48D-BF5E04BC2E71";
paths = (
{
closed = 1;
nodes = (
"269 0 LINE",
"269 1155 LINE SMOOTH",
"269 1429 OFFCURVE",
"291 1502 OFFCURVE",
"377 1502 CURVE",
"449 1502 OFFCURVE",
"460 1429 OFFCURVE",
"460 1380 CURVE",
"490 1298 LINE",
"505 1343 OFFCURVE",
"512 1374 OFFCURVE",
"512 1403 CURVE SMOOTH",
"512 1470 OFFCURVE",
"465 1531 OFFCURVE",
"370 1531 CURVE SMOOTH",
"209 1531 OFFCURVE",
"217 1355 OFFCURVE",
"217 1155 CURVE SMOOTH",
"217 0 LINE"
);
},
{
closed = 1;
nodes = (
"393 884 LINE",
"393 910 LINE",
"97 910 LINE",
"97 884 LINE"
);
},
{
closed = 1;
nodes = (
"512 0 LINE",
"512 1403 LINE",
"460 1404 LINE",
"460 0 LINE"
);
}
);
width = 645;
}
);
leftKerningGroup = f;
leftMetricsKey = f;
note = fl;
rightKerningGroup = l;
rightMetricsKey = l;
unicode = F002;
},
{
color = 1;
glyphname = ordfeminine;
lastChange = "2019-12-17 01:48:37 +0000";
layers = (
{
layerId = "66066CCB-AAC9-4485-8967-3F6B885ABFA4";
paths = (
{
closed = 1;
nodes = (
"506 738 OFFCURVE",
"541 732 OFFCURVE",
"574 712 CURVE",
"574 741 LINE",
"850 741 LINE",
"850 1447 LINE",
"572 1447 LINE",
"572 1486 LINE",
"540 1467 OFFCURVE",
"507 1461 OFFCURVE",
"418 1461 CURVE SMOOTH",
"201 1461 OFFCURVE",
"60 1316 OFFCURVE",
"60 1097 CURVE SMOOTH",
"60 882 OFFCURVE",
"204 738 OFFCURVE",
"423 738 CURVE SMOOTH"
);
},
{
closed = 1;
nodes = (
"390 931 OFFCURVE",
"368 993 OFFCURVE",
"368 1111 CURVE SMOOTH",
"368 1207 OFFCURVE",
"391 1268 OFFCURVE",
"437 1268 CURVE SMOOTH",
"492 1268 OFFCURVE",
"544 1170 OFFCURVE",
"544 1095 CURVE SMOOTH",
"544 1012 OFFCURVE",
"495 931 OFFCURVE",
"440 931 CURVE SMOOTH"
);
},
{
closed = 1;
nodes = (
"876 562 LINE",
"876 812 LINE",
"49 812 LINE",
"49 562 LINE"
);
}
);
width = 946;
},
{
layerId = "B71E0DD6-B640-4F5E-B48D-BF5E04BC2E71";
paths = (
{
closed = 1;
nodes = (
"346 845 OFFCURVE",
"499 855 OFFCURVE",
"513 1064 CURVE",
"513 863 LINE",
"536 863 LINE",
"536 1435 LINE",
"511 1435 LINE",
"511 1230 LINE",
"497 1440 OFFCURVE",
"341 1451 OFFCURVE",
"284 1451 CURVE SMOOTH",
"148 1451 OFFCURVE",
"70 1325 OFFCURVE",
"70 1146 CURVE SMOOTH",
"70 957 OFFCURVE",
"151 845 OFFCURVE",
"288 845 CURVE SMOOTH"
);
},
{
closed = 1;
nodes = (
"150 855 OFFCURVE",
"100 986 OFFCURVE",
"100 1146 CURVE SMOOTH",
"100 1305 OFFCURVE",
"143 1441 OFFCURVE",
"290 1441 CURVE SMOOTH",
"435 1441 OFFCURVE",
"509 1346 OFFCURVE",
"509 1146 CURVE SMOOTH",
"509 946 OFFCURVE",
"438 855 OFFCURVE",
"293 855 CURVE SMOOTH"
);
},
{
closed = 1;
nodes = (
"561 743 LINE",
"561 767 LINE",
"73 767 LINE",
"73 743 LINE"
);
}
);
width = 643;
}
);
leftKerningGroup = ordfeminine;
note = ordfeminine;
rightKerningGroup = ordfeminine;
unicode = 00AA;
},
{
color = 1;
glyphname = ordmasculine;
lastChange = "2019-12-17 01:48:37 +0000";
layers = (
{
layerId = "66066CCB-AAC9-4485-8967-3F6B885ABFA4";
paths = (
{
closed = 1;
nodes = (
"702 734 OFFCURVE",
"862 880 OFFCURVE",
"862 1097 CURVE SMOOTH",
"862 1317 OFFCURVE",
"702 1464 OFFCURVE",
"461 1464 CURVE SMOOTH",
"220 1464 OFFCURVE",
"61 1317 OFFCURVE",
"61 1097 CURVE SMOOTH",
"61 879 OFFCURVE",
"221 734 OFFCURVE",
"461 734 CURVE SMOOTH"
);
},
{
closed = 1;
nodes = (
"413 929 OFFCURVE",
"367 1017 OFFCURVE",
"367 1097 CURVE SMOOTH",
"367 1177 OFFCURVE",
"414 1269 OFFCURVE",
"459 1269 CURVE SMOOTH",
"506 1269 OFFCURVE",
"554 1177 OFFCURVE",
"554 1097 CURVE SMOOTH",
"554 1017 OFFCURVE",
"507 929 OFFCURVE",
"459 929 CURVE SMOOTH"
);
},
{
closed = 1;
nodes = (
"874 562 LINE",
"874 812 LINE",
"47 812 LINE",
"47 562 LINE"
);
}
);
width = 921;
},
{
layerId = "B71E0DD6-B640-4F5E-B48D-BF5E04BC2E71";
paths = (
{
closed = 1;
nodes = (
"447 860 OFFCURVE",
"565 965 OFFCURVE",
"565 1147 CURVE SMOOTH",
"565 1330 OFFCURVE",
"448 1438 OFFCURVE",
"313 1438 CURVE SMOOTH",
"178 1438 OFFCURVE",
"63 1331 OFFCURVE",
"63 1147 CURVE SMOOTH",
"63 964 OFFCURVE",
"179 860 OFFCURVE",
"313 860 CURVE SMOOTH"
);
},
{
closed = 1;
nodes = (
"192 869 OFFCURVE",
"90 974 OFFCURVE",
"90 1147 CURVE SMOOTH",
"90 1320 OFFCURVE",
"193 1428 OFFCURVE",
"314 1428 CURVE SMOOTH",
"435 1428 OFFCURVE",
"538 1320 OFFCURVE",
"538 1147 CURVE SMOOTH",
"538 974 OFFCURVE",
"436 869 OFFCURVE",
"314 869 CURVE SMOOTH"
);
},
{
closed = 1;
nodes = (
"558 743 LINE",
"558 767 LINE",
"70 767 LINE",
"70 743 LINE"
);
}
);
width = 628;
}
);
leftKerningGroup = ordmasculine;
note = ordmasculine;
rightKerningGroup = ordmasculine;
unicode = 00BA;
},
{
color = 1;
glyphname = "Be-cy";
lastChange = "2019-12-17 01:48:37 +0000";
layers = (
{
layerId = "66066CCB-AAC9-4485-8967-3F6B885ABFA4";
paths = (
{
closed = 1;
nodes = (
"629 -18 LINE SMOOTH",
"1080 -18 OFFCURVE",
"1300 126 OFFCURVE",
"1300 430 CURVE SMOOTH",
"1300 723 OFFCURVE",
"1102 845 OFFCURVE",
"650 845 CURVE SMOOTH",
"525 845 LINE",
"525 1244 LINE",
"1211 1244 LINE",
"1211 1437 LINE",
"138 1437 LINE",
"138 -18 LINE"
);
},
{
closed = 1;
nodes = (
"525 652 LINE",
"681 652 LINE SMOOTH",
"821 652 OFFCURVE",
"899 573 OFFCURVE",
"899 430 CURVE SMOOTH",
"899 274 OFFCURVE",
"793 175 OFFCURVE",
"629 175 CURVE SMOOTH",
"525 175 LINE"
);
}
);
width = 1347;
},
{
layerId = "B71E0DD6-B640-4F5E-B48D-BF5E04BC2E71";
paths = (
{
closed = 1;
nodes = (
"544 0 LINE SMOOTH",
"825 0 OFFCURVE",
"1010 31 OFFCURVE",
"1010 415 CURVE SMOOTH",
"1010 770 OFFCURVE",
"863 795 OFFCURVE",
"564 795 CURVE SMOOTH",
"235 795 LINE",
"235 1353 LINE",
"921 1353 LINE",
"921 1430 LINE",
"257 1430 LINE",
"257 0 LINE"
);
},
{
closed = 1;
nodes = (
"235 718 LINE",
"595 718 LINE SMOOTH",
"851 718 OFFCURVE",
"1019 598 OFFCURVE",
"1019 415 CURVE SMOOTH",
"1019 218 OFFCURVE",
"820 77 OFFCURVE",
"544 77 CURVE SMOOTH",
"235 77 LINE"
);
}
);
width = 1234;
}
);
unicode = 0411;
},
{
color = 1;
glyphname = "Ge-cy";
lastChange = "2019-12-17 01:48:37 +0000";
layers = (
{
anchors = (
{
name = bottomright;
position = "{1162, 62}";
},
{
name = top;
position = "{679, 1357}";
}
);
layerId = "66066CCB-AAC9-4485-8967-3F6B885ABFA4";
paths = (
{
closed = 1;
nodes = (
"525 -26 LINE",
"525 1244 LINE",
"1291 1244 LINE",
"1291 1437 LINE",
"138 1437 LINE",
"138 -26 LINE"
);
}
);
width = 1323;
},
{
anchors = (
{
name = bottomright;
position = "{1077, 21}";
},
{
name = top;
position = "{593, 1409}";
}
);
layerId = "B71E0DD6-B640-4F5E-B48D-BF5E04BC2E71";
paths = (
{
closed = 1;
nodes = (
"235 50 LINE",
"235 1353 LINE",
"1001 1353 LINE",
"1001 1430 LINE",
"257 1430 LINE",
"257 50 LINE"
);
}
);
width = 1118;
}
);
unicode = 0413;
},
{
color = 1;
glyphname = "De-cy";
lastChange = "2019-12-17 01:48:37 +0000";
layers = (
{
components = (
{
name = danglycyrillicserif;
transform = "{1, 0, 0, 1, -51, 62}";
},
{
name = danglycyrillicserif;
transform = "{-1, 0, 0, 1, 1516, 0}";
}
);
layerId = "66066CCB-AAC9-4485-8967-3F6B885ABFA4";
paths = (
{
closed = 1;
nodes = (
"1409 0 LINE",
"1409 157 LINE",
"1265 157 LINE",
"1265 1258 LINE",
"1409 1258 LINE",
"1409 1419 LINE",
"398 1419 LINE",
"398 1258 LINE",
"534 1258 LINE",
"528 889 OFFCURVE",
"442 529 OFFCURVE",
"272 157 CURVE",
"109 157 LINE",
"109 0 LINE"
);
},
{
closed = 1;
nodes = (
"522 510 OFFCURVE",
"603 881 OFFCURVE",
"611 1258 CURVE",
"1022 1258 LINE",
"1022 157 LINE",
"371 157 LINE"
);
}
);
width = 1464;
},
{
components = (
{
name = danglycyrillicserif;
transform = "{1, 0, 0, 1, -159, 25}";
},
{
name = danglycyrillicserif;
transform = "{-1, 0, 0, 1, 1418, 0}";
}
);
layerId = "B71E0DD6-B640-4F5E-B48D-BF5E04BC2E71";
paths = (
{
closed = 1;
nodes = (
"1168 1 LINE",
"1168 78 LINE",
"1024 78 LINE",
"1024 1350 LINE",
"1168 1350 LINE",
"1168 1431 LINE",
"421 1431 LINE",
"421 1350 LINE",
"557 1350 LINE",
"558 925 OFFCURVE",
"470 534 OFFCURVE",
"274 78 CURVE",
"133 78 LINE",
"133 1 LINE"
);
},
{
closed = 1;
nodes = (
"276 461 OFFCURVE",
"368 912 OFFCURVE",
"371 1350 CURVE",
"1045 1350 LINE",
"1045 78 LINE",
"112 78 LINE"
);
}
);
width = 1344;
}
);
unicode = 0414;
},
{
color = 1;
glyphname = "Zhe-cy";
lastChange = "2019-12-17 01:48:37 +0000";
layers = (
{
anchors = (
{
name = bottomright;
position = "{1940, 62}";
},
{
name = top;
position = "{1085, 1357}";
}
);
layerId = "66066CCB-AAC9-4485-8967-3F6B885ABFA4";
paths = (
{
closed = 1;
nodes = (
"1278 -26 LINE",
"1278 582 LINE",
"1406 525 OFFCURVE",
"1484 453 OFFCURVE",
"1521 346 CURVE SMOOTH",
"1594 140 OFFCURVE",
"1647 57 OFFCURVE",
"1755 -18 CURVE",
"2599 -18 LINE",
"2026 138 OFFCURVE",
"1937 263 OFFCURVE",
"1873 450 CURVE SMOOTH",
"1819 611 OFFCURVE",
"1710 719 OFFCURVE",
"1537 782 CURVE",
"1581 830 OFFCURVE",
"1616 891 OFFCURVE",
"1652 979 CURVE SMOOTH",
"1732 1174 OFFCURVE",
"1873 1372 OFFCURVE",
"1777 1372 CURVE SMOOTH",
"1726 1372 OFFCURVE",
"1724 1353 OFFCURVE",
"1724 1286 CURVE SMOOTH",
"1724 1275 LINE SMOOTH",
"1724 1239 OFFCURVE",
"1670 1318 OFFCURVE",
"1670 1183 CURVE SMOOTH",
"1670 1085 OFFCURVE",
"1734 1036 OFFCURVE",
"1837 1036 CURVE SMOOTH",
"1961 1036 OFFCURVE",
"2032 1116 OFFCURVE",
"2032 1245 CURVE SMOOTH",
"2032 1378 OFFCURVE",
"1949 1442 OFFCURVE",
"1802 1442 CURVE SMOOTH",
"1717 1442 OFFCURVE",
"1680 1432 OFFCURVE",
"1632 1378 CURVE SMOOTH",
"1566 1305 OFFCURVE",
"1506 1207 OFFCURVE",
"1456 1090 CURVE SMOOTH",
"1385 923 OFFCURVE",
"1347 866 OFFCURVE",
"1283 857 CURVE SMOOTH",
"1281 857 OFFCURVE",
"1280 856 OFFCURVE",
"1278 856 CURVE",
"1278 1445 LINE",
"891 1445 LINE",
"891 -26 LINE"
);
},
{
closed = 1;
nodes = (
"51 -18 LINE",
"415 -18 LINE",
"524 58 OFFCURVE",
"576 140 OFFCURVE",
"648 345 CURVE SMOOTH",
"686 453 OFFCURVE",
"763 525 OFFCURVE",
"891 582 CURVE",
"891 -26 LINE",
"1278 -26 LINE",
"1278 1445 LINE",
"891 1445 LINE",
"891 856 LINE",
"890 856 OFFCURVE",
"888 857 OFFCURVE",
"886 857 CURVE SMOOTH",
"822 867 OFFCURVE",
"783 923 OFFCURVE",
"713 1091 CURVE SMOOTH",
"662 1210 OFFCURVE",
"606 1303 OFFCURVE",
"536 1380 CURVE SMOOTH",
"487 1433 OFFCURVE",
"450 1442 OFFCURVE",
"366 1442 CURVE SMOOTH",
"219 1442 OFFCURVE",
"137 1376 OFFCURVE",
"137 1245 CURVE SMOOTH",
"137 1114 OFFCURVE",
"206 1036 OFFCURVE",
"332 1036 CURVE SMOOTH",
"435 1036 OFFCURVE",
"499 1085 OFFCURVE",
"499 1183 CURVE SMOOTH",
"499 1321 OFFCURVE",
"446 1238 OFFCURVE",
"446 1275 CURVE SMOOTH",
"446 1344 OFFCURVE",
"449 1372 OFFCURVE",
"391 1372 CURVE SMOOTH",
"293 1372 OFFCURVE",
"434 1184 OFFCURVE",
"518 978 CURVE SMOOTH",
"554 891 OFFCURVE",
"588 830 OFFCURVE",
"633 782 CURVE",
"460 719 OFFCURVE",
"352 612 OFFCURVE",
"297 451 CURVE SMOOTH",
"233 263 OFFCURVE",
"142 135 OFFCURVE",
"48 112 CURVE"
);
}
);
width = 2169;
},
{
anchors = (
{
name = bottomright;
position = "{1753, 21}";
},
{
name = top;
position = "{898, 1409}";
}
);
layerId = "B71E0DD6-B640-4F5E-B48D-BF5E04BC2E71";
paths = (
{
closed = 1;
nodes = (
"886 50 LINE",
"886 696 LINE",
"1211 667 OFFCURVE",
"1470 525 OFFCURVE",
"1529 346 CURVE SMOOTH",
"1575 208 OFFCURVE",
"1652 29 OFFCURVE",
"1677 0 CURVE",
"1813 0 LINE",
"1630 140 OFFCURVE",
"1541 252 OFFCURVE",
"1490 415 CURVE SMOOTH",
"1417 647 OFFCURVE",
"1329 743 OFFCURVE",
"1147 776 CURVE",
"1184 821 OFFCURVE",
"1223 900 OFFCURVE",
"1272 1028 CURVE SMOOTH",
"1334 1192 OFFCURVE",
"1412 1349 OFFCURVE",
"1590 1349 CURVE SMOOTH",
"1653 1349 OFFCURVE",
"1740 1333 OFFCURVE",
"1740 1333 CURVE",
"1740 1321 LINE SMOOTH",
"1740 1313 OFFCURVE",
"1687 1279 OFFCURVE",
"1687 1223 CURVE SMOOTH",
"1687 1209 OFFCURVE",
"1666 1189 OFFCURVE",
"1650 1189 CURVE SMOOTH",
"1620 1189 OFFCURVE",
"1640 1222 OFFCURVE",
"1640 1288 CURVE SMOOTH",
"1640 1343 OFFCURVE",
"1622 1436 OFFCURVE",
"1615 1436 CURVE",
"1615 1436 OFFCURVE",
"1598 1390 OFFCURVE",
"1596 1387 CURVE SMOOTH",
"1591 1380 OFFCURVE",
"1503 1204 OFFCURVE",
"1460 1097 CURVE SMOOTH",
"1383 907 OFFCURVE",
"1336 862 OFFCURVE",
"1156 810 CURVE SMOOTH",
"1127 801 OFFCURVE",
"970 793 OFFCURVE",
"886 807 CURVE",
"886 1380 LINE",
"908 1380 LINE",
"908 50 LINE"
);
},
{
closed = 1;
nodes = (
"117 0 LINE",
"143 30 OFFCURVE",
"219 206 OFFCURVE",
"266 348 CURVE SMOOTH",
"324 524 OFFCURVE",
"586 668 OFFCURVE",
"908 696 CURVE",
"908 50 LINE",
"886 50 LINE",
"886 1380 LINE",
"908 1380 LINE",
"908 807 LINE",
"822 793 OFFCURVE",
"671 801 OFFCURVE",
"639 810 CURVE SMOOTH",
"458 862 OFFCURVE",
"410 908 OFFCURVE",
"334 1098 CURVE SMOOTH",
"298 1187 OFFCURVE",
"208 1373 OFFCURVE",
"198 1386 CURVE SMOOTH",
"196 1388 OFFCURVE",
"179 1436 OFFCURVE",
"179 1436 CURVE",
"172 1436 OFFCURVE",
"154 1342 OFFCURVE",
"154 1288 CURVE SMOOTH",
"154 1232 OFFCURVE",
"173 1189 OFFCURVE",
"144 1189 CURVE SMOOTH",
"128 1189 OFFCURVE",
"107 1209 OFFCURVE",
"107 1223 CURVE SMOOTH",
"107 1279 OFFCURVE",
"54 1313 OFFCURVE",
"54 1321 CURVE SMOOTH",
"54 1336 OFFCURVE",
"100 1349 OFFCURVE",
"204 1349 CURVE SMOOTH",
"382 1349 OFFCURVE",
"460 1192 OFFCURVE",
"522 1029 CURVE SMOOTH",
"572 899 OFFCURVE",
"611 821 OFFCURVE",
"648 776 CURVE",
"465 742 OFFCURVE",
"377 647 OFFCURVE",
"304 416 CURVE SMOOTH",
"251 250 OFFCURVE",
"167 144 OFFCURVE",
"-18 0 CURVE"
);
}
);
width = 1794;
}
);
unicode = 0416;
},
{
color = 1;
glyphname = "Ze-cy";
lastChange = "2019-12-17 01:48:37 +0000";
layers = (
{
anchors = (
{
name = bottom;
position = "{550, 0}";
},
{
name = top;
position = "{580, 1430}";
}
);
layerId = "66066CCB-AAC9-4485-8967-3F6B885ABFA4";
paths = (
{
closed = 1;
nodes = (
"903 -51 OFFCURVE",
"1132 131 OFFCURVE",
"1132 406 CURVE SMOOTH",
"1132 560 OFFCURVE",
"1069 694 OFFCURVE",
"966 774 CURVE",
"1049 838 OFFCURVE",
"1092 933 OFFCURVE",
"1092 1056 CURVE SMOOTH",
"1092 1309 OFFCURVE",
"905 1462 OFFCURVE",
"596 1462 CURVE SMOOTH",
"358 1462 OFFCURVE",
"180 1368 OFFCURVE",
"102 1196 CURVE",
"98 1006 OFFCURVE",
"152 903 OFFCURVE",
"267 903 CURVE SMOOTH",
"370 903 OFFCURVE",
"460 972 OFFCURVE",
"460 1069 CURVE SMOOTH",
"460 1151 OFFCURVE",
"438 1153 OFFCURVE",
"361 1223 CURVE",
"373 1200 OFFCURVE",
"373 1166 OFFCURVE",
"373 1182 CURVE SMOOTH",
"373 1209 OFFCURVE",
"507 1265 OFFCURVE",
"596 1265 CURVE SMOOTH",
"690 1265 OFFCURVE",
"747 1164 OFFCURVE",
"747 1031 CURVE SMOOTH",
"747 910 OFFCURVE",
"696 868 OFFCURVE",
"547 868 CURVE SMOOTH",
"300 868 LINE",
"300 671 LINE",
"551 671 LINE SMOOTH",
"689 671 OFFCURVE",
"766 578 OFFCURVE",
"766 412 CURVE SMOOTH",
"766 266 OFFCURVE",
"686 147 OFFCURVE",
"561 147 CURVE SMOOTH",
"460 147 OFFCURVE",
"324 222 OFFCURVE",
"324 271 CURVE SMOOTH",
"324 268 OFFCURVE",
"324 252 OFFCURVE",
"312 230 CURVE",
"390 301 OFFCURVE",
"411 305 OFFCURVE",
"411 385 CURVE SMOOTH",
"411 482 OFFCURVE",
"320 550 OFFCURVE",
"217 550 CURVE SMOOTH",
"104 550 OFFCURVE",
"51 450 OFFCURVE",
"53 263 CURVE",
"105 63 OFFCURVE",
"294 -51 OFFCURVE",
"561 -51 CURVE SMOOTH"
);
}
);
width = 1201;
},
{
anchors = (
{
name = bottom;
position = "{484, 21}";
},
{
name = top;
position = "{515, 1409}";
}
);
layerId = "B71E0DD6-B640-4F5E-B48D-BF5E04BC2E71";
paths = (
{
closed = 1;
nodes = (
"721 -37 OFFCURVE",
"860 121 OFFCURVE",
"860 388 CURVE SMOOTH",
"860 547 OFFCURVE",
"787 725 OFFCURVE",
"713 787 CURVE",
"777 837 OFFCURVE",
"820 950 OFFCURVE",
"820 1089 CURVE SMOOTH",
"820 1330 OFFCURVE",
"716 1459 OFFCURVE",
"517 1459 CURVE SMOOTH",
"361 1459 OFFCURVE",
"299 1417 OFFCURVE",
"214 1252 CURVE",
"214 1241 LINE SMOOTH",
"214 989 OFFCURVE",
"290 1041 OFFCURVE",
"190 1042 CURVE",
"189 1066 OFFCURVE",
"188 1092 OFFCURVE",
"188 1102 CURVE SMOOTH",
"188 1112 OFFCURVE",
"171 1198 OFFCURVE",
"163 1209 CURVE",
"134 1231 OFFCURVE",
"101 1249 OFFCURVE",
"101 1225 CURVE SMOOTH",
"101 1278 OFFCURVE",
"362 1382 OFFCURVE",
"517 1382 CURVE SMOOTH",
"733 1382 OFFCURVE",
"861 1264 OFFCURVE",
"861 1062 CURVE SMOOTH",
"861 906 OFFCURVE",
"719 819 OFFCURVE",
"468 819 CURVE SMOOTH",
"414 819 LINE",
"414 741 LINE",
"472 741 LINE SMOOTH",
"725 741 OFFCURVE",
"879 610 OFFCURVE",
"879 394 CURVE SMOOTH",
"879 181 OFFCURVE",
"721 40 OFFCURVE",
"482 40 CURVE SMOOTH",
"310 40 OFFCURVE",
"52 166 OFFCURVE",
"52 243 CURVE SMOOTH",
"52 219 OFFCURVE",
"84 236 OFFCURVE",
"114 258 CURVE",
"122 271 OFFCURVE",
"139 356 OFFCURVE",
"139 365 CURVE",
"139 365 OFFCURVE",
"140 387 OFFCURVE",
"140 411 CURVE",
"147 382 OFFCURVE",
"167 309 OFFCURVE",
"167 225 CURVE",
"225 30 OFFCURVE",
"306 -37 OFFCURVE",
"482 -37 CURVE SMOOTH"
);
}
);
width = 1017;
}
);
unicode = 0417;
},
{
color = 1;
glyphname = "Ii-cy";
lastChange = "2019-12-17 01:48:37 +0000";
layers = (
{
anchors = (
{
name = bottomright;
position = "{1469, 62}";
},
{
name = top;
position = "{797, 1357}";
}
);
layerId = "66066CCB-AAC9-4485-8967-3F6B885ABFA4";
paths = (
{
closed = 1;
nodes = (
"375 -26 LINE",
"1246 833 LINE",
"1246 -26 LINE",
"1457 -26 LINE",
"1457 1445 LINE",
"1216 1445 LINE",
"350 590 LINE",
"350 1445 LINE",
"138 1445 LINE",
"138 -26 LINE"
);
}
);
width = 1595;
},
{
anchors = (
{
name = bottomright;
position = "{1384, 21}";
},
{
name = top;
position = "{713, 1409}";
}
);
layerId = "B71E0DD6-B640-4F5E-B48D-BF5E04BC2E71";
paths = (
{
closed = 1;
nodes = (
"197 50 LINE",
"1365 1354 LINE",
"1365 50 LINE",
"1168 50 LINE",
"1168 1380 LINE",
"1224 1380 LINE",
"60 80 LINE",
"60 1380 LINE",
"257 1380 LINE",
"257 50 LINE"
);
}
);
width = 1425;
}
);
unicode = 0418;
},
{
color = 1;
glyphname = "Ka-cy";
lastChange = "2019-12-17 01:48:37 +0000";
layers = (
{
anchors = (
{
name = bottomright;
position = "{1288, 62}";
},
{
name = top;
position = "{783, 1357}";
}
);
layerId = "66066CCB-AAC9-4485-8967-3F6B885ABFA4";
paths = (
{
closed = 1;
nodes = (
"527 -26 LINE",
"527 755 LINE",
"338 755 LINE",
"1076 -18 LINE",
"1590 -18 LINE",
"871 738 LINE",
"966 805 OFFCURVE",
"1023 877 OFFCURVE",
"1079 997 CURVE SMOOTH",
"1213 1286 OFFCURVE",
"1293 1378 OFFCURVE",
"1197 1378 CURVE SMOOTH",
"1150 1378 OFFCURVE",
"1147 1345 OFFCURVE",
"1147 1297 CURVE SMOOTH",
"1147 1281 LINE SMOOTH",
"1147 1247 OFFCURVE",
"1093 1318 OFFCURVE",
"1093 1189 CURVE SMOOTH",
"1093 1090 OFFCURVE",
"1158 1041 OFFCURVE",
"1261 1041 CURVE SMOOTH",
"1384 1041 OFFCURVE",
"1455 1122 OFFCURVE",
"1455 1250 CURVE SMOOTH",
"1455 1383 OFFCURVE",
"1372 1448 OFFCURVE",
"1226 1448 CURVE SMOOTH",
"1146 1448 OFFCURVE",
"1106 1435 OFFCURVE",
"1057 1382 CURVE SMOOTH",
"984 1303 OFFCURVE",
"937 1226 OFFCURVE",
"884 1105 CURVE SMOOTH",
"822 963 OFFCURVE",
"756 884 OFFCURVE",
"676 860 CURVE SMOOTH",
"625 846 OFFCURVE",
"597 841 OFFCURVE",
"527 839 CURVE",
"527 1445 LINE",
"140 1445 LINE",
"140 -26 LINE"
);
}
);
width = 1534;
},
{
anchors = (
{
name = bottomright;
position = "{1176, 21}";
},
{
name = top;
position = "{671, 1409}";
}
);
layerId = "B71E0DD6-B640-4F5E-B48D-BF5E04BC2E71";
paths = (
{
closed = 1;
nodes = (
"210 50 LINE",
"210 687 LINE",
"488 687 LINE",
"1100 0 LINE",
"1224 0 LINE",
"565 740 LINE",
"644 783 OFFCURVE",
"695 860 OFFCURVE",
"779 1049 CURVE SMOOTH",
"854 1217 OFFCURVE",
"899 1355 OFFCURVE",
"1085 1355 CURVE SMOOTH",
"1086 1355 OFFCURVE",
"1239 1344 OFFCURVE",
"1239 1345 CURVE SMOOTH",
"1239 1327 LINE SMOOTH",
"1239 1319 OFFCURVE",
"1186 1285 OFFCURVE",
"1186 1229 CURVE SMOOTH",
"1186 1215 OFFCURVE",
"1165 1195 OFFCURVE",
"1149 1195 CURVE SMOOTH",
"1119 1195 OFFCURVE",
"1139 1226 OFFCURVE",
"1139 1294 CURVE SMOOTH",
"1139 1349 OFFCURVE",
"1121 1442 OFFCURVE",
"1114 1442 CURVE",
"1114 1442 OFFCURVE",
"1105 1417 OFFCURVE",
"1101 1401 CURVE",
"1093 1391 OFFCURVE",
"1007 1222 OFFCURVE",
"965 1117 CURVE SMOOTH",
"899 956 OFFCURVE",
"815 882 OFFCURVE",
"636 815 CURVE SMOOTH",
"585 796 OFFCURVE",
"414 783 OFFCURVE",
"210 785 CURVE",
"210 1380 LINE",
"232 1380 LINE",
"232 50 LINE"
);
}
);
width = 1217;
}
);
unicode = 041A;
},
{
color = 1;
glyphname = "El-cy";
lastChange = "2019-12-17 01:48:37 +0000";
layers = (
{
layerId = "66066CCB-AAC9-4485-8967-3F6B885ABFA4";
paths = (
{
closed = 1;
nodes = (
"325 -29 OFFCURVE",
"366 -14 OFFCURVE",
"412 35 CURVE SMOOTH",
"458 83 OFFCURVE",
"456 80 OFFCURVE",
"485 135 CURVE SMOOTH",
"666 475 OFFCURVE",
"718 709 OFFCURVE",
"723 1235 CURVE",
"1013 1235 LINE",
"1013 -16 LINE",
"1376 -16 LINE",
"1376 1235 LINE",
"1520 1235 LINE",
"1520 1435 LINE",
"388 1435 LINE",
"388 1235 LINE",
"524 1235 LINE",
"524 1249 LINE SMOOTH",
"524 932 OFFCURVE",
"521 637 OFFCURVE",
"297 211 CURVE",
"297 210 LINE",
"266 148 OFFCURVE",
"238 56 OFFCURVE",
"299 56 CURVE",
"304 259 OFFCURVE",
"289 143 OFFCURVE",
"289 140 CURVE",
"319 169 OFFCURVE",
"373 75 OFFCURVE",
"373 232 CURVE SMOOTH",
"373 325 OFFCURVE",
"313 372 OFFCURVE",
"217 372 CURVE SMOOTH",
"98 372 OFFCURVE",
"34 296 OFFCURVE",
"34 170 CURVE SMOOTH",
"34 42 OFFCURVE",
"114 -29 OFFCURVE",
"252 -29 CURVE SMOOTH"
);
}
);
width = 1546;
},
{
layerId = "B71E0DD6-B640-4F5E-B48D-BF5E04BC2E71";
paths = (
{
closed = 1;
nodes = (
"140 -14 OFFCURVE",
"145 11 OFFCURVE",
"145 30 CURVE",
"166 62 OFFCURVE",
"180 101 OFFCURVE",
"193 127 CURVE SMOOTH",
"387 535 OFFCURVE",
"412 856 OFFCURVE",
"413 1349 CURVE",
"1088 1349 LINE",
"1088 50 LINE",
"1066 50 LINE",
"1066 1349 LINE",
"1210 1349 LINE",
"1210 1430 LINE",
"464 1430 LINE",
"464 1349 LINE",
"600 1349 LINE",
"600 1296 LINE SMOOTH",
"600 860 OFFCURVE",
"572 608 OFFCURVE",
"354 145 CURVE",
"354 138 LINE SMOOTH",
"354 139 OFFCURVE",
"181 85 OFFCURVE",
"182 85 CURVE SMOOTH",
"183 85 OFFCURVE",
"9 102 OFFCURVE",
"9 101 CURVE SMOOTH",
"9 109 OFFCURVE",
"63 144 OFFCURVE",
"63 199 CURVE SMOOTH",
"63 214 OFFCURVE",
"83 233 OFFCURVE",
"99 233 CURVE SMOOTH",
"131 233 OFFCURVE",
"109 231 OFFCURVE",
"109 134 CURVE SMOOTH",
"109 80 OFFCURVE",
"127 -14 OFFCURVE",
"134 -14 CURVE SMOOTH"
);
}
);
width = 1236;
}
);
unicode = 041B;
},
{
color = 1;
glyphname = "Pe-cy";
lastChange = "2019-12-17 01:48:37 +0000";
layers = (
{
anchors = (
{
name = bottomright;
position = "{1448, 62}";
}
);
layerId = "66066CCB-AAC9-4485-8967-3F6B885ABFA4";
paths = (
{
closed = 1;
nodes = (
"525 -26 LINE",
"525 1244 LINE",
"1050 1244 LINE",
"1050 -26 LINE",
"1437 -26 LINE",
"1437 1437 LINE",
"138 1437 LINE",
"138 -26 LINE"
);
}
);
width = 1575;
},
{
anchors = (
{
name = bottomright;
position = "{1364, 21}";
}
);
layerId = "B71E0DD6-B640-4F5E-B48D-BF5E04BC2E71";
paths = (
{
closed = 1;
nodes = (
"235 50 LINE",
"235 1353 LINE",
"1170 1353 LINE",
"1170 50 LINE",
"1148 50 LINE",
"1148 1430 LINE",
"257 1430 LINE",
"257 50 LINE"
);
}
);
width = 1405;
}
);
unicode = 041F;
},
{
color = 1;
glyphname = "U-cy";
lastChange = "2019-12-17 01:48:37 +0000";
layers = (
{
anchors = (
{
name = top;
position = "{671, 1357}";
}
);
layerId = "66066CCB-AAC9-4485-8967-3F6B885ABFA4";
paths = (
{
closed = 1;
nodes = (
"552 -31 OFFCURVE",
"635 176 OFFCURVE",
"710 353 CURVE SMOOTH",
"1172 1445 LINE",
"952 1445 LINE",
"713 946 LINE",
"434 1437 LINE",
"-4 1437 LINE",
"511 414 LINE",
"443 262 OFFCURVE",
"383 172 OFFCURVE",
"341 172 CURVE",
"340 -78 OFFCURVE",
"373 109 OFFCURVE",
"373 136 CURVE SMOOTH",
"373 170 OFFCURVE",
"427 98 OFFCURVE",
"427 229 CURVE SMOOTH",
"427 331 OFFCURVE",
"362 376 OFFCURVE",
"252 376 CURVE SMOOTH",
"126 376 OFFCURVE",
"65 301 OFFCURVE",
"65 165 CURVE SMOOTH",
"65 20 OFFCURVE",
"133 -31 OFFCURVE",
"294 -31 CURVE SMOOTH"
);
}
);
width = 1167;
},
{
anchors = (
{
name = top;
position = "{638, 1409}";
}
);
layerId = "B71E0DD6-B640-4F5E-B48D-BF5E04BC2E71";
paths = (
{
closed = 1;
nodes = (
"337 -14 OFFCURVE",
"369 57 OFFCURVE",
"488 357 CURVE SMOOTH",
"893 1380 LINE",
"1073 1380 LINE",
"695 439 LINE",
"232 1430 LINE",
"196 1430 LINE",
"680 396 LINE",
"592 182 OFFCURVE",
"512 73 OFFCURVE",
"309 73 CURVE",
"309 73 OFFCURVE",
"136 102 OFFCURVE",
"136 101 CURVE SMOOTH",
"136 109 OFFCURVE",
"190 144 OFFCURVE",
"190 199 CURVE SMOOTH",
"190 210 OFFCURVE",
"208 233 OFFCURVE",
"220 233 CURVE SMOOTH",
"245 233 OFFCURVE",
"236 239 OFFCURVE",
"236 132 CURVE SMOOTH",
"236 64 OFFCURVE",
"252 -14 OFFCURVE",
"261 -14 CURVE SMOOTH"
);
}
);
width = 1051;
}
);
unicode = 0423;
},
{
color = 1;
glyphname = "Ef-cy";
lastChange = "2019-12-17 01:48:37 +0000";
layers = (
{
layerId = "66066CCB-AAC9-4485-8967-3F6B885ABFA4";
paths = (
{
closed = 1;
nodes = (
"971 -26 LINE",
"971 187 LINE",
"1308 228 OFFCURVE",
"1504 419 OFFCURVE",
"1504 707 CURVE SMOOTH",
"1504 997 OFFCURVE",
"1309 1189 OFFCURVE",
"971 1232 CURVE",
"971 1445 LINE",
"584 1445 LINE",
"584 1232 LINE",
"252 1189 OFFCURVE",
"55 996 OFFCURVE",
"55 707 CURVE SMOOTH",
"55 422 OFFCURVE",
"250 230 OFFCURVE",
"584 187 CURVE",
"584 -26 LINE"
);
},
{
closed = 1;
nodes = (
"502 517 OFFCURVE",
"454 624 OFFCURVE",
"454 707 CURVE SMOOTH",
"454 790 OFFCURVE",
"502 899 OFFCURVE",
"584 1001 CURVE",
"584 417 LINE"
);
},
{
closed = 1;
nodes = (
"971 1004 LINE",
"1055 902 OFFCURVE",
"1105 792 OFFCURVE",
"1105 707 CURVE SMOOTH",
"1105 622 OFFCURVE",
"1055 513 OFFCURVE",
"971 414 CURVE"
);
}
);
width = 1559;
},
{
layerId = "B71E0DD6-B640-4F5E-B48D-BF5E04BC2E71";
paths = (
{
closed = 1;
nodes = (
"655 50 LINE",
"655 224 LINE",
"1004 182 OFFCURVE",
"1189 353 OFFCURVE",
"1189 712 CURVE SMOOTH",
"1189 1075 OFFCURVE",
"1003 1249 OFFCURVE",
"655 1206 CURVE",
"655 1380 LINE",
"677 1380 LINE",
"677 1206 LINE",
"335 1250 OFFCURVE",
"148 1074 OFFCURVE",
"148 712 CURVE SMOOTH",
"148 354 OFFCURVE",
"334 181 OFFCURVE",
"677 224 CURVE",
"677 50 LINE"
);
},
{
closed = 1;
nodes = (
"391 249 OFFCURVE",
"138 442 OFFCURVE",
"138 712 CURVE SMOOTH",
"138 986 OFFCURVE",
"390 1182 OFFCURVE",
"677 1126 CURVE",
"677 304 LINE"
);
},
{
closed = 1;
nodes = (
"655 1126 LINE",
"944 1181 OFFCURVE",
"1198 986 OFFCURVE",
"1198 712 CURVE SMOOTH",
"1198 442 OFFCURVE",
"944 249 OFFCURVE",
"655 304 CURVE"
);
}
);
width = 1336;
}
);
unicode = 0424;
},
{
color = 1;
glyphname = "Che-cy";
lastChange = "2019-12-17 01:48:37 +0000";
layers = (
{
anchors = (
{
name = bottomright;
position = "{1184, 62}";
},
{
name = top;
position = "{665, 1357}";
}
);
layerId = "66066CCB-AAC9-4485-8967-3F6B885ABFA4";
paths = (
{
closed = 1;
nodes = (
"1185 -26 LINE",
"1185 1445 LINE",
"798 1445 LINE",
"798 704 LINE",
"784 699 OFFCURVE",
"750 702 OFFCURVE",
"707 702 CURVE SMOOTH",
"516 702 OFFCURVE",
"468 760 OFFCURVE",
"468 990 CURVE SMOOTH",
"468 1445 LINE",
"69 1445 LINE",
"69 999 LINE SMOOTH",
"69 664 OFFCURVE",
"256 509 OFFCURVE",
"649 509 CURVE SMOOTH",
"711 509 OFFCURVE",
"762 497 OFFCURVE",
"798 491 CURVE",
"798 -26 LINE"
);
}
);
width = 1323;
},
{
anchors = (
{
name = bottomright;
position = "{1131, 21}";
},
{
name = top;
position = "{611, 1409}";
}
);
layerId = "B71E0DD6-B640-4F5E-B48D-BF5E04BC2E71";
paths = (
{
closed = 1;
nodes = (
"927 50 LINE",
"927 1380 LINE",
"949 1380 LINE",
"949 721 LINE",
"917 684 OFFCURVE",
"768 642 OFFCURVE",
"653 642 CURVE SMOOTH",
"333 642 OFFCURVE",
"210 748 OFFCURVE",
"210 1017 CURVE SMOOTH",
"210 1380 LINE",
"220 1380 LINE",
"220 1026 LINE SMOOTH",
"220 694 OFFCURVE",
"325 565 OFFCURVE",
"595 565 CURVE SMOOTH",
"557 565 OFFCURVE",
"807 673 OFFCURVE",
"949 763 CURVE",
"949 50 LINE"
);
}
);
width = 1184;
}
);
unicode = 0427;
},
{
color = 1;
glyphname = "Tse-cy";
lastChange = "2019-12-17 01:48:37 +0000";
layers = (
{
components = (
{
name = danglycyrillicserif;
transform = "{-1, 0, 0, 1, 1451, 62}";
}
);
layerId = "66066CCB-AAC9-4485-8967-3F6B885ABFA4";
paths = (
{
closed = 1;
nodes = (
"1207 0 LINE",
"1207 1427 LINE",
"964 1427 LINE",
"964 157 LINE",
"377 157 LINE",
"377 1427 LINE",
"134 1427 LINE",
"134 0 LINE"
);
},
{
closed = 1;
nodes = (
"1292 -8 LINE",
"1292 165 LINE",
"1177 165 LINE",
"1177 -8 LINE"
);
}
);
width = 1353;
},
{
components = (
{
name = danglycyrillicserif;
transform = "{-1, 0, 0, 1, 1442, 25}";
}
);
layerId = "B71E0DD6-B640-4F5E-B48D-BF5E04BC2E71";
paths = (
{
closed = 1;
nodes = (
"1066 1 LINE",
"1066 1381 LINE",
"1087 1381 LINE",
"1087 78 LINE",
"236 78 LINE",
"236 1381 LINE",
"257 1381 LINE",
"257 1 LINE"
);
},
{
closed = 1;
nodes = (
"1151 51 LINE",
"1151 28 LINE",
"1300 28 LINE",
"1300 51 LINE"
);
}
);
width = 1296;
}
);
unicode = 0426;
},
{
color = 1;
glyphname = "Sha-cy";
lastChange = "2019-12-17 01:48:37 +0000";
layers = (
{
layerId = "66066CCB-AAC9-4485-8967-3F6B885ABFA4";
paths = (
{
closed = 1;
nodes = (
"2184 -18 LINE",
"2184 1445 LINE",
"1798 1445 LINE",
"1798 175 LINE",
"1354 175 LINE",
"1354 1445 LINE",
"967 1445 LINE",
"967 175 LINE",
"525 175 LINE",
"525 1445 LINE",
"138 1445 LINE",
"138 -18 LINE"
);
}
);
width = 2322;
},
{
layerId = "B71E0DD6-B640-4F5E-B48D-BF5E04BC2E71";
paths = (
{
closed = 1;
nodes = (
"1895 0 LINE",
"1895 1380 LINE",
"1917 1380 LINE",
"1917 77 LINE",
"1065 77 LINE",
"1065 1380 LINE",
"1087 1380 LINE",
"1087 77 LINE",
"235 77 LINE",
"235 1380 LINE",
"257 1380 LINE",
"257 0 LINE"
);
}
);
width = 2152;
}
);
unicode = 0428;
},
{
color = 1;
glyphname = "Shcha-cy";
lastChange = "2019-12-17 01:48:37 +0000";
layers = (
{
components = (
{
name = danglycyrillicserif;
transform = "{-1, 0, 0, 1, 2282, 62}";
}
);
layerId = "66066CCB-AAC9-4485-8967-3F6B885ABFA4";
paths = (
{
closed = 1;
nodes = (
"2037 0 LINE",
"2037 1427 LINE",
"1795 1427 LINE",
"1795 157 LINE",
"1207 157 LINE",
"1207 1427 LINE",
"964 1427 LINE",
"964 157 LINE",
"377 157 LINE",
"377 1427 LINE",
"134 1427 LINE",
"134 0 LINE"
);
},
{
closed = 1;
nodes = (
"2122 -8 LINE",
"2122 165 LINE",
"2006 165 LINE",
"2006 -8 LINE"
);
}
);
width = 2179;
},
{
components = (
{
name = danglycyrillicserif;
transform = "{-1, 0, 0, 1, 2273, 25}";
}
);
layerId = "B71E0DD6-B640-4F5E-B48D-BF5E04BC2E71";
paths = (
{
closed = 1;
nodes = (
"1896 1 LINE",
"1896 1381 LINE",
"1918 1381 LINE",
"1918 78 LINE",
"1066 78 LINE",
"1066 1381 LINE",
"1087 1381 LINE",
"1087 78 LINE",
"236 78 LINE",
"236 1381 LINE",
"257 1381 LINE",
"257 1 LINE"
);
},
{
closed = 1;
nodes = (
"1981 51 LINE",
"1981 28 LINE",
"2130 28 LINE",
"2130 51 LINE"
);
}
);
width = 2102;
}
);
unicode = 0429;
},
{
color = 1;
glyphname = "Dzhe-cy";
lastChange = "2019-12-17 01:48:37 +0000";
layers = (
{
components = (
{
name = "cyrillic-descender";
transform = "{1, 0, 0, 1, 23, 62}";
}
);
layerId = "66066CCB-AAC9-4485-8967-3F6B885ABFA4";
paths = (
{
closed = 1;
nodes = (
"1221 0 LINE",
"1221 1427 LINE",
"977 1427 LINE",
"977 157 LINE",
"391 157 LINE",
"391 1427 LINE",
"148 1427 LINE",
"148 0 LINE"
);
}
);
width = 1314;
},
{
components = (
{
name = "cyrillic-descender";
transform = "{1, 0, 0, 1, 0, 25}";
}
);
layerId = "B71E0DD6-B640-4F5E-B48D-BF5E04BC2E71";
paths = (
{
closed = 1;
nodes = (
"1066 1 LINE",
"1066 1381 LINE",
"1087 1381 LINE",
"1087 78 LINE",
"236 78 LINE",
"236 1381 LINE",
"257 1381 LINE",
"257 1 LINE"
);
}
);
width = 1296;
}
);
unicode = 040F;
},
{
color = 1;
glyphname = "Softsign-cy";
lastChange = "2019-12-17 01:48:37 +0000";
layers = (
{
layerId = "66066CCB-AAC9-4485-8967-3F6B885ABFA4";
paths = (
{
closed = 1;
nodes = (
"629 -18 LINE SMOOTH",
"1080 -18 OFFCURVE",
"1300 126 OFFCURVE",
"1300 430 CURVE SMOOTH",
"1300 723 OFFCURVE",
"1102 845 OFFCURVE",
"650 845 CURVE SMOOTH",
"525 845 LINE",
"525 1445 LINE",
"138 1445 LINE",
"138 -18 LINE"
);
},
{
closed = 1;
nodes = (
"525 652 LINE",
"681 652 LINE SMOOTH",
"821 652 OFFCURVE",
"899 573 OFFCURVE",
"899 430 CURVE SMOOTH",
"899 274 OFFCURVE",
"793 175 OFFCURVE",
"629 175 CURVE SMOOTH",
"525 175 LINE"
);
}
);
width = 1343;
},
{
layerId = "B71E0DD6-B640-4F5E-B48D-BF5E04BC2E71";
paths = (
{
closed = 1;
nodes = (
"544 0 LINE SMOOTH",
"825 0 OFFCURVE",
"1010 31 OFFCURVE",
"1010 415 CURVE SMOOTH",
"1010 770 OFFCURVE",
"863 795 OFFCURVE",
"564 795 CURVE SMOOTH",
"235 795 LINE",
"235 1380 LINE",
"257 1380 LINE",
"257 0 LINE"
);
},
{
closed = 1;
nodes = (
"235 718 LINE",
"595 718 LINE SMOOTH",
"851 718 OFFCURVE",
"1019 598 OFFCURVE",
"1019 415 CURVE SMOOTH",
"1019 218 OFFCURVE",
"820 77 OFFCURVE",
"544 77 CURVE SMOOTH",
"235 77 LINE"
);
}
);
width = 1234;
}
);
unicode = 042C;
},
{
color = 1;
glyphname = "Hardsign-cy";
lastChange = "2019-12-17 01:48:37 +0000";
layers = (
{
layerId = "66066CCB-AAC9-4485-8967-3F6B885ABFA4";
paths = (
{
closed = 1;
nodes = (
"835 -18 LINE SMOOTH",
"1285 -18 OFFCURVE",
"1506 125 OFFCURVE",
"1506 430 CURVE SMOOTH",
"1506 723 OFFCURVE",
"1308 845 OFFCURVE",
"856 845 CURVE SMOOTH",
"731 845 LINE",
"731 1437 LINE",
"35 1437 LINE",
"35 1244 LINE",
"344 1244 LINE",
"344 -18 LINE"
);
},
{
closed = 1;
nodes = (
"731 652 LINE",
"887 652 LINE SMOOTH",
"1027 652 OFFCURVE",
"1106 573 OFFCURVE",
"1106 430 CURVE SMOOTH",
"1106 274 OFFCURVE",
"999 175 OFFCURVE",
"835 175 CURVE SMOOTH",
"731 175 LINE"
);
}
);
width = 1552;
},
{
layerId = "B71E0DD6-B640-4F5E-B48D-BF5E04BC2E71";
paths = (
{
closed = 1;
nodes = (
"676 0 LINE SMOOTH",
"957 0 OFFCURVE",
"1142 31 OFFCURVE",
"1142 415 CURVE SMOOTH",
"1142 770 OFFCURVE",
"995 795 OFFCURVE",
"696 795 CURVE SMOOTH",
"367 795 LINE",
"367 1430 LINE",
"80 1430 LINE",
"80 1353 LINE",
"389 1353 LINE",
"389 0 LINE"
);
},
{
closed = 1;
nodes = (
"367 718 LINE",
"727 718 LINE SMOOTH",
"983 718 OFFCURVE",
"1151 598 OFFCURVE",
"1151 415 CURVE SMOOTH",
"1151 218 OFFCURVE",
"952 77 OFFCURVE",
"676 77 CURVE SMOOTH",
"367 77 LINE"
);
}
);
width = 1339;
}
);
unicode = 042A;
},
{
color = 1;
glyphname = "Yeru-cy";
lastChange = "2019-12-17 01:48:37 +0000";
layers = (
{
anchors = (
{
name = top;
position = "{863, 1357}";
}
);
layerId = "66066CCB-AAC9-4485-8967-3F6B885ABFA4";
paths = (
{
closed = 1;
nodes = (
"567 -18 LINE SMOOTH",
"1015 -18 OFFCURVE",
"1238 128 OFFCURVE",
"1238 430 CURVE SMOOTH",
"1238 723 OFFCURVE",
"1040 845 OFFCURVE",
"588 845 CURVE SMOOTH",
"525 845 LINE",
"525 1445 LINE",
"138 1445 LINE",
"138 -18 LINE"
);
},
{
closed = 1;
nodes = (
"525 652 LINE",
"619 652 LINE SMOOTH",
"759 652 OFFCURVE",
"838 573 OFFCURVE",
"838 430 CURVE SMOOTH",
"838 275 OFFCURVE",
"731 175 OFFCURVE",
"567 175 CURVE SMOOTH",
"525 175 LINE"
);
},
{
closed = 1;
nodes = (
"1587 -26 LINE",
"1587 1445 LINE",
"1200 1445 LINE",
"1200 -26 LINE"
);
}
);
width = 1725;
},
{
anchors = (
{
name = top;
position = "{779, 1409}";
}
);
layerId = "B71E0DD6-B640-4F5E-B48D-BF5E04BC2E71";
paths = (
{
closed = 1;
nodes = (
"482 0 LINE SMOOTH",
"730 0 OFFCURVE",
"948 10 OFFCURVE",
"948 415 CURVE SMOOTH",
"948 770 OFFCURVE",
"801 795 OFFCURVE",
"502 795 CURVE SMOOTH",
"235 795 LINE",
"235 1380 LINE",
"257 1380 LINE",
"257 0 LINE"
);
},
{
closed = 1;
nodes = (
"235 718 LINE",
"533 718 LINE SMOOTH",
"789 718 OFFCURVE",
"957 598 OFFCURVE",
"957 415 CURVE SMOOTH",
"957 218 OFFCURVE",
"758 77 OFFCURVE",
"482 77 CURVE SMOOTH",
"235 77 LINE"
);
},
{
closed = 1;
nodes = (
"1298 50 LINE",
"1298 1380 LINE",
"1320 1380 LINE",
"1320 50 LINE"
);
}
);
width = 1555;
}
);
unicode = 042B;
},
{
color = 1;
glyphname = "Lje-cy";
lastChange = "2019-12-17 01:48:37 +0000";
layers = (
{
layerId = "66066CCB-AAC9-4485-8967-3F6B885ABFA4";
paths = (
{
closed = 1;
nodes = (
"325 -29 OFFCURVE",
"366 -14 OFFCURVE",
"412 35 CURVE SMOOTH",
"458 83 OFFCURVE",
"456 80 OFFCURVE",
"485 135 CURVE SMOOTH",
"666 475 OFFCURVE",
"718 709 OFFCURVE",
"723 1235 CURVE",
"957 1235 LINE",
"957 -16 LINE",
"1436 -16 LINE SMOOTH",
"1886 -16 OFFCURVE",
"2095 123 OFFCURVE",
"2095 431 CURVE SMOOTH",
"2095 730 OFFCURVE",
"1910 847 OFFCURVE",
"1457 847 CURVE SMOOTH",
"1321 847 LINE",
"1321 1235 LINE",
"1457 1235 LINE",
"1457 1435 LINE",
"388 1435 LINE",
"388 1235 LINE",
"524 1235 LINE",
"524 1249 LINE SMOOTH",
"524 932 OFFCURVE",
"521 637 OFFCURVE",
"297 211 CURVE",
"297 210 LINE",
"266 148 OFFCURVE",
"238 56 OFFCURVE",
"299 56 CURVE",
"304 259 OFFCURVE",
"289 143 OFFCURVE",
"289 140 CURVE",
"319 169 OFFCURVE",
"373 75 OFFCURVE",
"373 232 CURVE SMOOTH",
"373 325 OFFCURVE",
"313 372 OFFCURVE",
"217 372 CURVE SMOOTH",
"98 372 OFFCURVE",
"34 296 OFFCURVE",
"34 170 CURVE SMOOTH",
"34 42 OFFCURVE",
"114 -29 OFFCURVE",
"252 -29 CURVE SMOOTH"
);
},
{
closed = 1;
nodes = (
"1321 650 LINE",
"1488 650 LINE SMOOTH",
"1637 650 OFFCURVE",
"1719 573 OFFCURVE",
"1719 431 CURVE SMOOTH",
"1719 278 OFFCURVE",
"1608 181 OFFCURVE",
"1436 181 CURVE SMOOTH",
"1321 181 LINE"
);
}
);
width = 2150;
},
{
layerId = "B71E0DD6-B640-4F5E-B48D-BF5E04BC2E71";
paths = (
{
closed = 1;
nodes = (
"140 -14 OFFCURVE",
"145 11 OFFCURVE",
"145 30 CURVE",
"166 62 OFFCURVE",
"180 101 OFFCURVE",
"193 127 CURVE SMOOTH",
"387 535 OFFCURVE",
"412 856 OFFCURVE",
"413 1349 CURVE",
"1032 1349 LINE",
"1032 0 LINE",
"1319 0 LINE SMOOTH",
"1567 0 OFFCURVE",
"1785 10 OFFCURVE",
"1785 415 CURVE SMOOTH",
"1785 770 OFFCURVE",
"1638 795 OFFCURVE",
"1339 795 CURVE SMOOTH",
"1010 795 LINE",
"1010 1349 LINE",
"1146 1349 LINE",
"1146 1430 LINE",
"464 1430 LINE",
"464 1349 LINE",
"600 1349 LINE",
"600 1296 LINE SMOOTH",
"600 860 OFFCURVE",
"572 608 OFFCURVE",
"354 145 CURVE",
"354 138 LINE SMOOTH",
"354 139 OFFCURVE",
"181 85 OFFCURVE",
"182 85 CURVE SMOOTH",
"183 85 OFFCURVE",
"9 102 OFFCURVE",
"9 101 CURVE SMOOTH",
"9 109 OFFCURVE",
"63 144 OFFCURVE",
"63 199 CURVE SMOOTH",
"63 214 OFFCURVE",
"83 233 OFFCURVE",
"99 233 CURVE SMOOTH",
"131 233 OFFCURVE",
"109 231 OFFCURVE",
"109 134 CURVE SMOOTH",
"109 80 OFFCURVE",
"127 -14 OFFCURVE",
"134 -14 CURVE SMOOTH"
);
},
{
closed = 1;
nodes = (
"1010 718 LINE",
"1370 718 LINE SMOOTH",
"1626 718 OFFCURVE",
"1794 598 OFFCURVE",
"1794 415 CURVE SMOOTH",
"1794 218 OFFCURVE",
"1595 77 OFFCURVE",
"1319 77 CURVE SMOOTH",
"1010 77 LINE"
);
}
);
width = 2009;
}
);
unicode = 0409;
},
{
color = 1;
glyphname = "Nje-cy";
lastChange = "2019-12-17 01:48:37 +0000";
layers = (
{
layerId = "66066CCB-AAC9-4485-8967-3F6B885ABFA4";
paths = (
{
closed = 1;
nodes = (
"526 -26 LINE",
"526 652 LINE",
"1037 652 LINE",
"1037 -18 LINE",
"1528 -18 LINE SMOOTH",
"1976 -18 OFFCURVE",
"2199 128 OFFCURVE",
"2199 430 CURVE SMOOTH",
"2199 723 OFFCURVE",
"2001 845 OFFCURVE",
"1549 845 CURVE SMOOTH",
"1424 845 LINE",
"1424 1445 LINE",
"1037 1445 LINE",
"1037 845 LINE",
"526 845 LINE",
"526 1445 LINE",
"139 1445 LINE",
"139 -26 LINE"
);
},
{
closed = 1;
nodes = (
"1424 652 LINE",
"1580 652 LINE SMOOTH",
"1720 652 OFFCURVE",
"1800 572 OFFCURVE",
"1800 430 CURVE SMOOTH",
"1800 275 OFFCURVE",
"1693 175 OFFCURVE",
"1528 175 CURVE SMOOTH",
"1424 175 LINE"
);
}
);
width = 2243;
},
{
layerId = "B71E0DD6-B640-4F5E-B48D-BF5E04BC2E71";
paths = (
{
closed = 1;
nodes = (
"223 50 LINE",
"223 718 LINE",
"1143 718 LINE",
"1143 0 LINE",
"1430 0 LINE SMOOTH",
"1678 0 OFFCURVE",
"1896 10 OFFCURVE",
"1896 415 CURVE SMOOTH",
"1896 770 OFFCURVE",
"1749 795 OFFCURVE",
"1450 795 CURVE SMOOTH",
"1121 795 LINE",
"1121 1380 LINE",
"1143 1380 LINE",
"1143 795 LINE",
"223 795 LINE",
"223 1380 LINE",
"245 1380 LINE",
"245 50 LINE"
);
},
{
closed = 1;
nodes = (
"1121 718 LINE",
"1481 718 LINE SMOOTH",
"1737 718 OFFCURVE",
"1905 598 OFFCURVE",
"1905 415 CURVE SMOOTH",
"1905 218 OFFCURVE",
"1706 77 OFFCURVE",
"1430 77 CURVE SMOOTH",
"1121 77 LINE"
);
}
);
width = 2120;
}
);
unicode = 040A;
},
{
color = 1;
glyphname = "Ereversed-cy";
lastChange = "2019-12-17 01:48:37 +0000";
layers = (
{
anchors = (
{
name = top;
position = "{661, 1430}";
}
);
layerId = "66066CCB-AAC9-4485-8967-3F6B885ABFA4";
paths = (
{
closed = 1;
nodes = (
"876 -40 OFFCURVE",
"1058 34 OFFCURVE",
"1194 173 CURVE SMOOTH",
"1331 312 OFFCURVE",
"1406 499 OFFCURVE",
"1406 707 CURVE SMOOTH",
"1406 909 OFFCURVE",
"1329 1103 OFFCURVE",
"1196 1239 CURVE SMOOTH",
"1063 1375 OFFCURVE",
"862 1462 OFFCURVE",
"679 1462 CURVE SMOOTH",
"491 1462 OFFCURVE",
"299 1381 OFFCURVE",
"167 1246 CURVE SMOOTH",
"79 1157 OFFCURVE",
"89 1160 OFFCURVE",
"5 990 CURVE",
"350 990 LINE",
"410 1173 OFFCURVE",
"525 1271 OFFCURVE",
"679 1271 CURVE SMOOTH",
"901 1271 OFFCURVE",
"1052 1043 OFFCURVE",
"1052 707 CURVE SMOOTH",
"1052 376 OFFCURVE",
"902 152 OFFCURVE",
"679 152 CURVE SMOOTH",
"523 152 OFFCURVE",
"406 251 OFFCURVE",
"346 435 CURVE",
"6 435 LINE",
"48 322 OFFCURVE",
"78 271 OFFCURVE",
"145 196 CURVE SMOOTH",
"278 44 OFFCURVE",
"469 -40 OFFCURVE",
"679 -40 CURVE SMOOTH"
);
},
{
closed = 1;
nodes = (
"1276 614 LINE",
"1276 811 LINE",
"440 811 LINE",
"440 614 LINE"
);
}
);
width = 1471;
},
{
anchors = (
{
name = top;
position = "{618, 1409}";
}
);
layerId = "B71E0DD6-B640-4F5E-B48D-BF5E04BC2E71";
paths = (
{
closed = 1;
nodes = (
"757 -25 OFFCURVE",
"840 22 OFFCURVE",
"989 183 CURVE SMOOTH",
"1075 277 OFFCURVE",
"1152 509 OFFCURVE",
"1152 712 CURVE SMOOTH",
"1152 950 OFFCURVE",
"1060 1165 OFFCURVE",
"991 1240 CURVE SMOOTH",
"845 1397 OFFCURVE",
"740 1459 OFFCURVE",
"618 1459 CURVE SMOOTH",
"493 1459 OFFCURVE",
"388 1397 OFFCURVE",
"238 1235 CURVE",
"238 1232 LINE",
"238 1232 OFFCURVE",
"202 1169 OFFCURVE",
"184 1135 CURVE",
"143 1135 LINE",
"222 1286 OFFCURVE",
"408 1388 OFFCURVE",
"618 1388 CURVE SMOOTH",
"978 1388 OFFCURVE",
"1185 1142 OFFCURVE",
"1185 712 CURVE SMOOTH",
"1185 290 OFFCURVE",
"977 46 OFFCURVE",
"618 46 CURVE SMOOTH",
"407 46 OFFCURVE",
"219 148 OFFCURVE",
"140 301 CURVE",
"177 301 LINE",
"195 262 OFFCURVE",
"230 187 OFFCURVE",
"290 138 CURVE",
"411 13 OFFCURVE",
"488 -25 OFFCURVE",
"618 -25 CURVE SMOOTH"
);
},
{
closed = 1;
nodes = (
"1022 679 LINE",
"1022 756 LINE",
"573 756 LINE",
"573 679 LINE"
);
}
);
width = 1332;
}
);
unicode = 042D;
},
{
color = 1;
glyphname = "Tshe-cy";
lastChange = "2019-12-17 01:48:37 +0000";
layers = (
{
layerId = "66066CCB-AAC9-4485-8967-3F6B885ABFA4";
paths = (
{
closed = 1;
nodes = (
"858 -26 LINE",
"858 427 LINE SMOOTH",
"858 617 OFFCURVE",
"961 740 OFFCURVE",
"1119 740 CURVE SMOOTH",
"1230 740 OFFCURVE",
"1285 657 OFFCURVE",
"1285 485 CURVE SMOOTH",
"1285 -26 LINE",
"1668 -26 LINE",
"1668 559 LINE SMOOTH",
"1668 774 OFFCURVE",
"1436 939 OFFCURVE",
"1146 939 CURVE SMOOTH",
"954 939 OFFCURVE",
"900 943 OFFCURVE",
"858 960 CURVE",
"858 1244 LINE",
"1296 1244 LINE",
"1296 1437 LINE",
"31 1437 LINE",
"31 1244 LINE",
"471 1244 LINE",
"471 -26 LINE"
);
}
);
width = 1745;
},
{
layerId = "B71E0DD6-B640-4F5E-B48D-BF5E04BC2E71";
paths = (
{
closed = 1;
nodes = (
"557 50 LINE",
"557 411 LINE SMOOTH",
"557 661 OFFCURVE",
"734 813 OFFCURVE",
"1022 813 CURVE SMOOTH",
"1270 813 OFFCURVE",
"1393 701 OFFCURVE",
"1393 473 CURVE SMOOTH",
"1393 50 LINE",
"1366 50 LINE",
"1366 553 LINE SMOOTH",
"1366 758 OFFCURVE",
"1237 896 OFFCURVE",
"1049 896 CURVE SMOOTH",
"846 896 OFFCURVE",
"839 782 OFFCURVE",
"557 292 CURVE",
"557 1353 LINE",
"994 1353 LINE",
"994 1430 LINE",
"138 1430 LINE",
"138 1353 LINE",
"579 1353 LINE",
"579 50 LINE"
);
}
);
width = 1546;
}
);
unicode = 040B;
},
{
color = 1;
glyphname = "Iu-cy";
lastChange = "2019-12-17 01:48:37 +0000";
layers = (
{
layerId = "66066CCB-AAC9-4485-8967-3F6B885ABFA4";
paths = (
{
closed = 1;
nodes = (
"1509 -40 OFFCURVE",
"1704 33 OFFCURVE",
"1852 171 CURVE SMOOTH",
"2001 309 OFFCURVE",
"2081 496 OFFCURVE",
"2081 707 CURVE SMOOTH",
"2081 918 OFFCURVE",
"1999 1110 OFFCURVE",
"1852 1245 CURVE SMOOTH",
"1708 1378 OFFCURVE",
"1491 1462 OFFCURVE",
"1296 1462 CURVE SMOOTH",
"1106 1462 OFFCURVE",
"889 1377 OFFCURVE",
"744 1244 CURVE SMOOTH",
"595 1108 OFFCURVE",
"514 921 OFFCURVE",
"514 707 CURVE SMOOTH",
"514 496 OFFCURVE",
"594 309 OFFCURVE",
"742 172 CURVE SMOOTH",
"890 34 OFFCURVE",
"1085 -40 OFFCURVE",
"1296 -40 CURVE SMOOTH"
);
},
{
closed = 1;
nodes = (
"503 -16 LINE",
"503 1435 LINE",
"139 1435 LINE",
"139 -16 LINE"
);
},
{
closed = 1;
nodes = (
"814 612 LINE",
"814 809 LINE",
"252 809 LINE",
"252 612 LINE"
);
},
{
closed = 1;
nodes = (
"1050 152 OFFCURVE",
"890 371 OFFCURVE",
"890 707 CURVE SMOOTH",
"890 1048 OFFCURVE",
"1050 1271 OFFCURVE",
"1296 1271 CURVE SMOOTH",
"1544 1271 OFFCURVE",
"1705 1049 OFFCURVE",
"1705 707 CURVE SMOOTH",
"1705 371 OFFCURVE",
"1544 152 OFFCURVE",
"1296 152 CURVE SMOOTH"
);
}
);
width = 2144;
},
{
layerId = "B71E0DD6-B640-4F5E-B48D-BF5E04BC2E71";
paths = (
{
closed = 1;
nodes = (
"1386 -25 OFFCURVE",
"1480 22 OFFCURVE",
"1639 183 CURVE SMOOTH",
"1733 278 OFFCURVE",
"1813 510 OFFCURVE",
"1813 712 CURVE SMOOTH",
"1813 922 OFFCURVE",
"1727 1158 OFFCURVE",
"1640 1243 CURVE SMOOTH",
"1483 1398 OFFCURVE",
"1367 1459 OFFCURVE",
"1221 1459 CURVE SMOOTH",
"1096 1459 OFFCURVE",
"985 1406 OFFCURVE",
"844 1280 CURVE",
"844 1282 LINE",
"739 1220 OFFCURVE",
"632 934 OFFCURVE",
"632 712 CURVE SMOOTH",
"632 515 OFFCURVE",
"711 277 OFFCURVE",
"806 183 CURVE SMOOTH",
"964 25 OFFCURVE",
"1061 -25 OFFCURVE",
"1221 -25 CURVE SMOOTH"
);
},
{
closed = 1;
nodes = (
"235 50 LINE",
"235 1380 LINE",
"257 1380 LINE",
"257 50 LINE"
);
},
{
closed = 1;
nodes = (
"546 677 LINE",
"546 754 LINE",
"370 754 LINE",
"370 677 LINE"
);
},
{
closed = 1;
nodes = (
"844 46 OFFCURVE",
"622 291 OFFCURVE",
"622 712 CURVE SMOOTH",
"622 1139 OFFCURVE",
"844 1388 OFFCURVE",
"1221 1388 CURVE SMOOTH",
"1601 1388 OFFCURVE",
"1823 1139 OFFCURVE",
"1823 712 CURVE SMOOTH",
"1823 291 OFFCURVE",
"1600 46 OFFCURVE",
"1221 46 CURVE SMOOTH"
);
}
);
width = 1974;
}
);
unicode = 042E;
},
{
color = 1;
glyphname = "Dje-cy";
lastChange = "2019-12-17 01:48:37 +0000";
layers = (
{
layerId = "66066CCB-AAC9-4485-8967-3F6B885ABFA4";
paths = (
{
closed = 1;
nodes = (
"1553 -31 OFFCURVE",
"1649 97 OFFCURVE",
"1649 422 CURVE SMOOTH",
"1649 559 LINE SMOOTH",
"1649 775 OFFCURVE",
"1423 940 OFFCURVE",
"1139 940 CURVE SMOOTH",
"1032 940 OFFCURVE",
"938 924 OFFCURVE",
"840 890 CURVE",
"840 1238 LINE",
"1276 1238 LINE",
"1276 1435 LINE",
"35 1435 LINE",
"35 1238 LINE",
"476 1238 LINE",
"476 -16 LINE",
"840 -16 LINE",
"840 428 LINE SMOOTH",
"840 607 OFFCURVE",
"954 738 OFFCURVE",
"1112 738 CURVE SMOOTH",
"1229 738 OFFCURVE",
"1285 655 OFFCURVE",
"1285 485 CURVE SMOOTH",
"1285 440 LINE SMOOTH",
"1285 427 OFFCURVE",
"1294 172 OFFCURVE",
"1295 172 CURVE SMOOTH",
"1218 172 OFFCURVE",
"1243 189 OFFCURVE",
"1243 115 CURVE SMOOTH",
"1243 61 OFFCURVE",
"1309 55 OFFCURVE",
"1309 210 CURVE SMOOTH",
"1309 309 OFFCURVE",
"1238 377 OFFCURVE",
"1139 377 CURVE SMOOTH",
"1029 377 OFFCURVE",
"973 284 OFFCURVE",
"972 115 CURVE",
"988 -1 OFFCURVE",
"1133 -31 OFFCURVE",
"1308 -31 CURVE SMOOTH"
);
}
);
width = 1711;
},
{
layerId = "B71E0DD6-B640-4F5E-B48D-BF5E04BC2E71";
paths = (
{
closed = 1;
nodes = (
"1361 -15 OFFCURVE",
"1407 113 OFFCURVE",
"1407 406 CURVE SMOOTH",
"1407 553 LINE SMOOTH",
"1407 758 OFFCURVE",
"1278 896 OFFCURVE",
"1090 896 CURVE SMOOTH",
"887 896 OFFCURVE",
"878 779 OFFCURVE",
"598 300 CURVE",
"598 1353 LINE",
"1035 1353 LINE",
"1035 1430 LINE",
"179 1430 LINE",
"179 1353 LINE",
"620 1353 LINE",
"620 50 LINE",
"598 50 LINE",
"598 411 LINE SMOOTH",
"598 660 OFFCURVE",
"776 813 OFFCURVE",
"1063 813 CURVE SMOOTH",
"1313 813 OFFCURVE",
"1429 704 OFFCURVE",
"1429 473 CURVE SMOOTH",
"1429 425 LINE SMOOTH",
"1429 203 OFFCURVE",
"1458 67 OFFCURVE",
"1246 67 CURVE SMOOTH",
"1196 67 OFFCURVE",
"1002 98 OFFCURVE",
"1002 73 CURVE SMOOTH",
"1002 84 OFFCURVE",
"1067 62 OFFCURVE",
"1067 176 CURVE SMOOTH",
"1067 232 OFFCURVE",
"1067 239 OFFCURVE",
"1090 239 CURVE SMOOTH",
"1185 239 OFFCURVE",
"1110 239 OFFCURVE",
"1110 47 CURVE SMOOTH",
"1110 37 LINE",
"1154 -30 OFFCURVE",
"1152 -15 OFFCURVE",
"1259 -15 CURVE SMOOTH"
);
}
);
width = 1545;
}
);
unicode = 0402;
},
{
color = 1;
glyphname = "Yat-cy";
lastChange = "2019-12-17 01:48:37 +0000";
layers = (
{
layerId = "66066CCB-AAC9-4485-8967-3F6B885ABFA4";
paths = (
{
closed = 1;
nodes = (
"838 -18 LINE SMOOTH",
"1289 -18 OFFCURVE",
"1509 126 OFFCURVE",
"1509 430 CURVE SMOOTH",
"1509 723 OFFCURVE",
"1311 845 OFFCURVE",
"859 845 CURVE SMOOTH",
"734 845 LINE",
"734 1445 LINE",
"347 1445 LINE",
"347 -18 LINE"
);
},
{
closed = 1;
nodes = (
"734 652 LINE",
"890 652 LINE SMOOTH",
"1031 652 OFFCURVE",
"1109 573 OFFCURVE",
"1109 430 CURVE SMOOTH",
"1109 274 OFFCURVE",
"1002 175 OFFCURVE",
"838 175 CURVE SMOOTH",
"734 175 LINE"
);
},
{
closed = 1;
nodes = (
"1036 1052 LINE",
"1036 1246 LINE",
"44 1246 LINE",
"44 1052 LINE"
);
}
);
width = 1553;
},
{
layerId = "B71E0DD6-B640-4F5E-B48D-BF5E04BC2E71";
paths = (
{
closed = 1;
nodes = (
"543 0 LINE SMOOTH",
"825 0 OFFCURVE",
"1009 31 OFFCURVE",
"1009 415 CURVE SMOOTH",
"1009 770 OFFCURVE",
"863 795 OFFCURVE",
"564 795 CURVE SMOOTH",
"235 795 LINE",
"235 1380 LINE",
"257 1380 LINE",
"257 0 LINE"
);
},
{
closed = 1;
nodes = (
"235 718 LINE",
"595 718 LINE SMOOTH",
"850 718 OFFCURVE",
"1019 597 OFFCURVE",
"1019 415 CURVE SMOOTH",
"1019 218 OFFCURVE",
"820 77 OFFCURVE",
"543 77 CURVE SMOOTH",
"235 77 LINE"
);
},
{
closed = 1;
nodes = (
"538 1147 LINE",
"538 1224 LINE",
"-46 1224 LINE",
"-46 1147 LINE"
);
}
);
width = 1234;
}
);
unicode = 0462;
},
{
color = 1;
glyphname = "Fita-cy";
lastChange = "2019-12-17 01:48:37 +0000";
layers = (
{
layerId = "66066CCB-AAC9-4485-8967-3F6B885ABFA4";
paths = (
{
closed = 1;
nodes = (
"1169 -41 OFFCURVE",
"1393 35 OFFCURVE",
"1551 169 CURVE SMOOTH",
"1720 313 OFFCURVE",
"1807 496 OFFCURVE",
"1807 707 CURVE SMOOTH",
"1807 921 OFFCURVE",
"1718 1105 OFFCURVE",
"1549 1248 CURVE SMOOTH",
"1393 1378 OFFCURVE",
"1147 1464 OFFCURVE",
"934 1464 CURVE SMOOTH",
"726 1464 OFFCURVE",
"473 1375 OFFCURVE",
"320 1247 CURVE SMOOTH",
"151 1105 OFFCURVE",
"59 915 OFFCURVE",
"59 707 CURVE SMOOTH",
"59 495 OFFCURVE",
"148 313 OFFCURVE",
"320 168 CURVE SMOOTH",
"478 34 OFFCURVE",
"702 -41 OFFCURVE",
"934 -41 CURVE SMOOTH"
);
},
{
closed = 1;
nodes = (
"458 579 OFFCURVE",
"451 587 OFFCURVE",
"676 587 CURVE SMOOTH",
"765 587 OFFCURVE",
"938 538 OFFCURVE",
"1136 538 CURVE SMOOTH",
"1361 538 OFFCURVE",
"1562 611 OFFCURVE",
"1577 757 CURVE",
"1577 1197 LINE",
"1414 848 OFFCURVE",
"1416 832 OFFCURVE",
"1248 832 CURVE SMOOTH",
"1043 832 OFFCURVE",
"978 885 OFFCURVE",
"734 885 CURVE SMOOTH",
"509 885 OFFCURVE",
"307 811 OFFCURVE",
"290 665 CURVE",
"290 244 LINE"
);
},
{
closed = 1;
nodes = (
"660 146 OFFCURVE",
"477 370 OFFCURVE",
"477 707 CURVE SMOOTH",
"477 1049 OFFCURVE",
"660 1276 OFFCURVE",
"934 1276 CURVE SMOOTH",
"1207 1276 OFFCURVE",
"1390 1049 OFFCURVE",
"1390 707 CURVE SMOOTH",
"1390 370 OFFCURVE",
"1207 146 OFFCURVE",
"934 146 CURVE SMOOTH"
);
}
);
width = 1867;
},
{
layerId = "B71E0DD6-B640-4F5E-B48D-BF5E04BC2E71";
paths = (
{
closed = 1;
nodes = (
"1023 -25 OFFCURVE",
"1136 25 OFFCURVE",
"1311 182 CURVE SMOOTH",
"1412 274 OFFCURVE",
"1504 503 OFFCURVE",
"1504 712 CURVE SMOOTH",
"1504 920 OFFCURVE",
"1411 1157 OFFCURVE",
"1312 1244 CURVE SMOOTH",
"1125 1409 OFFCURVE",
"985 1459 OFFCURVE",
"834 1459 CURVE SMOOTH",
"671 1459 OFFCURVE",
"528 1394 OFFCURVE",
"358 1244 CURVE SMOOTH",
"272 1168 OFFCURVE",
"164 954 OFFCURVE",
"164 712 CURVE SMOOTH",
"164 506 OFFCURVE",
"252 278 OFFCURVE",
"358 182 CURVE SMOOTH",
"533 25 OFFCURVE",
"648 -25 OFFCURVE",
"834 -25 CURVE SMOOTH"
);
},
{
closed = 1;
nodes = (
"12 627 OFFCURVE",
"169 648 OFFCURVE",
"576 648 CURVE SMOOTH",
"726 648 OFFCURVE",
"884 596 OFFCURVE",
"1036 596 CURVE SMOOTH",
"1201 596 OFFCURVE",
"1227 609 OFFCURVE",
"1273 728 CURVE",
"1273 786 LINE",
"1730 817 OFFCURVE",
"1616 781 OFFCURVE",
"1149 781 CURVE SMOOTH",
"1008 781 OFFCURVE",
"787 838 OFFCURVE",
"634 838 CURVE SMOOTH",
"469 838 OFFCURVE",
"441 824 OFFCURVE",
"395 703 CURVE",
"395 617 LINE"
);
},
{
closed = 1;
nodes = (
"427 46 OFFCURVE",
"173 301 OFFCURVE",
"173 712 CURVE SMOOTH",
"173 1130 OFFCURVE",
"426 1388 OFFCURVE",
"834 1388 CURVE SMOOTH",
"1241 1388 OFFCURVE",
"1495 1130 OFFCURVE",
"1495 712 CURVE SMOOTH",
"1495 301 OFFCURVE",
"1241 46 OFFCURVE",
"834 46 CURVE SMOOTH"
);
}
);
width = 1668;
}
);
unicode = 0472;
},
{
color = 1;
glyphname = "Izhitsa-cy";
lastChange = "2019-12-17 01:48:37 +0000";
layers = (
{
layerId = "66066CCB-AAC9-4485-8967-3F6B885ABFA4";
paths = (
{
closed = 1;
nodes = (
"1316 1082 LINE SMOOTH",
"1356 1171 OFFCURVE",
"1378 1210 OFFCURVE",
"1427 1241 CURVE SMOOTH",
"1473 1270 OFFCURVE",
"1453 1258 OFFCURVE",
"1503 1258 CURVE SMOOTH",
"1502 1258 OFFCURVE",
"1483 1366 OFFCURVE",
"1483 1341 CURVE SMOOTH",
"1486 614 OFFCURVE",
"1396 1650 OFFCURVE",
"1396 1195 CURVE SMOOTH",
"1396 1097 OFFCURVE",
"1506 1011 OFFCURVE",
"1610 1011 CURVE SMOOTH",
"1724 1011 OFFCURVE",
"1776 1110 OFFCURVE",
"1775 1312 CURVE",
"1757 1415 OFFCURVE",
"1641 1453 OFFCURVE",
"1509 1453 CURVE SMOOTH",
"1425 1453 OFFCURVE",
"1366 1440 OFFCURVE",
"1311 1401 CURVE SMOOTH",
"1247 1355 OFFCURVE",
"1219 1316 OFFCURVE",
"1179 1233 CURVE SMOOTH",
"836 534 LINE",
"407 1435 LINE",
"-8 1435 LINE",
"735 -209 LINE"
);
}
);
width = 1808;
},
{
layerId = "B71E0DD6-B640-4F5E-B48D-BF5E04BC2E71";
paths = (
{
closed = 1;
nodes = (
"1000 1144 LINE SMOOTH",
"1041 1241 OFFCURVE",
"1054 1256 OFFCURVE",
"1165 1343 CURVE",
"1182 1358 OFFCURVE",
"1280 1374 OFFCURVE",
"1366 1374 CURVE SMOOTH",
"1365 1374 OFFCURVE",
"1538 1362 OFFCURVE",
"1538 1363 CURVE SMOOTH",
"1538 1122 OFFCURVE",
"1452 1513 OFFCURVE",
"1452 1238 CURVE SMOOTH",
"1452 1208 OFFCURVE",
"1456 1158 OFFCURVE",
"1473 1158 CURVE SMOOTH",
"1484 1158 OFFCURVE",
"1445 1250 OFFCURVE",
"1445 1385 CURVE SMOOTH",
"1445 1398 LINE",
"1416 1443 OFFCURVE",
"1409 1449 OFFCURVE",
"1372 1449 CURVE SMOOTH",
"1322 1449 OFFCURVE",
"1288 1404 OFFCURVE",
"1291 1406 CURVE",
"1291 1406 OFFCURVE",
"1275 1373 OFFCURVE",
"1230 1279 CURVE",
"697 50 LINE",
"107 1430 LINE",
"71 1430 LINE",
"597 195 LINE"
);
}
);
width = 1468;
}
);
unicode = 0474;
},
{
color = 1;
glyphname = "Ghestroke-cy";
lastChange = "2019-12-17 01:48:37 +0000";
layers = (
{
components = (
{
name = "Ge-cy";
transform = "{1, 0, 0, 1, 220, 62}";
}
);
layerId = "66066CCB-AAC9-4485-8967-3F6B885ABFA4";
paths = (
{
closed = 1;
nodes = (
"890 706 LINE",
"890 863 LINE",
"42 863 LINE",
"42 706 LINE"
);
}
);
width = 1393;
},
{
components = (
{
name = "Ge-cy";
transform = "{1, 0, 0, 1, 0, 25}";
}
);
layerId = "B71E0DD6-B640-4F5E-B48D-BF5E04BC2E71";
paths = (
{
closed = 1;
nodes = (
"538 757 LINE",
"538 834 LINE",
"-46 834 LINE",
"-46 757 LINE"
);
}
);
width = 1086;
}
);
unicode = 0492;
},
